<ttFont>
    <TTGlyph name=".notdef" xMin="40" yMin="0" xMax="437" yMax="1264">
      <contour>
        <pt x="40" y="1264" on="1"/>
        <pt x="437" y="1264" on="1"/>
        <pt x="437" y="0" on="1"/>
        <pt x="40" y="0" on="1"/>
      </contour>
      <contour>
        <pt x="429" y="8" on="1"/>
        <pt x="429" y="1256" on="1"/>
        <pt x="48" y="1256" on="1"/>
        <pt x="48" y="8" on="1"/>
      </contour>
    </TTGlyph>
    <TTGlyph name="A" xMin="-55" yMin="0" xMax="1276" yMax="1442">
      <contour>
        <pt x="604" y="1169" on="1"/>
        <pt x="393" y="555" on="1"/>
        <pt x="801" y="555" on="1"/>
        <pt x="633" y="1169" on="1"/>
      </contour>
      <contour>
        <pt x="692" y="1442" on="1"/>
        <pt x="1030" y="348" on="1"/>
        <pt x="1067" y="226" on="0"/>
        <pt x="1155" y="77" on="0"/>
        <pt x="1221" y="66" on="1"/>
        <pt x="1276" y="57" on="1"/>
        <pt x="1274" y="0" on="1"/>
        <pt x="1223" y="6" on="0"/>
        <pt x="1104" y="12" on="0"/>
        <pt x="1042" y="12" on="1"/>
        <pt x="976" y="12" on="0"/>
        <pt x="850" y="6" on="0"/>
        <pt x="793" y="0" on="1"/>
        <pt x="795" y="57" on="1"/>
        <pt x="936" y="70" on="1"/>
        <pt x="821" y="485" on="1"/>
        <pt x="782" y="485" on="1"/>
        <pt x="755" y="485" on="0"/>
        <pt x="667" y="484" on="0"/>
        <pt x="556" y="480" on="0"/>
        <pt x="428" y="472" on="0"/>
        <pt x="360" y="465" on="1"/>
        <pt x="305" y="311" on="1"/>
        <pt x="287" y="263" on="0"/>
        <pt x="260" y="177" on="0"/>
        <pt x="260" y="145" on="1"/>
        <pt x="260" y="113" on="0"/>
        <pt x="294" y="72" on="0"/>
        <pt x="336" y="66" on="1"/>
        <pt x="395" y="57" on="1"/>
        <pt x="393" y="0" on="1"/>
        <pt x="339" y="6" on="0"/>
        <pt x="240" y="14" on="0"/>
        <pt x="186" y="14" on="1"/>
        <pt x="132" y="14" on="0"/>
        <pt x="16" y="6" on="0"/>
        <pt x="-55" y="0" on="1"/>
        <pt x="-53" y="57" on="1"/>
        <pt x="-24" y="60" on="0"/>
        <pt x="2" y="63" on="1"/>
        <pt x="25" y="65" on="0"/>
        <pt x="71" y="69" on="0"/>
        <pt x="86" y="70" on="1"/>
        <pt x="127" y="156" on="0"/>
        <pt x="216" y="360" on="0"/>
        <pt x="309" y="584" on="0"/>
        <pt x="402" y="824" on="0"/>
        <pt x="492" y="1066" on="0"/>
        <pt x="575" y="1306" on="0"/>
        <pt x="612" y="1419" on="1"/>
      </contour>
    </TTGlyph>
    <TTGlyph name="AE" xMin="-88" yMin="-20" xMax="1649" yMax="1393">
      <contour>
        <pt x="874" y="487" on="1"/>
        <pt x="852" y="487" on="0"/>
        <pt x="756" y="486" on="0"/>
        <pt x="628" y="481" on="0"/>
        <pt x="478" y="472" on="0"/>
        <pt x="401" y="465" on="1"/>
        <pt x="313" y="313" on="1"/>
        <pt x="284" y="262" on="0"/>
        <pt x="238" y="168" on="0"/>
        <pt x="238" y="133" on="1"/>
        <pt x="238" y="107" on="0"/>
        <pt x="268" y="73" on="0"/>
        <pt x="303" y="68" on="1"/>
        <pt x="362" y="59" on="1"/>
        <pt x="360" y="2" on="1"/>
        <pt x="306" y="8" on="0"/>
        <pt x="208" y="16" on="0"/>
        <pt x="154" y="16" on="1"/>
        <pt x="100" y="16" on="0"/>
        <pt x="-17" y="8" on="0"/>
        <pt x="-88" y="2" on="1"/>
        <pt x="-86" y="59" on="1"/>
        <pt x="-57" y="62" on="0"/>
        <pt x="-31" y="65" on="1"/>
        <pt x="-8" y="67" on="0"/>
        <pt x="38" y="71" on="0"/>
        <pt x="53" y="72" on="1"/>
        <pt x="672" y="1081" on="1"/>
        <pt x="703" y="1131" on="0"/>
        <pt x="748" y="1226" on="0"/>
        <pt x="748" y="1262" on="1"/>
        <pt x="748" y="1288" on="0"/>
        <pt x="717" y="1322" on="0"/>
        <pt x="682" y="1327" on="1"/>
        <pt x="623" y="1335" on="1"/>
        <pt x="625" y="1393" on="1"/>
        <pt x="678" y="1386" on="0"/>
        <pt x="812" y="1378" on="0"/>
        <pt x="946" y="1373" on="0"/>
        <pt x="1067" y="1372" on="0"/>
        <pt x="1106" y="1372" on="1"/>
        <pt x="1132" y="1372" on="0"/>
        <pt x="1212" y="1373" on="0"/>
        <pt x="1306" y="1375" on="0"/>
        <pt x="1408" y="1378" on="0"/>
        <pt x="1506" y="1382" on="0"/>
        <pt x="1594" y="1388" on="0"/>
        <pt x="1626" y="1391" on="1"/>
        <pt x="1595" y="1053" on="1"/>
        <pt x="1534" y="1053" on="1"/>
        <pt x="1535" y="1073" on="0"/>
        <pt x="1536" y="1096" on="0"/>
        <pt x="1536" y="1109" on="0"/>
        <pt x="1536" y="1114" on="0"/>
        <pt x="1536" y="1116" on="1"/>
        <pt x="1536" y="1149" on="0"/>
        <pt x="1519" y="1209" on="0"/>
        <pt x="1470" y="1256" on="0"/>
        <pt x="1383" y="1287" on="0"/>
        <pt x="1313" y="1292" on="1"/>
        <pt x="1067" y="1309" on="1"/>
        <pt x="1059" y="1227" on="0"/>
        <pt x="1051" y="1058" on="0"/>
        <pt x="1049" y="987" on="1"/>
        <pt x="1040" y="762" on="1"/>
        <pt x="1466" y="784" on="1"/>
        <pt x="1456" y="657" on="1"/>
        <pt x="1396" y="665" on="0"/>
        <pt x="1273" y="677" on="0"/>
        <pt x="1161" y="685" on="0"/>
        <pt x="1068" y="690" on="0"/>
        <pt x="1038" y="692" on="1"/>
        <pt x="1034" y="572" on="0"/>
        <pt x="1030" y="473" on="1"/>
        <pt x="1028" y="431" on="0"/>
        <pt x="1026" y="347" on="0"/>
        <pt x="1023" y="276" on="0"/>
        <pt x="1022" y="226" on="0"/>
        <pt x="1022" y="217" on="1"/>
        <pt x="1022" y="165" on="0"/>
        <pt x="1050" y="103" on="0"/>
        <pt x="1107" y="71" on="0"/>
        <pt x="1191" y="61" on="0"/>
        <pt x="1247" y="61" on="1"/>
        <pt x="1327" y="61" on="0"/>
        <pt x="1440" y="81" on="0"/>
        <pt x="1519" y="135" on="0"/>
        <pt x="1569" y="230" on="0"/>
        <pt x="1585" y="305" on="1"/>
        <pt x="1649" y="305" on="1"/>
        <pt x="1645" y="278" on="0"/>
        <pt x="1629" y="196" on="0"/>
        <pt x="1605" y="105" on="0"/>
        <pt x="1575" y="15" on="0"/>
        <pt x="1556" y="-20" on="1"/>
        <pt x="1450" y="-17" on="0"/>
        <pt x="1257" y="-6" on="0"/>
        <pt x="1098" y="4" on="0"/>
        <pt x="980" y="12" on="0"/>
        <pt x="950" y="12" on="1"/>
        <pt x="899" y="12" on="0"/>
        <pt x="785" y="8" on="0"/>
        <pt x="711" y="0" on="1"/>
        <pt x="713" y="57" on="1"/>
        <pt x="739" y="59" on="0"/>
        <pt x="778" y="63" on="0"/>
        <pt x="812" y="67" on="0"/>
        <pt x="844" y="69" on="0"/>
        <pt x="862" y="70" on="1"/>
      </contour>
      <contour>
        <pt x="449" y="557" on="1"/>
        <pt x="877" y="557" on="1"/>
        <pt x="901" y="1309" on="1"/>
        <pt x="885" y="1309" on="1"/>
      </contour>
    </TTGlyph>
    <TTGlyph name="Aacute" xMin="-55" yMin="0" xMax="1276" yMax="1892">
      <component glyphName="A" x="0" y="0" flags="0x204"/>
      <component glyphName="acute.case" x="195" y="0" flags="0x4"/>
    </TTGlyph>
    <TTGlyph name="Acircumflex" xMin="-55" yMin="0" xMax="1276" yMax="1892">
      <component glyphName="A" x="0" y="0" flags="0x204"/>
      <component glyphName="circumflex.case" x="16" y="0" flags="0x4"/>
    </TTGlyph>
    <TTGlyph name="Adieresis" xMin="-55" yMin="0" xMax="1276" yMax="1763">
      <component glyphName="A" x="0" y="0" flags="0x204"/>
      <component glyphName="dieresis.case" x="80" y="0" flags="0x4"/>
    </TTGlyph>
    <TTGlyph name="Agrave" xMin="-55" yMin="0" xMax="1276" yMax="1886">
      <component glyphName="A" x="0" y="0" flags="0x204"/>
      <component glyphName="grave.case" x="29" y="0" flags="0x4"/>
    </TTGlyph>
    <TTGlyph name="Aring" xMin="-55" yMin="0" xMax="1276" yMax="1927">
      <component glyphName="A" x="0" y="0" flags="0x204"/>
      <component glyphName="ring.case" x="170" y="0" flags="0x4"/>
    </TTGlyph>
    <TTGlyph name="Atilde" xMin="-55" yMin="0" xMax="1276" yMax="1819">
      <component glyphName="A" x="0" y="0" flags="0x204"/>
      <component glyphName="tilde.case" x="86" y="0" flags="0x4"/>
    </TTGlyph>
    <TTGlyph name="B" xMin="59" yMin="-12" xMax="1049" yMax="1401">
      <contour>
        <pt x="944" y="1106" on="1"/>
        <pt x="944" y="1044" on="0"/>
        <pt x="906" y="938" on="0"/>
        <pt x="845" y="849" on="0"/>
        <pt x="769" y="778" on="0"/>
        <pt x="731" y="753" on="1"/>
        <pt x="814" y="731" on="0"/>
        <pt x="934" y="661" on="0"/>
        <pt x="1012" y="569" on="0"/>
        <pt x="1049" y="458" on="0"/>
        <pt x="1049" y="395" on="1"/>
        <pt x="1049" y="318" on="0"/>
        <pt x="994" y="172" on="0"/>
        <pt x="883" y="58" on="0"/>
        <pt x="718" y="-12" on="0"/>
        <pt x="608" y="-12" on="1"/>
        <pt x="568" y="-12" on="0"/>
        <pt x="488" y="-5" on="0"/>
        <pt x="408" y="4" on="0"/>
        <pt x="326" y="12" on="0"/>
        <pt x="285" y="12" on="1"/>
        <pt x="237" y="12" on="0"/>
        <pt x="128" y="6" on="0"/>
        <pt x="59" y="0" on="1"/>
        <pt x="61" y="57" on="1"/>
        <pt x="87" y="59" on="0"/>
        <pt x="127" y="63" on="0"/>
        <pt x="161" y="67" on="0"/>
        <pt x="193" y="69" on="0"/>
        <pt x="211" y="70" on="1"/>
        <pt x="221" y="373" on="0"/>
        <pt x="229" y="613" on="1"/>
        <pt x="232" y="715" on="0"/>
        <pt x="239" y="913" on="0"/>
        <pt x="245" y="1069" on="0"/>
        <pt x="248" y="1169" on="0"/>
        <pt x="248" y="1174" on="1"/>
        <pt x="248" y="1220" on="0"/>
        <pt x="236" y="1277" on="0"/>
        <pt x="210" y="1309" on="0"/>
        <pt x="172" y="1323" on="0"/>
        <pt x="147" y="1327" on="1"/>
        <pt x="104" y="1333" on="1"/>
        <pt x="106" y="1391" on="1"/>
        <pt x="130" y="1387" on="0"/>
        <pt x="160" y="1383" on="1"/>
        <pt x="186" y="1380" on="0"/>
        <pt x="254" y="1376" on="0"/>
        <pt x="295" y="1376" on="1"/>
        <pt x="338" y="1376" on="0"/>
        <pt x="403" y="1384" on="0"/>
        <pt x="469" y="1393" on="0"/>
        <pt x="547" y="1401" on="0"/>
        <pt x="604" y="1401" on="1"/>
        <pt x="696" y="1401" on="0"/>
        <pt x="826" y="1351" on="0"/>
        <pt x="907" y="1269" on="0"/>
        <pt x="944" y="1163" on="0"/>
      </contour>
      <contour>
        <pt x="387" y="713" on="1"/>
        <pt x="383" y="581" on="0"/>
        <pt x="379" y="475" on="1"/>
        <pt x="377" y="430" on="0"/>
        <pt x="375" y="340" on="0"/>
        <pt x="372" y="267" on="0"/>
        <pt x="371" y="216" on="0"/>
        <pt x="371" y="209" on="1"/>
        <pt x="371" y="167" on="0"/>
        <pt x="389" y="106" on="0"/>
        <pt x="434" y="65" on="0"/>
        <pt x="511" y="45" on="0"/>
        <pt x="571" y="45" on="1"/>
        <pt x="587" y="45" on="0"/>
        <pt x="647" y="51" on="0"/>
        <pt x="717" y="72" on="0"/>
        <pt x="789" y="114" on="0"/>
        <pt x="848" y="186" on="0"/>
        <pt x="885" y="293" on="0"/>
        <pt x="885" y="369" on="1"/>
        <pt x="885" y="443" on="0"/>
        <pt x="840" y="571" on="0"/>
        <pt x="745" y="665" on="0"/>
        <pt x="598" y="719" on="0"/>
        <pt x="496" y="719" on="1"/>
        <pt x="442" y="719" on="0"/>
      </contour>
      <contour>
        <pt x="446" y="784" on="1"/>
        <pt x="497" y="784" on="0"/>
        <pt x="588" y="777" on="0"/>
        <pt x="630" y="772" on="1"/>
        <pt x="664" y="796" on="0"/>
        <pt x="721" y="858" on="0"/>
        <pt x="763" y="931" on="0"/>
        <pt x="786" y="1015" on="0"/>
        <pt x="786" y="1061" on="1"/>
        <pt x="786" y="1127" on="0"/>
        <pt x="750" y="1229" on="0"/>
        <pt x="686" y="1299" on="0"/>
        <pt x="600" y="1335" on="0"/>
        <pt x="549" y="1335" on="1"/>
        <pt x="520" y="1335" on="0"/>
        <pt x="460" y="1334" on="0"/>
        <pt x="420" y="1329" on="1"/>
        <pt x="417" y="1300" on="0"/>
        <pt x="410" y="1213" on="0"/>
        <pt x="402" y="1111" on="0"/>
        <pt x="396" y="1002" on="0"/>
        <pt x="395" y="952" on="1"/>
        <pt x="389" y="784" on="1"/>
      </contour>
    </TTGlyph>
    <TTGlyph name="C" xMin="92" yMin="-29" xMax="1366" yMax="1419">
      <contour>
        <pt x="918" y="1346" on="1"/>
        <pt x="793" y="1346" on="0"/>
        <pt x="562" y="1264" on="0"/>
        <pt x="385" y="1105" on="0"/>
        <pt x="279" y="872" on="0"/>
        <pt x="279" y="721" on="1"/>
        <pt x="279" y="608" on="0"/>
        <pt x="335" y="422" on="0"/>
        <pt x="431" y="274" on="0"/>
        <pt x="560" y="164" on="0"/>
        <pt x="707" y="91" on="0"/>
        <pt x="864" y="55" on="0"/>
        <pt x="940" y="55" on="1"/>
        <pt x="988" y="55" on="0"/>
        <pt x="1068" y="61" on="0"/>
        <pt x="1149" y="76" on="0"/>
        <pt x="1237" y="101" on="0"/>
        <pt x="1292" y="119" on="1"/>
        <pt x="1311" y="61" on="1"/>
        <pt x="1258" y="35" on="0"/>
        <pt x="1137" y="1" on="0"/>
        <pt x="1019" y="-20" on="0"/>
        <pt x="910" y="-29" on="0"/>
        <pt x="868" y="-29" on="1"/>
        <pt x="759" y="-29" on="0"/>
        <pt x="559" y="18" on="0"/>
        <pt x="387" y="104" on="0"/>
        <pt x="246" y="228" on="0"/>
        <pt x="146" y="383" on="0"/>
        <pt x="92" y="564" on="0"/>
        <pt x="92" y="666" on="1"/>
        <pt x="92" y="776" on="0"/>
        <pt x="146" y="973" on="0"/>
        <pt x="247" y="1140" on="0"/>
        <pt x="392" y="1275" on="0"/>
        <pt x="573" y="1369" on="0"/>
        <pt x="786" y="1419" on="0"/>
        <pt x="905" y="1419" on="1"/>
        <pt x="1056" y="1419" on="0"/>
        <pt x="1280" y="1384" on="0"/>
        <pt x="1366" y="1362" on="1"/>
        <pt x="1337" y="1028" on="1"/>
        <pt x="1276" y="1028" on="1"/>
        <pt x="1276" y="1044" on="1"/>
        <pt x="1276" y="1095" on="0"/>
        <pt x="1251" y="1202" on="0"/>
        <pt x="1175" y="1290" on="0"/>
        <pt x="1034" y="1346" on="0"/>
      </contour>
    </TTGlyph>
    <TTGlyph name="Ccedilla" xMin="92" yMin="-440" xMax="1366" yMax="1419">
      <contour>
        <pt x="639" y="-160" on="1"/>
        <pt x="645" y="-147" on="0"/>
        <pt x="662" y="-111" on="0"/>
        <pt x="678" y="-71" on="0"/>
        <pt x="695" y="-31" on="0"/>
        <pt x="701" y="-14" on="1"/>
        <pt x="569" y="10" on="0"/>
        <pt x="345" y="129" on="0"/>
        <pt x="183" y="306" on="0"/>
        <pt x="92" y="534" on="0"/>
        <pt x="92" y="666" on="1"/>
        <pt x="92" y="776" on="0"/>
        <pt x="146" y="973" on="0"/>
        <pt x="247" y="1140" on="0"/>
        <pt x="392" y="1275" on="0"/>
        <pt x="573" y="1369" on="0"/>
        <pt x="786" y="1419" on="0"/>
        <pt x="905" y="1419" on="1"/>
        <pt x="1056" y="1419" on="0"/>
        <pt x="1280" y="1384" on="0"/>
        <pt x="1366" y="1362" on="1"/>
        <pt x="1337" y="1028" on="1"/>
        <pt x="1276" y="1028" on="1"/>
        <pt x="1276" y="1044" on="1"/>
        <pt x="1276" y="1095" on="0"/>
        <pt x="1251" y="1202" on="0"/>
        <pt x="1175" y="1290" on="0"/>
        <pt x="1034" y="1346" on="0"/>
        <pt x="918" y="1346" on="1"/>
        <pt x="793" y="1346" on="0"/>
        <pt x="562" y="1264" on="0"/>
        <pt x="385" y="1105" on="0"/>
        <pt x="279" y="872" on="0"/>
        <pt x="279" y="721" on="1"/>
        <pt x="279" y="608" on="0"/>
        <pt x="335" y="422" on="0"/>
        <pt x="431" y="274" on="0"/>
        <pt x="560" y="164" on="0"/>
        <pt x="707" y="91" on="0"/>
        <pt x="864" y="55" on="0"/>
        <pt x="940" y="55" on="1"/>
        <pt x="988" y="55" on="0"/>
        <pt x="1068" y="61" on="0"/>
        <pt x="1149" y="76" on="0"/>
        <pt x="1237" y="101" on="0"/>
        <pt x="1292" y="119" on="1"/>
        <pt x="1311" y="61" on="1"/>
        <pt x="1258" y="35" on="0"/>
        <pt x="1137" y="1" on="0"/>
        <pt x="1019" y="-20" on="0"/>
        <pt x="910" y="-29" on="0"/>
        <pt x="868" y="-29" on="1"/>
        <pt x="840" y="-29" on="0"/>
        <pt x="785" y="-25" on="0"/>
        <pt x="759" y="-22" on="1"/>
        <pt x="743" y="-66" on="1"/>
        <pt x="824" y="-80" on="0"/>
        <pt x="911" y="-170" on="0"/>
        <pt x="911" y="-233" on="1"/>
        <pt x="911" y="-272" on="0"/>
        <pt x="875" y="-347" on="0"/>
        <pt x="812" y="-405" on="0"/>
        <pt x="723" y="-440" on="0"/>
        <pt x="671" y="-440" on="1"/>
        <pt x="622" y="-440" on="0"/>
        <pt x="575" y="-391" on="0"/>
        <pt x="575" y="-362" on="1"/>
        <pt x="575" y="-332" on="0"/>
        <pt x="598" y="-309" on="1"/>
        <pt x="606" y="-315" on="0"/>
        <pt x="639" y="-333" on="0"/>
        <pt x="681" y="-350" on="0"/>
        <pt x="728" y="-362" on="0"/>
        <pt x="749" y="-362" on="1"/>
        <pt x="767" y="-362" on="0"/>
        <pt x="803" y="-351" on="0"/>
        <pt x="830" y="-330" on="0"/>
        <pt x="847" y="-300" on="0"/>
        <pt x="847" y="-281" on="1"/>
        <pt x="847" y="-244" on="0"/>
        <pt x="816" y="-197" on="0"/>
        <pt x="761" y="-170" on="0"/>
        <pt x="685" y="-160" on="0"/>
      </contour>
    </TTGlyph>
    <TTGlyph name="D" xMin="63" yMin="-12" xMax="1479" yMax="1401">
      <contour>
        <pt x="63" y="57" on="1"/>
        <pt x="89" y="59" on="0"/>
        <pt x="129" y="63" on="0"/>
        <pt x="163" y="67" on="0"/>
        <pt x="195" y="69" on="0"/>
        <pt x="213" y="70" on="1"/>
        <pt x="223" y="363" on="0"/>
        <pt x="231" y="600" on="1"/>
        <pt x="234" y="701" on="0"/>
        <pt x="241" y="897" on="0"/>
        <pt x="247" y="1057" on="0"/>
        <pt x="250" y="1164" on="0"/>
        <pt x="250" y="1176" on="1"/>
        <pt x="250" y="1222" on="0"/>
        <pt x="238" y="1278" on="0"/>
        <pt x="214" y="1309" on="0"/>
        <pt x="177" y="1323" on="0"/>
        <pt x="152" y="1327" on="1"/>
        <pt x="109" y="1333" on="1"/>
        <pt x="109" y="1391" on="1"/>
        <pt x="138" y="1387" on="0"/>
        <pt x="172" y="1383" on="1"/>
        <pt x="201" y="1380" on="0"/>
        <pt x="278" y="1376" on="0"/>
        <pt x="322" y="1376" on="1"/>
        <pt x="377" y="1376" on="0"/>
        <pt x="488" y="1384" on="0"/>
        <pt x="604" y="1393" on="0"/>
        <pt x="725" y="1401" on="0"/>
        <pt x="791" y="1401" on="1"/>
        <pt x="944" y="1401" on="0"/>
        <pt x="1198" y="1301" on="0"/>
        <pt x="1379" y="1117" on="0"/>
        <pt x="1479" y="859" on="0"/>
        <pt x="1479" y="702" on="1"/>
        <pt x="1479" y="630" on="0"/>
        <pt x="1448" y="469" on="0"/>
        <pt x="1377" y="310" on="0"/>
        <pt x="1260" y="165" on="0"/>
        <pt x="1090" y="54" on="0"/>
        <pt x="860" y="-12" on="0"/>
        <pt x="711" y="-12" on="1"/>
        <pt x="665" y="-12" on="0"/>
        <pt x="570" y="-5" on="0"/>
        <pt x="473" y="4" on="0"/>
        <pt x="373" y="12" on="0"/>
        <pt x="322" y="12" on="1"/>
        <pt x="274" y="12" on="0"/>
        <pt x="145" y="9" on="0"/>
        <pt x="63" y="0" on="1"/>
      </contour>
      <contour>
        <pt x="649" y="1327" on="1"/>
        <pt x="615" y="1327" on="0"/>
        <pt x="547" y="1326" on="0"/>
        <pt x="485" y="1323" on="0"/>
        <pt x="431" y="1319" on="0"/>
        <pt x="412" y="1317" on="1"/>
        <pt x="401" y="1024" on="0"/>
        <pt x="393" y="788" on="1"/>
        <pt x="390" y="687" on="0"/>
        <pt x="383" y="492" on="0"/>
        <pt x="378" y="335" on="0"/>
        <pt x="375" y="230" on="0"/>
        <pt x="375" y="221" on="1"/>
        <pt x="375" y="173" on="0"/>
        <pt x="395" y="108" on="0"/>
        <pt x="453" y="69" on="0"/>
        <pt x="558" y="53" on="0"/>
        <pt x="643" y="53" on="1"/>
        <pt x="694" y="53" on="0"/>
        <pt x="829" y="69" on="0"/>
        <pt x="974" y="115" on="0"/>
        <pt x="1114" y="200" on="0"/>
        <pt x="1224" y="340" on="0"/>
        <pt x="1292" y="541" on="0"/>
        <pt x="1292" y="680" on="1"/>
        <pt x="1292" y="754" on="0"/>
        <pt x="1269" y="907" on="0"/>
        <pt x="1213" y="1051" on="0"/>
        <pt x="1118" y="1178" on="0"/>
        <pt x="975" y="1272" on="0"/>
        <pt x="779" y="1327" on="0"/>
      </contour>
    </TTGlyph>
    <TTGlyph name="E" xMin="61" yMin="-20" xMax="999" yMax="1391">
      <contour>
        <pt x="807" y="657" on="1"/>
        <pt x="747" y="665" on="0"/>
        <pt x="624" y="677" on="0"/>
        <pt x="512" y="685" on="0"/>
        <pt x="419" y="690" on="0"/>
        <pt x="389" y="692" on="1"/>
        <pt x="385" y="572" on="0"/>
        <pt x="381" y="473" on="1"/>
        <pt x="379" y="431" on="0"/>
        <pt x="377" y="347" on="0"/>
        <pt x="374" y="276" on="0"/>
        <pt x="373" y="226" on="0"/>
        <pt x="373" y="217" on="1"/>
        <pt x="373" y="165" on="0"/>
        <pt x="401" y="103" on="0"/>
        <pt x="458" y="71" on="0"/>
        <pt x="542" y="61" on="0"/>
        <pt x="598" y="61" on="1"/>
        <pt x="678" y="61" on="0"/>
        <pt x="791" y="81" on="0"/>
        <pt x="870" y="135" on="0"/>
        <pt x="920" y="230" on="0"/>
        <pt x="936" y="305" on="1"/>
        <pt x="999" y="305" on="1"/>
        <pt x="995" y="278" on="0"/>
        <pt x="979" y="196" on="0"/>
        <pt x="956" y="105" on="0"/>
        <pt x="925" y="15" on="0"/>
        <pt x="907" y="-20" on="1"/>
        <pt x="801" y="-17" on="0"/>
        <pt x="608" y="-6" on="0"/>
        <pt x="449" y="4" on="0"/>
        <pt x="331" y="12" on="0"/>
        <pt x="301" y="12" on="1"/>
        <pt x="250" y="12" on="0"/>
        <pt x="136" y="8" on="0"/>
        <pt x="61" y="0" on="1"/>
        <pt x="63" y="57" on="1"/>
        <pt x="89" y="59" on="0"/>
        <pt x="129" y="63" on="0"/>
        <pt x="163" y="67" on="0"/>
        <pt x="195" y="69" on="0"/>
        <pt x="213" y="70" on="1"/>
        <pt x="223" y="363" on="0"/>
        <pt x="231" y="600" on="1"/>
        <pt x="234" y="701" on="0"/>
        <pt x="241" y="898" on="0"/>
        <pt x="247" y="1058" on="0"/>
        <pt x="250" y="1166" on="0"/>
        <pt x="250" y="1178" on="1"/>
        <pt x="250" y="1223" on="0"/>
        <pt x="239" y="1278" on="0"/>
        <pt x="215" y="1309" on="0"/>
        <pt x="177" y="1323" on="0"/>
        <pt x="150" y="1327" on="1"/>
        <pt x="109" y="1333" on="1"/>
        <pt x="109" y="1391" on="1"/>
        <pt x="137" y="1387" on="0"/>
        <pt x="180" y="1383" on="1"/>
        <pt x="217" y="1380" on="0"/>
        <pt x="329" y="1376" on="0"/>
        <pt x="410" y="1376" on="1"/>
        <pt x="651" y="1376" on="1"/>
        <pt x="691" y="1376" on="0"/>
        <pt x="767" y="1377" on="0"/>
        <pt x="845" y="1380" on="0"/>
        <pt x="929" y="1386" on="0"/>
        <pt x="977" y="1391" on="1"/>
        <pt x="946" y="1053" on="1"/>
        <pt x="885" y="1053" on="1"/>
        <pt x="886" y="1073" on="0"/>
        <pt x="887" y="1096" on="0"/>
        <pt x="887" y="1109" on="0"/>
        <pt x="887" y="1114" on="0"/>
        <pt x="887" y="1116" on="1"/>
        <pt x="887" y="1149" on="0"/>
        <pt x="870" y="1209" on="0"/>
        <pt x="821" y="1256" on="0"/>
        <pt x="734" y="1287" on="0"/>
        <pt x="664" y="1292" on="1"/>
        <pt x="418" y="1309" on="1"/>
        <pt x="410" y="1227" on="0"/>
        <pt x="401" y="1058" on="0"/>
        <pt x="399" y="987" on="1"/>
        <pt x="391" y="762" on="1"/>
        <pt x="817" y="784" on="1"/>
      </contour>
    </TTGlyph>
    <TTGlyph name="Eacute" xMin="61" yMin="-20" xMax="999" yMax="1892">
      <component glyphName="E" x="0" y="0" flags="0x204"/>
      <component glyphName="acute.case" x="-17" y="0" flags="0x4"/>
    </TTGlyph>
    <TTGlyph name="Ecircumflex" xMin="61" yMin="-20" xMax="999" yMax="1892">
      <component glyphName="E" x="0" y="0" flags="0x204"/>
      <component glyphName="circumflex.case" x="-50" y="0" flags="0x4"/>
    </TTGlyph>
    <TTGlyph name="Edieresis" xMin="61" yMin="-20" xMax="999" yMax="1763">
      <component glyphName="E" x="0" y="0" flags="0x204"/>
      <component glyphName="dieresis.case" x="-9" y="0" flags="0x4"/>
    </TTGlyph>
    <TTGlyph name="Egrave" xMin="61" yMin="-20" xMax="999" yMax="1886">
      <component glyphName="E" x="0" y="0" flags="0x204"/>
      <component glyphName="grave.case" x="74" y="0" flags="0x4"/>
    </TTGlyph>
    <TTGlyph name="Eth" xMin="8" yMin="-12" xMax="1552" yMax="1401">
      <contour>
        <pt x="12" y="762" on="1"/>
        <pt x="310" y="762" on="1"/>
        <pt x="311" y="780" on="0"/>
        <pt x="311" y="799" on="1"/>
        <pt x="315" y="897" on="0"/>
        <pt x="321" y="1057" on="0"/>
        <pt x="324" y="1164" on="0"/>
        <pt x="324" y="1176" on="1"/>
        <pt x="324" y="1222" on="0"/>
        <pt x="312" y="1278" on="0"/>
        <pt x="288" y="1309" on="0"/>
        <pt x="250" y="1323" on="0"/>
        <pt x="225" y="1327" on="1"/>
        <pt x="182" y="1333" on="1"/>
        <pt x="182" y="1391" on="1"/>
        <pt x="212" y="1387" on="0"/>
        <pt x="246" y="1383" on="1"/>
        <pt x="275" y="1380" on="0"/>
        <pt x="352" y="1376" on="0"/>
        <pt x="395" y="1376" on="1"/>
        <pt x="450" y="1376" on="0"/>
        <pt x="562" y="1384" on="0"/>
        <pt x="677" y="1393" on="0"/>
        <pt x="799" y="1401" on="0"/>
        <pt x="864" y="1401" on="1"/>
        <pt x="1018" y="1401" on="0"/>
        <pt x="1271" y="1301" on="0"/>
        <pt x="1452" y="1117" on="0"/>
        <pt x="1552" y="859" on="0"/>
        <pt x="1552" y="702" on="1"/>
        <pt x="1552" y="630" on="0"/>
        <pt x="1521" y="469" on="0"/>
        <pt x="1450" y="310" on="0"/>
        <pt x="1333" y="165" on="0"/>
        <pt x="1163" y="54" on="0"/>
        <pt x="933" y="-12" on="0"/>
        <pt x="784" y="-12" on="1"/>
        <pt x="738" y="-12" on="0"/>
        <pt x="644" y="-5" on="0"/>
        <pt x="546" y="4" on="0"/>
        <pt x="446" y="12" on="0"/>
        <pt x="395" y="12" on="1"/>
        <pt x="347" y="12" on="0"/>
        <pt x="219" y="9" on="0"/>
        <pt x="137" y="0" on="1"/>
        <pt x="137" y="57" on="1"/>
        <pt x="163" y="59" on="0"/>
        <pt x="203" y="63" on="0"/>
        <pt x="237" y="67" on="0"/>
        <pt x="269" y="69" on="0"/>
        <pt x="287" y="70" on="1"/>
        <pt x="297" y="363" on="0"/>
        <pt x="305" y="600" on="1"/>
        <pt x="306" y="640" on="0"/>
        <pt x="307" y="679" on="1"/>
        <pt x="233" y="675" on="0"/>
        <pt x="160" y="671" on="1"/>
        <pt x="81" y="666" on="0"/>
        <pt x="8" y="659" on="1"/>
      </contour>
      <contour>
        <pt x="723" y="1327" on="1"/>
        <pt x="689" y="1327" on="0"/>
        <pt x="621" y="1326" on="0"/>
        <pt x="558" y="1323" on="0"/>
        <pt x="504" y="1319" on="0"/>
        <pt x="485" y="1317" on="1"/>
        <pt x="475" y="1024" on="0"/>
        <pt x="467" y="788" on="1"/>
        <pt x="466" y="775" on="0"/>
        <pt x="466" y="762" on="1"/>
        <pt x="831" y="762" on="1"/>
        <pt x="829" y="692" on="1"/>
        <pt x="794" y="692" on="0"/>
        <pt x="685" y="691" on="0"/>
        <pt x="551" y="688" on="0"/>
        <pt x="474" y="685" on="1"/>
        <pt x="469" y="685" on="0"/>
        <pt x="464" y="685" on="1"/>
        <pt x="462" y="637" on="0"/>
        <pt x="460" y="589" on="1"/>
        <pt x="457" y="492" on="0"/>
        <pt x="452" y="335" on="0"/>
        <pt x="449" y="230" on="0"/>
        <pt x="449" y="221" on="1"/>
        <pt x="449" y="173" on="0"/>
        <pt x="469" y="108" on="0"/>
        <pt x="526" y="69" on="0"/>
        <pt x="631" y="53" on="0"/>
        <pt x="717" y="53" on="1"/>
        <pt x="768" y="53" on="0"/>
        <pt x="903" y="69" on="0"/>
        <pt x="1048" y="115" on="0"/>
        <pt x="1188" y="200" on="0"/>
        <pt x="1298" y="340" on="0"/>
        <pt x="1366" y="541" on="0"/>
        <pt x="1366" y="680" on="1"/>
        <pt x="1366" y="754" on="0"/>
        <pt x="1343" y="907" on="0"/>
        <pt x="1287" y="1051" on="0"/>
        <pt x="1192" y="1178" on="0"/>
        <pt x="1049" y="1272" on="0"/>
        <pt x="853" y="1327" on="0"/>
      </contour>
    </TTGlyph>
    <TTGlyph name="Euro" xMin="66" yMin="-29" xMax="1241" yMax="1419">
      <contour>
        <pt x="78" y="840" on="1"/>
        <pt x="284" y="840" on="1"/>
        <pt x="306" y="952" on="0"/>
        <pt x="410" y="1161" on="0"/>
        <pt x="571" y="1322" on="0"/>
        <pt x="786" y="1419" on="0"/>
        <pt x="920" y="1419" on="1"/>
        <pt x="1011" y="1419" on="0"/>
        <pt x="1179" y="1384" on="0"/>
        <pt x="1241" y="1362" on="1"/>
        <pt x="1212" y="1028" on="1"/>
        <pt x="1151" y="1028" on="1"/>
        <pt x="1151" y="1042" on="1"/>
        <pt x="1151" y="1072" on="0"/>
        <pt x="1145" y="1140" on="0"/>
        <pt x="1127" y="1207" on="0"/>
        <pt x="1094" y="1270" on="0"/>
        <pt x="1040" y="1317" on="0"/>
        <pt x="963" y="1346" on="0"/>
        <pt x="909" y="1346" on="1"/>
        <pt x="831" y="1346" on="0"/>
        <pt x="684" y="1281" on="0"/>
        <pt x="562" y="1153" on="0"/>
        <pt x="477" y="964" on="0"/>
        <pt x="462" y="840" on="1"/>
        <pt x="1137" y="840" on="1"/>
        <pt x="1112" y="770" on="1"/>
        <pt x="1014" y="769" on="0"/>
        <pt x="905" y="768" on="1"/>
        <pt x="858" y="767" on="0"/>
        <pt x="752" y="766" on="0"/>
        <pt x="637" y="763" on="0"/>
        <pt x="516" y="760" on="0"/>
        <pt x="456" y="758" on="1"/>
        <pt x="455" y="748" on="0"/>
        <pt x="455" y="728" on="0"/>
        <pt x="455" y="717" on="1"/>
        <pt x="455" y="668" on="0"/>
        <pt x="458" y="623" on="1"/>
        <pt x="1061" y="623" on="1"/>
        <pt x="1036" y="553" on="1"/>
        <pt x="954" y="553" on="0"/>
        <pt x="861" y="552" on="1"/>
        <pt x="781" y="551" on="0"/>
        <pt x="576" y="547" on="0"/>
        <pt x="467" y="543" on="1"/>
        <pt x="486" y="407" on="0"/>
        <pt x="582" y="220" on="0"/>
        <pt x="709" y="105" on="0"/>
        <pt x="858" y="55" on="0"/>
        <pt x="930" y="55" on="1"/>
        <pt x="965" y="55" on="0"/>
        <pt x="1024" y="61" on="0"/>
        <pt x="1082" y="76" on="0"/>
        <pt x="1146" y="101" on="0"/>
        <pt x="1186" y="119" on="1"/>
        <pt x="1206" y="61" on="1"/>
        <pt x="1123" y="9" on="0"/>
        <pt x="952" y="-29" on="0"/>
        <pt x="881" y="-29" on="1"/>
        <pt x="762" y="-29" on="0"/>
        <pt x="558" y="44" on="0"/>
        <pt x="399" y="186" on="0"/>
        <pt x="295" y="396" on="0"/>
        <pt x="277" y="534" on="1"/>
        <pt x="220" y="531" on="0"/>
        <pt x="114" y="525" on="0"/>
        <pt x="66" y="520" on="1"/>
        <pt x="70" y="623" on="1"/>
        <pt x="269" y="623" on="1"/>
        <pt x="268" y="637" on="0"/>
        <pt x="268" y="664" on="0"/>
        <pt x="268" y="678" on="1"/>
        <pt x="268" y="714" on="0"/>
        <pt x="271" y="750" on="1"/>
        <pt x="217" y="747" on="0"/>
        <pt x="119" y="741" on="0"/>
        <pt x="74" y="737" on="1"/>
      </contour>
    </TTGlyph>
    <TTGlyph name="F" xMin="63" yMin="0" xMax="977" yMax="1391">
      <contour>
        <pt x="809" y="639" on="1"/>
        <pt x="749" y="646" on="0"/>
        <pt x="625" y="659" on="0"/>
        <pt x="512" y="668" on="0"/>
        <pt x="418" y="673" on="0"/>
        <pt x="389" y="674" on="1"/>
        <pt x="385" y="568" on="0"/>
        <pt x="382" y="477" on="1"/>
        <pt x="380" y="438" on="0"/>
        <pt x="378" y="360" on="0"/>
        <pt x="376" y="292" on="0"/>
        <pt x="375" y="239" on="0"/>
        <pt x="375" y="225" on="1"/>
        <pt x="375" y="176" on="0"/>
        <pt x="389" y="116" on="0"/>
        <pt x="416" y="82" on="0"/>
        <pt x="457" y="67" on="0"/>
        <pt x="483" y="63" on="1"/>
        <pt x="526" y="57" on="1"/>
        <pt x="526" y="0" on="1"/>
        <pt x="501" y="3" on="0"/>
        <pt x="468" y="7" on="1"/>
        <pt x="440" y="9" on="0"/>
        <pt x="361" y="14" on="0"/>
        <pt x="311" y="14" on="1"/>
        <pt x="260" y="14" on="0"/>
        <pt x="138" y="8" on="0"/>
        <pt x="63" y="0" on="1"/>
        <pt x="63" y="57" on="1"/>
        <pt x="89" y="59" on="0"/>
        <pt x="129" y="63" on="0"/>
        <pt x="163" y="67" on="0"/>
        <pt x="195" y="69" on="0"/>
        <pt x="213" y="70" on="1"/>
        <pt x="220" y="273" on="0"/>
        <pt x="230" y="583" on="0"/>
        <pt x="238" y="813" on="0"/>
        <pt x="244" y="973" on="0"/>
        <pt x="247" y="1078" on="0"/>
        <pt x="249" y="1137" on="0"/>
        <pt x="250" y="1167" on="0"/>
        <pt x="250" y="1176" on="0"/>
        <pt x="250" y="1178" on="1"/>
        <pt x="250" y="1223" on="0"/>
        <pt x="239" y="1278" on="0"/>
        <pt x="215" y="1309" on="0"/>
        <pt x="177" y="1323" on="0"/>
        <pt x="150" y="1327" on="1"/>
        <pt x="109" y="1333" on="1"/>
        <pt x="109" y="1391" on="1"/>
        <pt x="137" y="1387" on="0"/>
        <pt x="180" y="1383" on="1"/>
        <pt x="217" y="1380" on="0"/>
        <pt x="329" y="1376" on="0"/>
        <pt x="410" y="1376" on="1"/>
        <pt x="651" y="1376" on="1"/>
        <pt x="691" y="1376" on="0"/>
        <pt x="767" y="1377" on="0"/>
        <pt x="845" y="1380" on="0"/>
        <pt x="929" y="1386" on="0"/>
        <pt x="977" y="1391" on="1"/>
        <pt x="946" y="1053" on="1"/>
        <pt x="885" y="1053" on="1"/>
        <pt x="887" y="1073" on="0"/>
        <pt x="887" y="1096" on="0"/>
        <pt x="887" y="1110" on="1"/>
        <pt x="887" y="1143" on="0"/>
        <pt x="873" y="1204" on="0"/>
        <pt x="827" y="1253" on="0"/>
        <pt x="739" y="1287" on="0"/>
        <pt x="666" y="1292" on="1"/>
        <pt x="418" y="1309" on="1"/>
        <pt x="410" y="1227" on="0"/>
        <pt x="402" y="1058" on="0"/>
        <pt x="399" y="987" on="1"/>
        <pt x="391" y="743" on="1"/>
        <pt x="819" y="766" on="1"/>
      </contour>
    </TTGlyph>
    <TTGlyph name="G" xMin="94" yMin="-29" xMax="1493" yMax="1419">
      <contour>
        <pt x="1325" y="55" on="1"/>
        <pt x="1281" y="39" on="0"/>
        <pt x="1170" y="9" on="0"/>
        <pt x="1049" y="-15" on="0"/>
        <pt x="924" y="-29" on="0"/>
        <pt x="866" y="-29" on="1"/>
        <pt x="763" y="-29" on="0"/>
        <pt x="569" y="14" on="0"/>
        <pt x="397" y="97" on="0"/>
        <pt x="254" y="219" on="0"/>
        <pt x="151" y="377" on="0"/>
        <pt x="94" y="571" on="0"/>
        <pt x="94" y="684" on="1"/>
        <pt x="94" y="853" on="0"/>
        <pt x="217" y="1125" on="0"/>
        <pt x="433" y="1316" on="0"/>
        <pt x="729" y="1419" on="0"/>
        <pt x="903" y="1419" on="1"/>
        <pt x="966" y="1419" on="0"/>
        <pt x="1092" y="1409" on="0"/>
        <pt x="1209" y="1393" on="0"/>
        <pt x="1315" y="1373" on="0"/>
        <pt x="1358" y="1362" on="1"/>
        <pt x="1329" y="1028" on="1"/>
        <pt x="1268" y="1028" on="1"/>
        <pt x="1268" y="1044" on="1"/>
        <pt x="1268" y="1092" on="0"/>
        <pt x="1242" y="1198" on="0"/>
        <pt x="1166" y="1287" on="0"/>
        <pt x="1024" y="1346" on="0"/>
        <pt x="909" y="1346" on="1"/>
        <pt x="771" y="1346" on="0"/>
        <pt x="540" y="1254" on="0"/>
        <pt x="372" y="1083" on="0"/>
        <pt x="279" y="838" on="0"/>
        <pt x="279" y="684" on="1"/>
        <pt x="279" y="541" on="0"/>
        <pt x="377" y="308" on="0"/>
        <pt x="548" y="143" on="0"/>
        <pt x="776" y="53" on="0"/>
        <pt x="907" y="53" on="1"/>
        <pt x="989" y="53" on="0"/>
        <pt x="1115" y="80" on="0"/>
        <pt x="1169" y="109" on="1"/>
        <pt x="1173" y="206" on="0"/>
        <pt x="1178" y="326" on="0"/>
        <pt x="1181" y="396" on="0"/>
        <pt x="1182" y="426" on="0"/>
        <pt x="1182" y="432" on="1"/>
        <pt x="1182" y="478" on="0"/>
        <pt x="1170" y="534" on="0"/>
        <pt x="1146" y="566" on="0"/>
        <pt x="1108" y="580" on="0"/>
        <pt x="1083" y="584" on="1"/>
        <pt x="1040" y="590" on="1"/>
        <pt x="1040" y="647" on="1"/>
        <pt x="1062" y="643" on="0"/>
        <pt x="1093" y="640" on="1"/>
        <pt x="1119" y="637" on="0"/>
        <pt x="1194" y="633" on="0"/>
        <pt x="1245" y="633" on="1"/>
        <pt x="1296" y="633" on="0"/>
        <pt x="1419" y="639" on="0"/>
        <pt x="1493" y="647" on="1"/>
        <pt x="1493" y="590" on="1"/>
        <pt x="1467" y="588" on="0"/>
        <pt x="1427" y="584" on="0"/>
        <pt x="1394" y="581" on="0"/>
        <pt x="1362" y="579" on="0"/>
        <pt x="1343" y="578" on="1"/>
      </contour>
    </TTGlyph>
    <TTGlyph name="H" xMin="61" yMin="0" xMax="1581" yMax="1391">
      <contour>
        <pt x="1083" y="57" on="1"/>
        <pt x="1109" y="59" on="0"/>
        <pt x="1149" y="63" on="0"/>
        <pt x="1183" y="67" on="0"/>
        <pt x="1215" y="69" on="0"/>
        <pt x="1233" y="70" on="1"/>
        <pt x="1238" y="235" on="0"/>
        <pt x="1249" y="553" on="0"/>
        <pt x="1255" y="692" on="1"/>
        <pt x="1250" y="692" on="0"/>
        <pt x="1168" y="691" on="0"/>
        <pt x="1034" y="689" on="0"/>
        <pt x="860" y="685" on="0"/>
        <pt x="670" y="678" on="0"/>
        <pt x="474" y="667" on="0"/>
        <pt x="385" y="659" on="1"/>
        <pt x="381" y="569" on="0"/>
        <pt x="376" y="414" on="0"/>
        <pt x="373" y="296" on="0"/>
        <pt x="371" y="221" on="0"/>
        <pt x="371" y="209" on="1"/>
        <pt x="371" y="165" on="0"/>
        <pt x="384" y="111" on="0"/>
        <pt x="409" y="80" on="0"/>
        <pt x="447" y="66" on="0"/>
        <pt x="471" y="63" on="1"/>
        <pt x="514" y="57" on="1"/>
        <pt x="514" y="0" on="1"/>
        <pt x="492" y="3" on="0"/>
        <pt x="461" y="7" on="1"/>
        <pt x="435" y="9" on="0"/>
        <pt x="359" y="14" on="0"/>
        <pt x="309" y="14" on="1"/>
        <pt x="258" y="14" on="0"/>
        <pt x="136" y="8" on="0"/>
        <pt x="61" y="0" on="1"/>
        <pt x="61" y="57" on="1"/>
        <pt x="87" y="59" on="0"/>
        <pt x="127" y="63" on="0"/>
        <pt x="161" y="67" on="0"/>
        <pt x="193" y="69" on="0"/>
        <pt x="211" y="70" on="1"/>
        <pt x="216" y="203" on="0"/>
        <pt x="225" y="463" on="0"/>
        <pt x="233" y="701" on="0"/>
        <pt x="241" y="907" on="0"/>
        <pt x="247" y="1065" on="0"/>
        <pt x="250" y="1167" on="0"/>
        <pt x="250" y="1182" on="1"/>
        <pt x="250" y="1225" on="0"/>
        <pt x="237" y="1279" on="0"/>
        <pt x="212" y="1310" on="0"/>
        <pt x="174" y="1323" on="0"/>
        <pt x="150" y="1327" on="1"/>
        <pt x="106" y="1333" on="1"/>
        <pt x="106" y="1391" on="1"/>
        <pt x="128" y="1387" on="0"/>
        <pt x="159" y="1383" on="1"/>
        <pt x="185" y="1380" on="0"/>
        <pt x="260" y="1376" on="0"/>
        <pt x="311" y="1376" on="1"/>
        <pt x="362" y="1376" on="0"/>
        <pt x="485" y="1383" on="0"/>
        <pt x="559" y="1391" on="1"/>
        <pt x="559" y="1333" on="1"/>
        <pt x="533" y="1331" on="0"/>
        <pt x="493" y="1327" on="0"/>
        <pt x="460" y="1324" on="0"/>
        <pt x="428" y="1322" on="0"/>
        <pt x="410" y="1321" on="1"/>
        <pt x="389" y="762" on="1"/>
        <pt x="1257" y="762" on="1"/>
        <pt x="1260" y="846" on="0"/>
        <pt x="1266" y="989" on="0"/>
        <pt x="1270" y="1099" on="0"/>
        <pt x="1272" y="1170" on="0"/>
        <pt x="1272" y="1182" on="1"/>
        <pt x="1272" y="1225" on="0"/>
        <pt x="1259" y="1279" on="0"/>
        <pt x="1233" y="1310" on="0"/>
        <pt x="1196" y="1323" on="0"/>
        <pt x="1171" y="1327" on="1"/>
        <pt x="1128" y="1333" on="1"/>
        <pt x="1128" y="1391" on="1"/>
        <pt x="1150" y="1387" on="0"/>
        <pt x="1181" y="1383" on="1"/>
        <pt x="1207" y="1380" on="0"/>
        <pt x="1282" y="1376" on="0"/>
        <pt x="1333" y="1376" on="1"/>
        <pt x="1384" y="1376" on="0"/>
        <pt x="1507" y="1383" on="0"/>
        <pt x="1581" y="1391" on="1"/>
        <pt x="1581" y="1333" on="1"/>
        <pt x="1555" y="1331" on="0"/>
        <pt x="1515" y="1327" on="0"/>
        <pt x="1482" y="1324" on="0"/>
        <pt x="1450" y="1322" on="0"/>
        <pt x="1432" y="1321" on="1"/>
        <pt x="1427" y="1188" on="0"/>
        <pt x="1418" y="927" on="0"/>
        <pt x="1409" y="690" on="0"/>
        <pt x="1402" y="483" on="0"/>
        <pt x="1396" y="325" on="0"/>
        <pt x="1393" y="223" on="0"/>
        <pt x="1393" y="209" on="1"/>
        <pt x="1393" y="165" on="0"/>
        <pt x="1406" y="111" on="0"/>
        <pt x="1431" y="80" on="0"/>
        <pt x="1468" y="66" on="0"/>
        <pt x="1493" y="63" on="1"/>
        <pt x="1536" y="57" on="1"/>
        <pt x="1536" y="0" on="1"/>
        <pt x="1514" y="3" on="0"/>
        <pt x="1483" y="7" on="1"/>
        <pt x="1457" y="9" on="0"/>
        <pt x="1381" y="14" on="0"/>
        <pt x="1331" y="14" on="1"/>
        <pt x="1280" y="14" on="0"/>
        <pt x="1158" y="8" on="0"/>
        <pt x="1083" y="0" on="1"/>
        <pt x="1083" y="57" on="1"/>
      </contour>
    </TTGlyph>
    <TTGlyph name="I" xMin="61" yMin="0" xMax="559" yMax="1391">
      <contour>
        <pt x="61" y="57" on="1"/>
        <pt x="87" y="59" on="0"/>
        <pt x="127" y="63" on="0"/>
        <pt x="161" y="67" on="0"/>
        <pt x="193" y="69" on="0"/>
        <pt x="211" y="70" on="1"/>
        <pt x="216" y="203" on="0"/>
        <pt x="225" y="463" on="0"/>
        <pt x="233" y="701" on="0"/>
        <pt x="241" y="907" on="0"/>
        <pt x="247" y="1065" on="0"/>
        <pt x="250" y="1167" on="0"/>
        <pt x="250" y="1182" on="1"/>
        <pt x="250" y="1225" on="0"/>
        <pt x="237" y="1279" on="0"/>
        <pt x="212" y="1310" on="0"/>
        <pt x="174" y="1323" on="0"/>
        <pt x="150" y="1327" on="1"/>
        <pt x="106" y="1333" on="1"/>
        <pt x="106" y="1391" on="1"/>
        <pt x="128" y="1387" on="0"/>
        <pt x="159" y="1383" on="1"/>
        <pt x="185" y="1380" on="0"/>
        <pt x="260" y="1376" on="0"/>
        <pt x="311" y="1376" on="1"/>
        <pt x="362" y="1376" on="0"/>
        <pt x="485" y="1383" on="0"/>
        <pt x="559" y="1391" on="1"/>
        <pt x="559" y="1333" on="1"/>
        <pt x="533" y="1331" on="0"/>
        <pt x="493" y="1327" on="0"/>
        <pt x="460" y="1324" on="0"/>
        <pt x="428" y="1322" on="0"/>
        <pt x="410" y="1321" on="1"/>
        <pt x="405" y="1188" on="0"/>
        <pt x="396" y="927" on="0"/>
        <pt x="387" y="690" on="0"/>
        <pt x="380" y="483" on="0"/>
        <pt x="374" y="325" on="0"/>
        <pt x="371" y="223" on="0"/>
        <pt x="371" y="209" on="1"/>
        <pt x="371" y="165" on="0"/>
        <pt x="384" y="111" on="0"/>
        <pt x="409" y="80" on="0"/>
        <pt x="447" y="66" on="0"/>
        <pt x="471" y="63" on="1"/>
        <pt x="514" y="57" on="1"/>
        <pt x="514" y="0" on="1"/>
        <pt x="492" y="3" on="0"/>
        <pt x="461" y="7" on="1"/>
        <pt x="435" y="9" on="0"/>
        <pt x="359" y="14" on="0"/>
        <pt x="309" y="14" on="1"/>
        <pt x="258" y="14" on="0"/>
        <pt x="136" y="8" on="0"/>
        <pt x="61" y="0" on="1"/>
        <pt x="61" y="57" on="1"/>
      </contour>
    </TTGlyph>
    <TTGlyph name="Iacute" xMin="61" yMin="0" xMax="693" yMax="1892">
      <component glyphName="I" x="0" y="0" flags="0x204"/>
      <component glyphName="acute.case" x="-159" y="0" flags="0x4"/>
    </TTGlyph>
    <TTGlyph name="Icircumflex" xMin="9" yMin="0" xMax="687" yMax="1892">
      <component glyphName="I" x="0" y="0" flags="0x204"/>
      <component glyphName="circumflex.case" x="-298" y="0" flags="0x4"/>
    </TTGlyph>
    <TTGlyph name="Idieresis" xMin="61" yMin="0" xMax="635" yMax="1763">
      <component glyphName="I" x="0" y="0" flags="0x204"/>
      <component glyphName="dieresis.case" x="-237" y="0" flags="0x4"/>
    </TTGlyph>
    <TTGlyph name="Igrave" xMin="-54" yMin="0" xMax="559" yMax="1886">
      <component glyphName="I" x="0" y="0" flags="0x204"/>
      <component glyphName="grave.case" x="-302" y="0" flags="0x4"/>
    </TTGlyph>
    <TTGlyph name="J" xMin="-78" yMin="-502" xMax="551" yMax="1391">
      <contour>
        <pt x="360" y="186" on="1"/>
        <pt x="355" y="51" on="0"/>
        <pt x="307" y="-171" on="0"/>
        <pt x="209" y="-344" on="0"/>
        <pt x="57" y="-467" on="0"/>
        <pt x="-51" y="-502" on="1"/>
        <pt x="-78" y="-440" on="1"/>
        <pt x="-33" y="-412" on="0"/>
        <pt x="42" y="-359" on="0"/>
        <pt x="102" y="-293" on="0"/>
        <pt x="149" y="-207" on="0"/>
        <pt x="182" y="-86" on="0"/>
        <pt x="203" y="76" on="0"/>
        <pt x="207" y="186" on="1"/>
        <pt x="211" y="290" on="0"/>
        <pt x="219" y="510" on="0"/>
        <pt x="226" y="722" on="0"/>
        <pt x="233" y="914" on="0"/>
        <pt x="237" y="1066" on="0"/>
        <pt x="240" y="1167" on="0"/>
        <pt x="240" y="1182" on="1"/>
        <pt x="240" y="1225" on="0"/>
        <pt x="228" y="1279" on="0"/>
        <pt x="204" y="1310" on="0"/>
        <pt x="166" y="1323" on="0"/>
        <pt x="141" y="1327" on="1"/>
        <pt x="98" y="1333" on="1"/>
        <pt x="98" y="1391" on="1"/>
        <pt x="120" y="1387" on="0"/>
        <pt x="151" y="1383" on="1"/>
        <pt x="177" y="1380" on="0"/>
        <pt x="252" y="1376" on="0"/>
        <pt x="303" y="1376" on="1"/>
        <pt x="354" y="1376" on="0"/>
        <pt x="477" y="1383" on="0"/>
        <pt x="551" y="1391" on="1"/>
        <pt x="551" y="1333" on="1"/>
        <pt x="525" y="1331" on="0"/>
        <pt x="485" y="1327" on="0"/>
        <pt x="452" y="1324" on="0"/>
        <pt x="420" y="1322" on="0"/>
        <pt x="401" y="1321" on="1"/>
      </contour>
    </TTGlyph>
    <TTGlyph name="K" xMin="61" yMin="-12" xMax="1350" yMax="1391">
      <contour>
        <pt x="432" y="733" on="1"/>
        <pt x="516" y="815" on="0"/>
        <pt x="670" y="965" on="0"/>
        <pt x="807" y="1108" on="0"/>
        <pt x="926" y="1246" on="0"/>
        <pt x="977" y="1315" on="1"/>
        <pt x="960" y="1317" on="0"/>
        <pt x="920" y="1323" on="0"/>
        <pt x="903" y="1326" on="1"/>
        <pt x="883" y="1330" on="0"/>
        <pt x="862" y="1333" on="1"/>
        <pt x="862" y="1391" on="1"/>
        <pt x="906" y="1384" on="0"/>
        <pt x="1012" y="1376" on="0"/>
        <pt x="1071" y="1376" on="1"/>
        <pt x="1124" y="1376" on="0"/>
        <pt x="1237" y="1383" on="0"/>
        <pt x="1294" y="1391" on="1"/>
        <pt x="1294" y="1333" on="1"/>
        <pt x="1262" y="1329" on="1"/>
        <pt x="1223" y="1324" on="0"/>
        <pt x="1150" y="1292" on="0"/>
        <pt x="1070" y="1235" on="0"/>
        <pt x="980" y="1155" on="0"/>
        <pt x="924" y="1104" on="1"/>
        <pt x="584" y="791" on="1"/>
        <pt x="605" y="762" on="0"/>
        <pt x="670" y="669" on="0"/>
        <pt x="754" y="555" on="0"/>
        <pt x="851" y="428" on="0"/>
        <pt x="955" y="304" on="0"/>
        <pt x="1063" y="191" on="0"/>
        <pt x="1168" y="106" on="0"/>
        <pt x="1267" y="55" on="0"/>
        <pt x="1309" y="55" on="1"/>
        <pt x="1333" y="55" on="0"/>
        <pt x="1350" y="61" on="1"/>
        <pt x="1350" y="16" on="1"/>
        <pt x="1322" y="-1" on="0"/>
        <pt x="1265" y="-12" on="0"/>
        <pt x="1237" y="-12" on="1"/>
        <pt x="1176" y="-12" on="0"/>
        <pt x="1053" y="35" on="0"/>
        <pt x="933" y="115" on="0"/>
        <pt x="818" y="221" on="0"/>
        <pt x="711" y="341" on="0"/>
        <pt x="613" y="468" on="0"/>
        <pt x="528" y="587" on="0"/>
        <pt x="458" y="693" on="0"/>
      </contour>
      <contour>
        <pt x="61" y="57" on="1"/>
        <pt x="87" y="59" on="0"/>
        <pt x="127" y="63" on="0"/>
        <pt x="161" y="67" on="0"/>
        <pt x="193" y="69" on="0"/>
        <pt x="211" y="70" on="1"/>
        <pt x="216" y="203" on="0"/>
        <pt x="225" y="463" on="0"/>
        <pt x="233" y="701" on="0"/>
        <pt x="241" y="907" on="0"/>
        <pt x="247" y="1065" on="0"/>
        <pt x="250" y="1167" on="0"/>
        <pt x="250" y="1182" on="1"/>
        <pt x="250" y="1225" on="0"/>
        <pt x="237" y="1279" on="0"/>
        <pt x="212" y="1310" on="0"/>
        <pt x="174" y="1323" on="0"/>
        <pt x="150" y="1327" on="1"/>
        <pt x="106" y="1333" on="1"/>
        <pt x="106" y="1391" on="1"/>
        <pt x="128" y="1387" on="0"/>
        <pt x="159" y="1383" on="1"/>
        <pt x="185" y="1380" on="0"/>
        <pt x="260" y="1376" on="0"/>
        <pt x="311" y="1376" on="1"/>
        <pt x="362" y="1376" on="0"/>
        <pt x="485" y="1383" on="0"/>
        <pt x="559" y="1391" on="1"/>
        <pt x="559" y="1333" on="1"/>
        <pt x="533" y="1331" on="0"/>
        <pt x="493" y="1327" on="0"/>
        <pt x="460" y="1324" on="0"/>
        <pt x="428" y="1322" on="0"/>
        <pt x="410" y="1321" on="1"/>
        <pt x="405" y="1188" on="0"/>
        <pt x="396" y="927" on="0"/>
        <pt x="387" y="690" on="0"/>
        <pt x="380" y="483" on="0"/>
        <pt x="374" y="325" on="0"/>
        <pt x="371" y="223" on="0"/>
        <pt x="371" y="209" on="1"/>
        <pt x="371" y="165" on="0"/>
        <pt x="384" y="111" on="0"/>
        <pt x="409" y="80" on="0"/>
        <pt x="447" y="66" on="0"/>
        <pt x="471" y="63" on="1"/>
        <pt x="514" y="57" on="1"/>
        <pt x="514" y="0" on="1"/>
        <pt x="492" y="3" on="0"/>
        <pt x="461" y="7" on="1"/>
        <pt x="435" y="9" on="0"/>
        <pt x="359" y="14" on="0"/>
        <pt x="309" y="14" on="1"/>
        <pt x="258" y="14" on="0"/>
        <pt x="136" y="8" on="0"/>
        <pt x="61" y="0" on="1"/>
      </contour>
    </TTGlyph>
    <TTGlyph name="L" xMin="61" yMin="-20" xMax="1020" yMax="1391">
      <contour>
        <pt x="213" y="70" on="1"/>
        <pt x="218" y="203" on="0"/>
        <pt x="227" y="463" on="0"/>
        <pt x="236" y="701" on="0"/>
        <pt x="242" y="907" on="0"/>
        <pt x="247" y="1065" on="0"/>
        <pt x="250" y="1167" on="0"/>
        <pt x="250" y="1182" on="1"/>
        <pt x="250" y="1225" on="0"/>
        <pt x="238" y="1279" on="0"/>
        <pt x="214" y="1310" on="0"/>
        <pt x="177" y="1323" on="0"/>
        <pt x="152" y="1327" on="1"/>
        <pt x="109" y="1333" on="1"/>
        <pt x="109" y="1391" on="1"/>
        <pt x="131" y="1387" on="0"/>
        <pt x="161" y="1383" on="1"/>
        <pt x="187" y="1380" on="0"/>
        <pt x="262" y="1376" on="0"/>
        <pt x="313" y="1376" on="1"/>
        <pt x="364" y="1376" on="0"/>
        <pt x="487" y="1383" on="0"/>
        <pt x="561" y="1391" on="1"/>
        <pt x="561" y="1333" on="1"/>
        <pt x="535" y="1331" on="0"/>
        <pt x="496" y="1327" on="0"/>
        <pt x="462" y="1324" on="0"/>
        <pt x="430" y="1322" on="0"/>
        <pt x="412" y="1321" on="1"/>
        <pt x="407" y="1188" on="0"/>
        <pt x="398" y="927" on="0"/>
        <pt x="389" y="690" on="0"/>
        <pt x="382" y="483" on="0"/>
        <pt x="376" y="325" on="0"/>
        <pt x="373" y="223" on="0"/>
        <pt x="373" y="209" on="1"/>
        <pt x="373" y="161" on="0"/>
        <pt x="407" y="103" on="0"/>
        <pt x="471" y="72" on="0"/>
        <pt x="561" y="61" on="0"/>
        <pt x="618" y="61" on="1"/>
        <pt x="698" y="61" on="0"/>
        <pt x="811" y="87" on="0"/>
        <pt x="890" y="147" on="0"/>
        <pt x="940" y="247" on="0"/>
        <pt x="956" y="322" on="1"/>
        <pt x="1020" y="322" on="1"/>
        <pt x="1016" y="295" on="0"/>
        <pt x="1000" y="208" on="0"/>
        <pt x="977" y="111" on="0"/>
        <pt x="946" y="15" on="0"/>
        <pt x="928" y="-20" on="1"/>
        <pt x="822" y="-17" on="0"/>
        <pt x="622" y="-6" on="0"/>
        <pt x="455" y="4" on="0"/>
        <pt x="331" y="12" on="0"/>
        <pt x="301" y="12" on="1"/>
        <pt x="250" y="12" on="0"/>
        <pt x="136" y="8" on="0"/>
        <pt x="61" y="0" on="1"/>
        <pt x="63" y="57" on="1"/>
        <pt x="89" y="59" on="0"/>
        <pt x="129" y="63" on="0"/>
        <pt x="163" y="67" on="0"/>
        <pt x="195" y="69" on="0"/>
      </contour>
    </TTGlyph>
    <TTGlyph name="M" xMin="16" yMin="0" xMax="1704" yMax="1419">
      <contour>
        <pt x="1559" y="252" on="1"/>
        <pt x="1560" y="193" on="0"/>
        <pt x="1572" y="123" on="0"/>
        <pt x="1596" y="83" on="0"/>
        <pt x="1633" y="67" on="0"/>
        <pt x="1661" y="63" on="1"/>
        <pt x="1704" y="57" on="1"/>
        <pt x="1704" y="0" on="1"/>
        <pt x="1682" y="3" on="0"/>
        <pt x="1651" y="7" on="1"/>
        <pt x="1625" y="9" on="0"/>
        <pt x="1549" y="14" on="0"/>
        <pt x="1499" y="14" on="1"/>
        <pt x="1448" y="14" on="0"/>
        <pt x="1326" y="8" on="0"/>
        <pt x="1251" y="0" on="1"/>
        <pt x="1251" y="57" on="1"/>
        <pt x="1277" y="59" on="0"/>
        <pt x="1317" y="63" on="0"/>
        <pt x="1351" y="67" on="0"/>
        <pt x="1383" y="69" on="0"/>
        <pt x="1401" y="70" on="1"/>
        <pt x="1397" y="1096" on="1"/>
        <pt x="1378" y="1096" on="1"/>
        <pt x="868" y="55" on="1"/>
        <pt x="821" y="55" on="1"/>
        <pt x="373" y="1100" on="1"/>
        <pt x="356" y="1100" on="1"/>
        <pt x="295" y="330" on="1"/>
        <pt x="293" y="315" on="0"/>
        <pt x="291" y="276" on="0"/>
        <pt x="288" y="237" on="0"/>
        <pt x="287" y="203" on="0"/>
        <pt x="287" y="193" on="1"/>
        <pt x="287" y="154" on="0"/>
        <pt x="301" y="107" on="0"/>
        <pt x="326" y="79" on="0"/>
        <pt x="363" y="66" on="0"/>
        <pt x="387" y="63" on="1"/>
        <pt x="430" y="57" on="1"/>
        <pt x="430" y="0" on="1"/>
        <pt x="414" y="3" on="0"/>
        <pt x="388" y="7" on="1"/>
        <pt x="366" y="9" on="0"/>
        <pt x="300" y="14" on="0"/>
        <pt x="254" y="14" on="1"/>
        <pt x="208" y="14" on="0"/>
        <pt x="91" y="8" on="0"/>
        <pt x="16" y="0" on="1"/>
        <pt x="16" y="57" on="1"/>
        <pt x="42" y="59" on="0"/>
        <pt x="82" y="63" on="0"/>
        <pt x="116" y="67" on="0"/>
        <pt x="148" y="69" on="0"/>
        <pt x="166" y="70" on="1"/>
        <pt x="311" y="1386" on="1"/>
        <pt x="406" y="1419" on="1"/>
        <pt x="889" y="303" on="1"/>
        <pt x="903" y="303" on="1"/>
        <pt x="1430" y="1397" on="1"/>
        <pt x="1530" y="1417" on="1"/>
      </contour>
    </TTGlyph>
    <TTGlyph name="N" xMin="51" yMin="-29" xMax="1573" yMax="1421">
      <contour>
        <pt x="51" y="57" on="1"/>
        <pt x="77" y="59" on="0"/>
        <pt x="117" y="63" on="0"/>
        <pt x="151" y="67" on="0"/>
        <pt x="183" y="69" on="0"/>
        <pt x="201" y="70" on="1"/>
        <pt x="227" y="842" on="1"/>
        <pt x="230" y="913" on="0"/>
        <pt x="231" y="1041" on="0"/>
        <pt x="231" y="1100" on="1"/>
        <pt x="231" y="1194" on="0"/>
        <pt x="226" y="1341" on="0"/>
        <pt x="223" y="1391" on="1"/>
        <pt x="305" y="1421" on="1"/>
        <pt x="1286" y="243" on="1"/>
        <pt x="1289" y="330" on="0"/>
        <pt x="1296" y="530" on="0"/>
        <pt x="1302" y="729" on="0"/>
        <pt x="1308" y="915" on="0"/>
        <pt x="1312" y="1066" on="0"/>
        <pt x="1315" y="1167" on="0"/>
        <pt x="1315" y="1182" on="1"/>
        <pt x="1315" y="1225" on="0"/>
        <pt x="1303" y="1279" on="0"/>
        <pt x="1278" y="1310" on="0"/>
        <pt x="1241" y="1323" on="0"/>
        <pt x="1217" y="1327" on="1"/>
        <pt x="1174" y="1333" on="1"/>
        <pt x="1174" y="1391" on="1"/>
        <pt x="1188" y="1387" on="0"/>
        <pt x="1212" y="1383" on="1"/>
        <pt x="1232" y="1380" on="0"/>
        <pt x="1294" y="1376" on="0"/>
        <pt x="1339" y="1376" on="1"/>
        <pt x="1384" y="1376" on="0"/>
        <pt x="1499" y="1383" on="0"/>
        <pt x="1573" y="1391" on="1"/>
        <pt x="1573" y="1333" on="1"/>
        <pt x="1547" y="1331" on="0"/>
        <pt x="1507" y="1327" on="0"/>
        <pt x="1474" y="1324" on="0"/>
        <pt x="1442" y="1322" on="0"/>
        <pt x="1423" y="1321" on="1"/>
        <pt x="1401" y="678" on="1"/>
        <pt x="1400" y="651" on="0"/>
        <pt x="1398" y="561" on="0"/>
        <pt x="1395" y="462" on="0"/>
        <pt x="1393" y="364" on="0"/>
        <pt x="1393" y="330" on="1"/>
        <pt x="1393" y="285" on="0"/>
        <pt x="1393" y="206" on="0"/>
        <pt x="1394" y="128" on="0"/>
        <pt x="1397" y="47" on="0"/>
        <pt x="1399" y="0" on="1"/>
        <pt x="1313" y="-29" on="1"/>
        <pt x="332" y="1135" on="1"/>
        <pt x="330" y="1050" on="0"/>
        <pt x="325" y="855" on="0"/>
        <pt x="320" y="658" on="0"/>
        <pt x="315" y="473" on="0"/>
        <pt x="311" y="324" on="0"/>
        <pt x="309" y="223" on="0"/>
        <pt x="309" y="209" on="1"/>
        <pt x="309" y="165" on="0"/>
        <pt x="321" y="112" on="0"/>
        <pt x="345" y="81" on="0"/>
        <pt x="382" y="67" on="0"/>
        <pt x="408" y="63" on="1"/>
        <pt x="451" y="57" on="1"/>
        <pt x="451" y="0" on="1"/>
        <pt x="436" y="3" on="0"/>
        <pt x="412" y="7" on="1"/>
        <pt x="392" y="9" on="0"/>
        <pt x="330" y="14" on="0"/>
        <pt x="285" y="14" on="1"/>
        <pt x="240" y="14" on="0"/>
        <pt x="126" y="8" on="0"/>
        <pt x="51" y="0" on="1"/>
        <pt x="51" y="57" on="1"/>
      </contour>
    </TTGlyph>
    <TTGlyph name="Ntilde" xMin="51" yMin="-29" xMax="1573" yMax="1819">
      <component glyphName="N" x="0" y="0" flags="0x204"/>
      <component glyphName="tilde.case" x="266" y="0" flags="0x4"/>
    </TTGlyph>
    <TTGlyph name="O" xMin="92" yMin="-29" xMax="1479" yMax="1419">
      <contour>
        <pt x="276" y="711" on="1"/>
        <pt x="276" y="581" on="0"/>
        <pt x="347" y="341" on="0"/>
        <pt x="482" y="156" on="0"/>
        <pt x="678" y="45" on="0"/>
        <pt x="803" y="45" on="1"/>
        <pt x="923" y="45" on="0"/>
        <pt x="1106" y="141" on="0"/>
        <pt x="1228" y="308" on="0"/>
        <pt x="1290" y="531" on="0"/>
        <pt x="1290" y="659" on="1"/>
        <pt x="1290" y="803" on="0"/>
        <pt x="1217" y="1054" on="0"/>
        <pt x="1085" y="1240" on="0"/>
        <pt x="902" y="1346" on="0"/>
        <pt x="793" y="1346" on="1"/>
        <pt x="736" y="1346" on="0"/>
        <pt x="616" y="1321" on="0"/>
        <pt x="501" y="1262" on="0"/>
        <pt x="398" y="1166" on="0"/>
        <pt x="321" y="1025" on="0"/>
        <pt x="276" y="835" on="0"/>
      </contour>
      <contour>
        <pt x="92" y="690" on="1"/>
        <pt x="92" y="847" on="0"/>
        <pt x="200" y="1115" on="0"/>
        <pt x="396" y="1309" on="0"/>
        <pt x="671" y="1419" on="0"/>
        <pt x="838" y="1419" on="1"/>
        <pt x="940" y="1419" on="0"/>
        <pt x="1114" y="1364" on="0"/>
        <pt x="1256" y="1267" on="0"/>
        <pt x="1366" y="1135" on="0"/>
        <pt x="1441" y="982" on="0"/>
        <pt x="1479" y="812" on="0"/>
        <pt x="1479" y="727" on="1"/>
        <pt x="1479" y="560" on="0"/>
        <pt x="1371" y="283" on="0"/>
        <pt x="1185" y="82" on="0"/>
        <pt x="939" y="-29" on="0"/>
        <pt x="801" y="-29" on="1"/>
        <pt x="682" y="-29" on="0"/>
        <pt x="485" y="28" on="0"/>
        <pt x="327" y="129" on="0"/>
        <pt x="209" y="266" on="0"/>
        <pt x="131" y="426" on="0"/>
        <pt x="92" y="601" on="0"/>
      </contour>
    </TTGlyph>
    <TTGlyph name="OE" xMin="94" yMin="-29" xMax="2007" yMax="1419">
      <contour>
        <pt x="1606" y="61" on="1"/>
        <pt x="1686" y="61" on="0"/>
        <pt x="1799" y="81" on="0"/>
        <pt x="1878" y="135" on="0"/>
        <pt x="1928" y="230" on="0"/>
        <pt x="1944" y="305" on="1"/>
        <pt x="2007" y="305" on="1"/>
        <pt x="2003" y="278" on="0"/>
        <pt x="1987" y="196" on="0"/>
        <pt x="1964" y="105" on="0"/>
        <pt x="1933" y="15" on="0"/>
        <pt x="1915" y="-20" on="1"/>
        <pt x="1716" y="-14" on="0"/>
        <pt x="1380" y="0" on="0"/>
        <pt x="1255" y="0" on="1"/>
        <pt x="1221" y="0" on="1"/>
        <pt x="1227" y="186" on="1"/>
        <pt x="1139" y="84" on="0"/>
        <pt x="904" y="-29" on="0"/>
        <pt x="770" y="-29" on="1"/>
        <pt x="654" y="-29" on="0"/>
        <pt x="463" y="29" on="0"/>
        <pt x="313" y="131" on="0"/>
        <pt x="202" y="271" on="0"/>
        <pt x="130" y="434" on="0"/>
        <pt x="94" y="614" on="0"/>
        <pt x="94" y="705" on="1"/>
        <pt x="94" y="803" on="0"/>
        <pt x="138" y="985" on="0"/>
        <pt x="222" y="1144" on="0"/>
        <pt x="342" y="1275" on="0"/>
        <pt x="493" y="1368" on="0"/>
        <pt x="673" y="1419" on="0"/>
        <pt x="774" y="1419" on="1"/>
        <pt x="856" y="1419" on="0"/>
        <pt x="1000" y="1375" on="0"/>
        <pt x="1122" y="1296" on="0"/>
        <pt x="1220" y="1188" on="0"/>
        <pt x="1257" y="1124" on="1"/>
        <pt x="1266" y="1376" on="1"/>
        <pt x="1659" y="1376" on="1"/>
        <pt x="1699" y="1376" on="0"/>
        <pt x="1774" y="1377" on="0"/>
        <pt x="1852" y="1380" on="0"/>
        <pt x="1936" y="1386" on="0"/>
        <pt x="1985" y="1391" on="1"/>
        <pt x="1954" y="1053" on="1"/>
        <pt x="1892" y="1053" on="1"/>
        <pt x="1893" y="1073" on="0"/>
        <pt x="1894" y="1096" on="0"/>
        <pt x="1894" y="1109" on="0"/>
        <pt x="1894" y="1114" on="0"/>
        <pt x="1894" y="1116" on="1"/>
        <pt x="1894" y="1149" on="0"/>
        <pt x="1877" y="1209" on="0"/>
        <pt x="1828" y="1256" on="0"/>
        <pt x="1741" y="1287" on="0"/>
        <pt x="1671" y="1292" on="1"/>
        <pt x="1425" y="1309" on="1"/>
        <pt x="1417" y="1227" on="0"/>
        <pt x="1409" y="1058" on="0"/>
        <pt x="1407" y="987" on="1"/>
        <pt x="1399" y="762" on="1"/>
        <pt x="1825" y="784" on="1"/>
        <pt x="1815" y="657" on="1"/>
        <pt x="1755" y="665" on="0"/>
        <pt x="1632" y="677" on="0"/>
        <pt x="1520" y="685" on="0"/>
        <pt x="1427" y="690" on="0"/>
        <pt x="1397" y="692" on="1"/>
        <pt x="1392" y="572" on="0"/>
        <pt x="1388" y="473" on="1"/>
        <pt x="1386" y="431" on="0"/>
        <pt x="1384" y="347" on="0"/>
        <pt x="1381" y="276" on="0"/>
        <pt x="1380" y="226" on="0"/>
        <pt x="1380" y="217" on="1"/>
        <pt x="1380" y="165" on="0"/>
        <pt x="1408" y="103" on="0"/>
        <pt x="1465" y="71" on="0"/>
        <pt x="1550" y="61" on="0"/>
      </contour>
      <contour>
        <pt x="768" y="1354" on="1"/>
        <pt x="643" y="1354" on="0"/>
        <pt x="459" y="1250" on="0"/>
        <pt x="338" y="1074" on="0"/>
        <pt x="279" y="839" on="0"/>
        <pt x="279" y="709" on="1"/>
        <pt x="279" y="622" on="0"/>
        <pt x="309" y="455" on="0"/>
        <pt x="367" y="306" on="0"/>
        <pt x="452" y="180" on="0"/>
        <pt x="563" y="88" on="0"/>
        <pt x="699" y="37" on="0"/>
        <pt x="778" y="37" on="1"/>
        <pt x="899" y="37" on="0"/>
        <pt x="1073" y="141" on="0"/>
        <pt x="1185" y="315" on="0"/>
        <pt x="1239" y="543" on="0"/>
        <pt x="1239" y="668" on="1"/>
        <pt x="1239" y="803" on="0"/>
        <pt x="1175" y="1051" on="0"/>
        <pt x="1054" y="1241" on="0"/>
        <pt x="879" y="1354" on="0"/>
      </contour>
    </TTGlyph>
    <TTGlyph name="Oacute" xMin="92" yMin="-29" xMax="1479" yMax="1892">
      <component glyphName="O" x="0" y="0" flags="0x204"/>
      <component glyphName="acute.case" x="276" y="0" flags="0x4"/>
    </TTGlyph>
    <TTGlyph name="Ocircumflex" xMin="92" yMin="-29" xMax="1479" yMax="1892">
      <component glyphName="O" x="0" y="0" flags="0x204"/>
      <component glyphName="circumflex.case" x="180" y="0" flags="0x4"/>
    </TTGlyph>
    <TTGlyph name="Odieresis" xMin="92" yMin="-29" xMax="1479" yMax="1763">
      <component glyphName="O" x="0" y="0" flags="0x204"/>
      <component glyphName="dieresis.case" x="231" y="0" flags="0x4"/>
    </TTGlyph>
    <TTGlyph name="Ograve" xMin="92" yMin="-29" xMax="1479" yMax="1886">
      <component glyphName="O" x="0" y="0" flags="0x204"/>
      <component glyphName="grave.case" x="254" y="0" flags="0x4"/>
    </TTGlyph>
    <TTGlyph name="Oslash" xMin="92" yMin="-170" xMax="1479" yMax="1503">
      <contour>
        <pt x="92" y="690" on="1"/>
        <pt x="92" y="847" on="0"/>
        <pt x="200" y="1115" on="0"/>
        <pt x="396" y="1309" on="0"/>
        <pt x="671" y="1419" on="0"/>
        <pt x="838" y="1419" on="1"/>
        <pt x="938" y="1419" on="0"/>
        <pt x="1106" y="1367" on="0"/>
        <pt x="1177" y="1321" on="1"/>
        <pt x="1298" y="1503" on="1"/>
        <pt x="1364" y="1458" on="1"/>
        <pt x="1240" y="1273" on="1"/>
        <pt x="1298" y="1223" on="0"/>
        <pt x="1387" y="1097" on="0"/>
        <pt x="1448" y="956" on="0"/>
        <pt x="1479" y="803" on="0"/>
        <pt x="1479" y="727" on="1"/>
        <pt x="1479" y="560" on="0"/>
        <pt x="1371" y="283" on="0"/>
        <pt x="1185" y="82" on="0"/>
        <pt x="939" y="-29" on="0"/>
        <pt x="801" y="-29" on="1"/>
        <pt x="690" y="-29" on="0"/>
        <pt x="506" y="19" on="0"/>
        <pt x="430" y="64" on="1"/>
        <pt x="274" y="-170" on="1"/>
        <pt x="213" y="-129" on="1"/>
        <pt x="368" y="104" on="1"/>
        <pt x="299" y="156" on="0"/>
        <pt x="195" y="289" on="0"/>
        <pt x="126" y="442" on="0"/>
        <pt x="92" y="607" on="0"/>
      </contour>
      <contour>
        <pt x="276" y="711" on="1"/>
        <pt x="276" y="567" on="0"/>
        <pt x="359" y="306" on="0"/>
        <pt x="439" y="210" on="1"/>
        <pt x="1104" y="1211" on="1"/>
        <pt x="1041" y="1279" on="0"/>
        <pt x="884" y="1354" on="0"/>
        <pt x="793" y="1354" on="1"/>
        <pt x="736" y="1354" on="0"/>
        <pt x="616" y="1329" on="0"/>
        <pt x="501" y="1270" on="0"/>
        <pt x="398" y="1173" on="0"/>
        <pt x="321" y="1030" on="0"/>
        <pt x="276" y="837" on="0"/>
      </contour>
      <contour>
        <pt x="1290" y="659" on="1"/>
        <pt x="1290" y="803" on="0"/>
        <pt x="1219" y="1052" on="0"/>
        <pt x="1155" y="1146" on="1"/>
        <pt x="492" y="155" on="1"/>
        <pt x="554" y="99" on="0"/>
        <pt x="709" y="37" on="0"/>
        <pt x="803" y="37" on="1"/>
        <pt x="923" y="37" on="0"/>
        <pt x="1106" y="135" on="0"/>
        <pt x="1228" y="303" on="0"/>
        <pt x="1290" y="530" on="0"/>
      </contour>
    </TTGlyph>
    <TTGlyph name="Otilde" xMin="92" yMin="-29" xMax="1479" yMax="1819">
      <component glyphName="O" x="0" y="0" flags="0x204"/>
      <component glyphName="tilde.case" x="231" y="0" flags="0x4"/>
    </TTGlyph>
    <TTGlyph name="P" xMin="66" yMin="0" xMax="1044" yMax="1401">
      <contour>
        <pt x="412" y="1325" on="1"/>
        <pt x="408" y="1191" on="0"/>
        <pt x="399" y="929" on="0"/>
        <pt x="391" y="690" on="0"/>
        <pt x="384" y="484" on="0"/>
        <pt x="378" y="325" on="0"/>
        <pt x="375" y="223" on="0"/>
        <pt x="375" y="209" on="1"/>
        <pt x="375" y="165" on="0"/>
        <pt x="388" y="112" on="0"/>
        <pt x="413" y="81" on="0"/>
        <pt x="451" y="67" on="0"/>
        <pt x="475" y="63" on="1"/>
        <pt x="518" y="57" on="1"/>
        <pt x="518" y="0" on="1"/>
        <pt x="496" y="3" on="0"/>
        <pt x="465" y="7" on="1"/>
        <pt x="439" y="9" on="0"/>
        <pt x="363" y="14" on="0"/>
        <pt x="313" y="14" on="1"/>
        <pt x="262" y="14" on="0"/>
        <pt x="140" y="8" on="0"/>
        <pt x="66" y="0" on="1"/>
        <pt x="66" y="57" on="1"/>
        <pt x="92" y="59" on="0"/>
        <pt x="131" y="63" on="0"/>
        <pt x="165" y="67" on="0"/>
        <pt x="197" y="69" on="0"/>
        <pt x="215" y="70" on="1"/>
        <pt x="218" y="203" on="0"/>
        <pt x="227" y="463" on="0"/>
        <pt x="235" y="701" on="0"/>
        <pt x="243" y="907" on="0"/>
        <pt x="248" y="1065" on="0"/>
        <pt x="252" y="1167" on="0"/>
        <pt x="252" y="1182" on="1"/>
        <pt x="252" y="1225" on="0"/>
        <pt x="240" y="1279" on="0"/>
        <pt x="216" y="1310" on="0"/>
        <pt x="179" y="1323" on="0"/>
        <pt x="154" y="1327" on="1"/>
        <pt x="111" y="1333" on="1"/>
        <pt x="111" y="1391" on="1"/>
        <pt x="139" y="1387" on="0"/>
        <pt x="171" y="1383" on="1"/>
        <pt x="198" y="1380" on="0"/>
        <pt x="267" y="1376" on="0"/>
        <pt x="303" y="1376" on="1"/>
        <pt x="337" y="1376" on="0"/>
        <pt x="400" y="1384" on="0"/>
        <pt x="470" y="1393" on="0"/>
        <pt x="552" y="1401" on="0"/>
        <pt x="606" y="1401" on="1"/>
        <pt x="720" y="1401" on="0"/>
        <pt x="886" y="1338" on="0"/>
        <pt x="993" y="1232" on="0"/>
        <pt x="1044" y="1092" on="0"/>
        <pt x="1044" y="1014" on="1"/>
        <pt x="1044" y="923" on="0"/>
        <pt x="973" y="767" on="0"/>
        <pt x="852" y="652" on="0"/>
        <pt x="689" y="586" on="0"/>
        <pt x="598" y="586" on="1"/>
        <pt x="567" y="586" on="0"/>
        <pt x="518" y="591" on="0"/>
        <pt x="500" y="596" on="1"/>
        <pt x="502" y="659" on="1"/>
        <pt x="535" y="653" on="0"/>
        <pt x="569" y="653" on="1"/>
        <pt x="639" y="653" on="0"/>
        <pt x="755" y="704" on="0"/>
        <pt x="839" y="795" on="0"/>
        <pt x="885" y="921" on="0"/>
        <pt x="885" y="995" on="1"/>
        <pt x="885" y="1155" on="0"/>
        <pt x="706" y="1335" on="0"/>
        <pt x="526" y="1335" on="1"/>
        <pt x="492" y="1335" on="0"/>
        <pt x="438" y="1330" on="0"/>
      </contour>
    </TTGlyph>
    <TTGlyph name="Q" xMin="92" yMin="-457" xMax="1479" yMax="1419">
      <contour>
        <pt x="1450" y="-326" on="1"/>
        <pt x="1432" y="-351" on="0"/>
        <pt x="1389" y="-398" on="0"/>
        <pt x="1328" y="-435" on="0"/>
        <pt x="1246" y="-457" on="0"/>
        <pt x="1190" y="-457" on="1"/>
        <pt x="1132" y="-457" on="0"/>
        <pt x="1029" y="-435" on="0"/>
        <pt x="938" y="-400" on="0"/>
        <pt x="860" y="-359" on="0"/>
        <pt x="829" y="-340" on="1"/>
        <pt x="758" y="-296" on="0"/>
        <pt x="656" y="-215" on="0"/>
        <pt x="575" y="-154" on="0"/>
        <pt x="506" y="-117" on="0"/>
        <pt x="469" y="-117" on="1"/>
        <pt x="413" y="-117" on="0"/>
        <pt x="360" y="-143" on="1"/>
        <pt x="342" y="-96" on="1"/>
        <pt x="374" y="-79" on="0"/>
        <pt x="443" y="-57" on="0"/>
        <pt x="483" y="-57" on="1"/>
        <pt x="510" y="-57" on="0"/>
        <pt x="579" y="-66" on="0"/>
        <pt x="663" y="-89" on="0"/>
        <pt x="762" y="-130" on="0"/>
        <pt x="819" y="-162" on="1"/>
        <pt x="922" y="-219" on="0"/>
        <pt x="1054" y="-302" on="0"/>
        <pt x="1144" y="-354" on="0"/>
        <pt x="1209" y="-379" on="0"/>
        <pt x="1247" y="-379" on="1"/>
        <pt x="1268" y="-379" on="0"/>
        <pt x="1305" y="-375" on="0"/>
        <pt x="1344" y="-357" on="0"/>
        <pt x="1385" y="-323" on="0"/>
        <pt x="1411" y="-293" on="1"/>
      </contour>
      <contour>
        <pt x="92" y="690" on="1"/>
        <pt x="92" y="847" on="0"/>
        <pt x="200" y="1115" on="0"/>
        <pt x="396" y="1309" on="0"/>
        <pt x="671" y="1419" on="0"/>
        <pt x="838" y="1419" on="1"/>
        <pt x="940" y="1419" on="0"/>
        <pt x="1114" y="1364" on="0"/>
        <pt x="1256" y="1267" on="0"/>
        <pt x="1366" y="1135" on="0"/>
        <pt x="1441" y="982" on="0"/>
        <pt x="1479" y="812" on="0"/>
        <pt x="1479" y="727" on="1"/>
        <pt x="1479" y="560" on="0"/>
        <pt x="1371" y="283" on="0"/>
        <pt x="1185" y="82" on="0"/>
        <pt x="939" y="-29" on="0"/>
        <pt x="801" y="-29" on="1"/>
        <pt x="682" y="-29" on="0"/>
        <pt x="485" y="28" on="0"/>
        <pt x="327" y="129" on="0"/>
        <pt x="209" y="266" on="0"/>
        <pt x="131" y="426" on="0"/>
        <pt x="92" y="601" on="0"/>
      </contour>
      <contour>
        <pt x="276" y="711" on="1"/>
        <pt x="276" y="581" on="0"/>
        <pt x="347" y="341" on="0"/>
        <pt x="482" y="156" on="0"/>
        <pt x="678" y="45" on="0"/>
        <pt x="803" y="45" on="1"/>
        <pt x="923" y="45" on="0"/>
        <pt x="1106" y="141" on="0"/>
        <pt x="1228" y="308" on="0"/>
        <pt x="1290" y="531" on="0"/>
        <pt x="1290" y="659" on="1"/>
        <pt x="1290" y="803" on="0"/>
        <pt x="1217" y="1054" on="0"/>
        <pt x="1085" y="1240" on="0"/>
        <pt x="902" y="1346" on="0"/>
        <pt x="793" y="1346" on="1"/>
        <pt x="736" y="1346" on="0"/>
        <pt x="616" y="1321" on="0"/>
        <pt x="501" y="1262" on="0"/>
        <pt x="398" y="1166" on="0"/>
        <pt x="321" y="1025" on="0"/>
        <pt x="276" y="835" on="0"/>
      </contour>
    </TTGlyph>
    <TTGlyph name="R" xMin="61" yMin="-41" xMax="1305" yMax="1401">
      <contour>
        <pt x="61" y="57" on="1"/>
        <pt x="87" y="59" on="0"/>
        <pt x="127" y="63" on="0"/>
        <pt x="161" y="67" on="0"/>
        <pt x="193" y="69" on="0"/>
        <pt x="211" y="70" on="1"/>
        <pt x="216" y="203" on="0"/>
        <pt x="225" y="463" on="0"/>
        <pt x="233" y="701" on="0"/>
        <pt x="241" y="907" on="0"/>
        <pt x="247" y="1065" on="0"/>
        <pt x="250" y="1167" on="0"/>
        <pt x="250" y="1182" on="1"/>
        <pt x="250" y="1225" on="0"/>
        <pt x="238" y="1279" on="0"/>
        <pt x="213" y="1310" on="0"/>
        <pt x="175" y="1323" on="0"/>
        <pt x="150" y="1327" on="1"/>
        <pt x="106" y="1333" on="1"/>
        <pt x="106" y="1391" on="1"/>
        <pt x="134" y="1387" on="0"/>
        <pt x="166" y="1383" on="1"/>
        <pt x="193" y="1380" on="0"/>
        <pt x="262" y="1376" on="0"/>
        <pt x="299" y="1376" on="1"/>
        <pt x="333" y="1376" on="0"/>
        <pt x="395" y="1384" on="0"/>
        <pt x="461" y="1393" on="0"/>
        <pt x="535" y="1401" on="0"/>
        <pt x="580" y="1401" on="1"/>
        <pt x="700" y="1401" on="0"/>
        <pt x="870" y="1342" on="0"/>
        <pt x="978" y="1243" on="0"/>
        <pt x="1028" y="1116" on="0"/>
        <pt x="1028" y="1049" on="1"/>
        <pt x="1028" y="957" on="0"/>
        <pt x="961" y="825" on="0"/>
        <pt x="864" y="734" on="0"/>
        <pt x="755" y="679" on="0"/>
        <pt x="713" y="666" on="1"/>
        <pt x="789" y="529" on="0"/>
        <pt x="947" y="287" on="0"/>
        <pt x="1100" y="105" on="0"/>
        <pt x="1243" y="0" on="0"/>
        <pt x="1305" y="0" on="1"/>
        <pt x="1303" y="-35" on="1"/>
        <pt x="1265" y="-41" on="0"/>
        <pt x="1229" y="-41" on="1"/>
        <pt x="1147" y="-39" on="0"/>
        <pt x="996" y="36" on="0"/>
        <pt x="860" y="154" on="0"/>
        <pt x="741" y="303" on="0"/>
        <pt x="642" y="453" on="0"/>
        <pt x="566" y="589" on="0"/>
        <pt x="541" y="637" on="1"/>
        <pt x="515" y="635" on="0"/>
        <pt x="458" y="633" on="0"/>
        <pt x="426" y="633" on="1"/>
        <pt x="385" y="633" on="1"/>
        <pt x="384" y="603" on="0"/>
        <pt x="381" y="524" on="0"/>
        <pt x="378" y="440" on="0"/>
        <pt x="375" y="354" on="0"/>
        <pt x="373" y="280" on="0"/>
        <pt x="371" y="223" on="0"/>
        <pt x="371" y="209" on="1"/>
        <pt x="371" y="166" on="0"/>
        <pt x="383" y="113" on="0"/>
        <pt x="407" y="81" on="0"/>
        <pt x="445" y="67" on="0"/>
        <pt x="471" y="63" on="1"/>
        <pt x="514" y="57" on="1"/>
        <pt x="514" y="0" on="1"/>
        <pt x="492" y="3" on="0"/>
        <pt x="461" y="7" on="1"/>
        <pt x="435" y="9" on="0"/>
        <pt x="359" y="14" on="0"/>
        <pt x="309" y="14" on="1"/>
        <pt x="258" y="14" on="0"/>
        <pt x="136" y="8" on="0"/>
        <pt x="61" y="0" on="1"/>
      </contour>
      <contour>
        <pt x="387" y="702" on="1"/>
        <pt x="444" y="702" on="1"/>
        <pt x="569" y="702" on="0"/>
        <pt x="733" y="761" on="0"/>
        <pt x="829" y="857" on="0"/>
        <pt x="868" y="981" on="0"/>
        <pt x="868" y="1047" on="1"/>
        <pt x="868" y="1079" on="0"/>
        <pt x="855" y="1146" on="0"/>
        <pt x="824" y="1210" on="0"/>
        <pt x="773" y="1267" on="0"/>
        <pt x="700" y="1310" on="0"/>
        <pt x="601" y="1335" on="0"/>
        <pt x="537" y="1335" on="1"/>
        <pt x="501" y="1335" on="0"/>
        <pt x="443" y="1331" on="0"/>
        <pt x="408" y="1325" on="1"/>
      </contour>
    </TTGlyph>
    <TTGlyph name="S" xMin="80" yMin="-29" xMax="903" yMax="1419">
      <contour>
        <pt x="453" y="45" on="1"/>
        <pt x="513" y="45" on="0"/>
        <pt x="618" y="82" on="0"/>
        <pt x="696" y="152" on="0"/>
        <pt x="741" y="253" on="0"/>
        <pt x="741" y="317" on="1"/>
        <pt x="741" y="378" on="0"/>
        <pt x="684" y="479" on="0"/>
        <pt x="597" y="565" on="0"/>
        <pt x="495" y="641" on="0"/>
        <pt x="449" y="678" on="1"/>
        <pt x="405" y="712" on="0"/>
        <pt x="299" y="793" on="0"/>
        <pt x="206" y="891" on="0"/>
        <pt x="143" y="1009" on="0"/>
        <pt x="143" y="1081" on="1"/>
        <pt x="143" y="1117" on="0"/>
        <pt x="157" y="1196" on="0"/>
        <pt x="192" y="1271" on="0"/>
        <pt x="249" y="1338" on="0"/>
        <pt x="335" y="1389" on="0"/>
        <pt x="451" y="1419" on="0"/>
        <pt x="528" y="1419" on="1"/>
        <pt x="626" y="1419" on="0"/>
        <pt x="808" y="1388" on="0"/>
        <pt x="874" y="1368" on="1"/>
        <pt x="852" y="1067" on="1"/>
        <pt x="795" y="1067" on="1"/>
        <pt x="795" y="1094" on="1"/>
        <pt x="795" y="1132" on="0"/>
        <pt x="779" y="1221" on="0"/>
        <pt x="725" y="1296" on="0"/>
        <pt x="622" y="1346" on="0"/>
        <pt x="535" y="1346" on="1"/>
        <pt x="483" y="1346" on="0"/>
        <pt x="398" y="1317" on="0"/>
        <pt x="338" y="1264" on="0"/>
        <pt x="305" y="1188" on="0"/>
        <pt x="305" y="1141" on="1"/>
        <pt x="305" y="1079" on="0"/>
        <pt x="354" y="984" on="0"/>
        <pt x="431" y="908" on="0"/>
        <pt x="525" y="843" on="0"/>
        <pt x="569" y="811" on="1"/>
        <pt x="635" y="763" on="0"/>
        <pt x="756" y="668" on="0"/>
        <pt x="848" y="563" on="0"/>
        <pt x="903" y="443" on="0"/>
        <pt x="903" y="371" on="1"/>
        <pt x="903" y="287" on="0"/>
        <pt x="827" y="141" on="0"/>
        <pt x="700" y="33" on="0"/>
        <pt x="536" y="-29" on="0"/>
        <pt x="449" y="-29" on="1"/>
        <pt x="343" y="-29" on="0"/>
        <pt x="151" y="5" on="0"/>
        <pt x="80" y="27" on="1"/>
        <pt x="104" y="344" on="1"/>
        <pt x="166" y="344" on="1"/>
        <pt x="166" y="309" on="1"/>
        <pt x="166" y="267" on="0"/>
        <pt x="186" y="174" on="0"/>
        <pt x="247" y="96" on="0"/>
        <pt x="360" y="45" on="0"/>
      </contour>
    </TTGlyph>
    <TTGlyph name="T" xMin="35" yMin="0" xMax="1212" yMax="1405">
      <contour>
        <pt x="551" y="1321" on="1"/>
        <pt x="494" y="1323" on="0"/>
        <pt x="401" y="1325" on="0"/>
        <pt x="373" y="1325" on="1"/>
        <pt x="317" y="1325" on="0"/>
        <pt x="231" y="1308" on="0"/>
        <pt x="164" y="1254" on="0"/>
        <pt x="114" y="1152" on="0"/>
        <pt x="94" y="1067" on="1"/>
        <pt x="35" y="1067" on="1"/>
        <pt x="76" y="1403" on="1"/>
        <pt x="190" y="1394" on="0"/>
        <pt x="353" y="1391" on="0"/>
        <pt x="416" y="1391" on="1"/>
        <pt x="552" y="1391" on="0"/>
        <pt x="799" y="1392" on="0"/>
        <pt x="1005" y="1395" on="0"/>
        <pt x="1164" y="1400" on="0"/>
        <pt x="1212" y="1405" on="1"/>
        <pt x="1182" y="1067" on="1"/>
        <pt x="1120" y="1067" on="1"/>
        <pt x="1120" y="1078" on="0"/>
        <pt x="1122" y="1113" on="0"/>
        <pt x="1122" y="1124" on="1"/>
        <pt x="1122" y="1157" on="0"/>
        <pt x="1108" y="1219" on="0"/>
        <pt x="1062" y="1268" on="0"/>
        <pt x="975" y="1301" on="0"/>
        <pt x="901" y="1305" on="1"/>
        <pt x="705" y="1315" on="1"/>
        <pt x="700" y="1183" on="0"/>
        <pt x="691" y="925" on="0"/>
        <pt x="684" y="689" on="0"/>
        <pt x="677" y="483" on="0"/>
        <pt x="673" y="325" on="0"/>
        <pt x="670" y="223" on="0"/>
        <pt x="670" y="209" on="1"/>
        <pt x="670" y="165" on="0"/>
        <pt x="683" y="111" on="0"/>
        <pt x="708" y="80" on="0"/>
        <pt x="744" y="66" on="0"/>
        <pt x="768" y="63" on="1"/>
        <pt x="811" y="57" on="1"/>
        <pt x="811" y="0" on="1"/>
        <pt x="789" y="3" on="0"/>
        <pt x="758" y="7" on="1"/>
        <pt x="732" y="9" on="0"/>
        <pt x="656" y="14" on="0"/>
        <pt x="606" y="14" on="1"/>
        <pt x="555" y="14" on="0"/>
        <pt x="433" y="8" on="0"/>
        <pt x="358" y="0" on="1"/>
        <pt x="358" y="57" on="1"/>
        <pt x="384" y="59" on="0"/>
        <pt x="424" y="63" on="0"/>
        <pt x="458" y="67" on="0"/>
        <pt x="490" y="69" on="0"/>
        <pt x="508" y="70" on="1"/>
      </contour>
    </TTGlyph>
    <TTGlyph name="Thorn" xMin="61" yMin="0" xMax="1032" yMax="1391">
      <contour>
        <pt x="594" y="1120" on="1"/>
        <pt x="708" y="1120" on="0"/>
        <pt x="874" y="1057" on="0"/>
        <pt x="981" y="951" on="0"/>
        <pt x="1032" y="811" on="0"/>
        <pt x="1032" y="733" on="1"/>
        <pt x="1032" y="643" on="0"/>
        <pt x="960" y="488" on="0"/>
        <pt x="838" y="375" on="0"/>
        <pt x="676" y="311" on="0"/>
        <pt x="586" y="311" on="1"/>
        <pt x="526" y="311" on="0"/>
        <pt x="487" y="322" on="1"/>
        <pt x="489" y="373" on="1"/>
        <pt x="523" y="367" on="0"/>
        <pt x="557" y="367" on="1"/>
        <pt x="627" y="367" on="0"/>
        <pt x="743" y="422" on="0"/>
        <pt x="826" y="515" on="0"/>
        <pt x="872" y="636" on="0"/>
        <pt x="872" y="702" on="1"/>
        <pt x="872" y="784" on="0"/>
        <pt x="828" y="914" on="0"/>
        <pt x="738" y="1006" on="0"/>
        <pt x="604" y="1055" on="0"/>
        <pt x="514" y="1055" on="1"/>
        <pt x="480" y="1055" on="0"/>
        <pt x="425" y="1049" on="0"/>
        <pt x="399" y="1044" on="1"/>
        <pt x="397" y="981" on="0"/>
        <pt x="392" y="816" on="0"/>
        <pt x="386" y="640" on="0"/>
        <pt x="380" y="468" on="0"/>
        <pt x="376" y="325" on="0"/>
        <pt x="373" y="225" on="0"/>
        <pt x="373" y="211" on="1"/>
        <pt x="373" y="167" on="0"/>
        <pt x="384" y="113" on="0"/>
        <pt x="408" y="81" on="0"/>
        <pt x="445" y="67" on="0"/>
        <pt x="471" y="63" on="1"/>
        <pt x="514" y="57" on="1"/>
        <pt x="514" y="0" on="1"/>
        <pt x="492" y="3" on="0"/>
        <pt x="461" y="7" on="1"/>
        <pt x="435" y="9" on="0"/>
        <pt x="359" y="14" on="0"/>
        <pt x="309" y="14" on="1"/>
        <pt x="258" y="14" on="0"/>
        <pt x="136" y="8" on="0"/>
        <pt x="61" y="0" on="1"/>
        <pt x="61" y="57" on="1"/>
        <pt x="87" y="59" on="0"/>
        <pt x="127" y="63" on="0"/>
        <pt x="161" y="67" on="0"/>
        <pt x="193" y="69" on="0"/>
        <pt x="211" y="70" on="1"/>
        <pt x="216" y="203" on="0"/>
        <pt x="225" y="464" on="0"/>
        <pt x="233" y="702" on="0"/>
        <pt x="241" y="908" on="0"/>
        <pt x="247" y="1067" on="0"/>
        <pt x="250" y="1168" on="0"/>
        <pt x="250" y="1182" on="1"/>
        <pt x="250" y="1225" on="0"/>
        <pt x="237" y="1279" on="0"/>
        <pt x="212" y="1310" on="0"/>
        <pt x="174" y="1323" on="0"/>
        <pt x="150" y="1327" on="1"/>
        <pt x="106" y="1333" on="1"/>
        <pt x="106" y="1391" on="1"/>
        <pt x="128" y="1387" on="0"/>
        <pt x="159" y="1383" on="1"/>
        <pt x="185" y="1380" on="0"/>
        <pt x="260" y="1376" on="0"/>
        <pt x="311" y="1376" on="1"/>
        <pt x="362" y="1376" on="0"/>
        <pt x="485" y="1383" on="0"/>
        <pt x="559" y="1391" on="1"/>
        <pt x="559" y="1333" on="1"/>
        <pt x="533" y="1331" on="0"/>
        <pt x="493" y="1327" on="0"/>
        <pt x="460" y="1324" on="0"/>
        <pt x="428" y="1322" on="0"/>
        <pt x="410" y="1321" on="1"/>
        <pt x="401" y="1110" on="1"/>
        <pt x="437" y="1113" on="0"/>
        <pt x="526" y="1120" on="0"/>
      </contour>
    </TTGlyph>
    <TTGlyph name="U" xMin="78" yMin="-29" xMax="1503" yMax="1391">
      <contour>
        <pt x="78" y="1391" on="1"/>
        <pt x="100" y="1387" on="0"/>
        <pt x="131" y="1383" on="1"/>
        <pt x="157" y="1380" on="0"/>
        <pt x="232" y="1376" on="0"/>
        <pt x="283" y="1376" on="1"/>
        <pt x="334" y="1376" on="0"/>
        <pt x="456" y="1383" on="0"/>
        <pt x="530" y="1391" on="1"/>
        <pt x="530" y="1333" on="1"/>
        <pt x="504" y="1331" on="0"/>
        <pt x="465" y="1327" on="0"/>
        <pt x="431" y="1324" on="0"/>
        <pt x="399" y="1322" on="0"/>
        <pt x="381" y="1321" on="1"/>
        <pt x="374" y="1144" on="0"/>
        <pt x="365" y="887" on="0"/>
        <pt x="358" y="706" on="0"/>
        <pt x="354" y="590" on="0"/>
        <pt x="353" y="519" on="0"/>
        <pt x="352" y="482" on="0"/>
        <pt x="352" y="471" on="1"/>
        <pt x="352" y="265" on="0"/>
        <pt x="549" y="57" on="0"/>
        <pt x="760" y="57" on="1"/>
        <pt x="965" y="57" on="0"/>
        <pt x="1181" y="293" on="0"/>
        <pt x="1190" y="535" on="1"/>
        <pt x="1201" y="817" on="0"/>
        <pt x="1212" y="1138" on="0"/>
        <pt x="1212" y="1182" on="1"/>
        <pt x="1212" y="1225" on="0"/>
        <pt x="1200" y="1279" on="0"/>
        <pt x="1176" y="1310" on="0"/>
        <pt x="1139" y="1323" on="0"/>
        <pt x="1114" y="1327" on="1"/>
        <pt x="1071" y="1333" on="1"/>
        <pt x="1071" y="1391" on="1"/>
        <pt x="1090" y="1387" on="0"/>
        <pt x="1118" y="1383" on="1"/>
        <pt x="1142" y="1380" on="0"/>
        <pt x="1213" y="1376" on="0"/>
        <pt x="1262" y="1376" on="1"/>
        <pt x="1310" y="1376" on="0"/>
        <pt x="1429" y="1383" on="0"/>
        <pt x="1503" y="1391" on="1"/>
        <pt x="1503" y="1333" on="1"/>
        <pt x="1477" y="1331" on="0"/>
        <pt x="1438" y="1327" on="0"/>
        <pt x="1404" y="1324" on="0"/>
        <pt x="1372" y="1322" on="0"/>
        <pt x="1354" y="1321" on="1"/>
        <pt x="1286" y="520" on="1"/>
        <pt x="1274" y="387" on="0"/>
        <pt x="1198" y="182" on="0"/>
        <pt x="1065" y="43" on="0"/>
        <pt x="872" y="-29" on="0"/>
        <pt x="745" y="-29" on="1"/>
        <pt x="620" y="-29" on="0"/>
        <pt x="416" y="23" on="0"/>
        <pt x="272" y="130" on="0"/>
        <pt x="193" y="291" on="0"/>
        <pt x="193" y="401" on="1"/>
        <pt x="193" y="422" on="0"/>
        <pt x="195" y="507" on="0"/>
        <pt x="199" y="618" on="0"/>
        <pt x="204" y="747" on="0"/>
        <pt x="210" y="877" on="0"/>
        <pt x="215" y="1001" on="0"/>
        <pt x="219" y="1102" on="0"/>
        <pt x="221" y="1171" on="0"/>
        <pt x="221" y="1182" on="1"/>
        <pt x="221" y="1225" on="0"/>
        <pt x="208" y="1279" on="0"/>
        <pt x="183" y="1310" on="0"/>
        <pt x="145" y="1323" on="0"/>
        <pt x="121" y="1327" on="1"/>
        <pt x="78" y="1333" on="1"/>
        <pt x="78" y="1391" on="1"/>
      </contour>
    </TTGlyph>
    <TTGlyph name="Uacute" xMin="78" yMin="-29" xMax="1503" yMax="1892">
      <component glyphName="U" x="0" y="0" flags="0x204"/>
      <component glyphName="acute.case" x="260" y="0" flags="0x4"/>
    </TTGlyph>
    <TTGlyph name="Ucircumflex" xMin="78" yMin="-29" xMax="1503" yMax="1892">
      <component glyphName="U" x="0" y="0" flags="0x204"/>
      <component glyphName="circumflex.case" x="164" y="0" flags="0x4"/>
    </TTGlyph>
    <TTGlyph name="Udieresis" xMin="78" yMin="-29" xMax="1503" yMax="1763">
      <component glyphName="U" x="0" y="0" flags="0x204"/>
      <component glyphName="dieresis.case" x="221" y="0" flags="0x4"/>
    </TTGlyph>
    <TTGlyph name="Ugrave" xMin="78" yMin="-29" xMax="1503" yMax="1886">
      <component glyphName="U" x="0" y="0" flags="0x204"/>
      <component glyphName="grave.case" x="258" y="0" flags="0x4"/>
    </TTGlyph>
    <TTGlyph name="V" xMin="-12" yMin="-31" xMax="1411" yMax="1391">
      <contour>
        <pt x="692" y="186" on="1"/>
        <pt x="705" y="186" on="1"/>
        <pt x="1061" y="1139" on="1"/>
        <pt x="1081" y="1190" on="0"/>
        <pt x="1100" y="1256" on="0"/>
        <pt x="1100" y="1278" on="1"/>
        <pt x="1100" y="1303" on="0"/>
        <pt x="1071" y="1322" on="0"/>
        <pt x="1042" y="1327" on="1"/>
        <pt x="999" y="1333" on="1"/>
        <pt x="999" y="1391" on="1"/>
        <pt x="1015" y="1387" on="0"/>
        <pt x="1040" y="1383" on="1"/>
        <pt x="1061" y="1380" on="0"/>
        <pt x="1127" y="1376" on="0"/>
        <pt x="1174" y="1376" on="1"/>
        <pt x="1220" y="1376" on="0"/>
        <pt x="1337" y="1383" on="0"/>
        <pt x="1411" y="1391" on="1"/>
        <pt x="1411" y="1333" on="1"/>
        <pt x="1385" y="1331" on="0"/>
        <pt x="1345" y="1327" on="0"/>
        <pt x="1312" y="1324" on="0"/>
        <pt x="1280" y="1322" on="0"/>
        <pt x="1262" y="1321" on="1"/>
        <pt x="696" y="-14" on="1"/>
        <pt x="616" y="-31" on="1"/>
        <pt x="207" y="1139" on="1"/>
        <pt x="186" y="1198" on="0"/>
        <pt x="147" y="1269" on="0"/>
        <pt x="105" y="1308" on="0"/>
        <pt x="58" y="1323" on="0"/>
        <pt x="31" y="1327" on="1"/>
        <pt x="-12" y="1333" on="1"/>
        <pt x="-12" y="1391" on="1"/>
        <pt x="14" y="1387" on="0"/>
        <pt x="48" y="1383" on="1"/>
        <pt x="77" y="1380" on="0"/>
        <pt x="161" y="1376" on="0"/>
        <pt x="215" y="1376" on="1"/>
        <pt x="269" y="1376" on="0"/>
        <pt x="397" y="1383" on="0"/>
        <pt x="471" y="1391" on="1"/>
        <pt x="471" y="1333" on="1"/>
        <pt x="445" y="1331" on="0"/>
        <pt x="405" y="1327" on="0"/>
        <pt x="372" y="1324" on="0"/>
        <pt x="340" y="1322" on="0"/>
        <pt x="322" y="1321" on="1"/>
      </contour>
    </TTGlyph>
    <TTGlyph name="W" xMin="-2" yMin="-31" xMax="1952" yMax="1391">
      <contour>
        <pt x="1032" y="1237" on="1"/>
        <pt x="1317" y="256" on="1"/>
        <pt x="1329" y="256" on="1"/>
        <pt x="1612" y="1137" on="1"/>
        <pt x="1627" y="1186" on="0"/>
        <pt x="1642" y="1252" on="0"/>
        <pt x="1642" y="1274" on="1"/>
        <pt x="1642" y="1300" on="0"/>
        <pt x="1614" y="1322" on="0"/>
        <pt x="1583" y="1327" on="1"/>
        <pt x="1540" y="1333" on="1"/>
        <pt x="1540" y="1391" on="1"/>
        <pt x="1556" y="1387" on="0"/>
        <pt x="1581" y="1383" on="1"/>
        <pt x="1602" y="1380" on="0"/>
        <pt x="1667" y="1376" on="0"/>
        <pt x="1714" y="1376" on="1"/>
        <pt x="1761" y="1376" on="0"/>
        <pt x="1877" y="1383" on="0"/>
        <pt x="1952" y="1391" on="1"/>
        <pt x="1952" y="1333" on="1"/>
        <pt x="1926" y="1331" on="0"/>
        <pt x="1886" y="1327" on="0"/>
        <pt x="1852" y="1324" on="0"/>
        <pt x="1820" y="1322" on="0"/>
        <pt x="1802" y="1321" on="1"/>
        <pt x="1319" y="-14" on="1"/>
        <pt x="1239" y="-31" on="1"/>
        <pt x="961" y="932" on="1"/>
        <pt x="625" y="-14" on="1"/>
        <pt x="545" y="-31" on="1"/>
        <pt x="217" y="1139" on="1"/>
        <pt x="200" y="1199" on="0"/>
        <pt x="155" y="1269" on="0"/>
        <pt x="104" y="1308" on="0"/>
        <pt x="48" y="1323" on="0"/>
        <pt x="20" y="1327" on="1"/>
        <pt x="-2" y="1333" on="1"/>
        <pt x="-2" y="1391" on="1"/>
        <pt x="24" y="1387" on="0"/>
        <pt x="58" y="1383" on="1"/>
        <pt x="87" y="1380" on="0"/>
        <pt x="171" y="1376" on="0"/>
        <pt x="225" y="1376" on="1"/>
        <pt x="279" y="1376" on="0"/>
        <pt x="407" y="1383" on="0"/>
        <pt x="481" y="1391" on="1"/>
        <pt x="481" y="1333" on="1"/>
        <pt x="455" y="1331" on="0"/>
        <pt x="416" y="1327" on="0"/>
        <pt x="382" y="1324" on="0"/>
        <pt x="350" y="1322" on="0"/>
        <pt x="332" y="1321" on="1"/>
        <pt x="621" y="256" on="1"/>
        <pt x="633" y="256" on="1"/>
        <pt x="973" y="1219" on="1"/>
      </contour>
    </TTGlyph>
    <TTGlyph name="X" xMin="-33" yMin="0" xMax="1184" yMax="1391">
      <contour>
        <pt x="529" y="700" on="1"/>
        <pt x="293" y="1145" on="1"/>
        <pt x="264" y="1200" on="0"/>
        <pt x="215" y="1268" on="0"/>
        <pt x="169" y="1307" on="0"/>
        <pt x="122" y="1323" on="0"/>
        <pt x="94" y="1327" on="1"/>
        <pt x="51" y="1333" on="1"/>
        <pt x="51" y="1391" on="1"/>
        <pt x="74" y="1387" on="0"/>
        <pt x="107" y="1383" on="1"/>
        <pt x="135" y="1380" on="0"/>
        <pt x="215" y="1376" on="0"/>
        <pt x="268" y="1376" on="1"/>
        <pt x="321" y="1376" on="0"/>
        <pt x="446" y="1383" on="0"/>
        <pt x="520" y="1391" on="1"/>
        <pt x="520" y="1333" on="1"/>
        <pt x="494" y="1331" on="0"/>
        <pt x="455" y="1327" on="0"/>
        <pt x="421" y="1324" on="0"/>
        <pt x="389" y="1322" on="0"/>
        <pt x="371" y="1321" on="1"/>
        <pt x="627" y="848" on="1"/>
        <pt x="817" y="1139" on="1"/>
        <pt x="845" y="1182" on="0"/>
        <pt x="868" y="1244" on="0"/>
        <pt x="868" y="1266" on="1"/>
        <pt x="868" y="1295" on="0"/>
        <pt x="831" y="1322" on="0"/>
        <pt x="799" y="1327" on="1"/>
        <pt x="756" y="1333" on="1"/>
        <pt x="756" y="1391" on="1"/>
        <pt x="774" y="1387" on="0"/>
        <pt x="801" y="1383" on="1"/>
        <pt x="824" y="1380" on="0"/>
        <pt x="894" y="1376" on="0"/>
        <pt x="942" y="1376" on="1"/>
        <pt x="990" y="1376" on="0"/>
        <pt x="1109" y="1383" on="0"/>
        <pt x="1184" y="1391" on="1"/>
        <pt x="1184" y="1333" on="1"/>
        <pt x="1158" y="1331" on="0"/>
        <pt x="1118" y="1327" on="0"/>
        <pt x="1084" y="1324" on="0"/>
        <pt x="1052" y="1322" on="0"/>
        <pt x="1034" y="1321" on="1"/>
        <pt x="671" y="767" on="1"/>
        <pt x="965" y="225" on="1"/>
        <pt x="990" y="177" on="0"/>
        <pt x="1032" y="117" on="0"/>
        <pt x="1072" y="82" on="0"/>
        <pt x="1115" y="66" on="0"/>
        <pt x="1141" y="63" on="1"/>
        <pt x="1184" y="57" on="1"/>
        <pt x="1184" y="0" on="1"/>
        <pt x="1161" y="3" on="0"/>
        <pt x="1128" y="7" on="1"/>
        <pt x="1100" y="9" on="0"/>
        <pt x="1019" y="14" on="0"/>
        <pt x="967" y="14" on="1"/>
        <pt x="914" y="14" on="0"/>
        <pt x="789" y="8" on="0"/>
        <pt x="715" y="0" on="1"/>
        <pt x="715" y="57" on="1"/>
        <pt x="741" y="59" on="0"/>
        <pt x="780" y="63" on="0"/>
        <pt x="814" y="67" on="0"/>
        <pt x="846" y="69" on="0"/>
        <pt x="864" y="70" on="1"/>
        <pt x="573" y="617" on="1"/>
        <pt x="334" y="252" on="1"/>
        <pt x="306" y="209" on="0"/>
        <pt x="283" y="147" on="0"/>
        <pt x="283" y="125" on="1"/>
        <pt x="283" y="96" on="0"/>
        <pt x="320" y="68" on="0"/>
        <pt x="352" y="63" on="1"/>
        <pt x="395" y="57" on="1"/>
        <pt x="395" y="0" on="1"/>
        <pt x="377" y="3" on="0"/>
        <pt x="350" y="7" on="1"/>
        <pt x="327" y="9" on="0"/>
        <pt x="257" y="14" on="0"/>
        <pt x="209" y="14" on="1"/>
        <pt x="161" y="14" on="0"/>
        <pt x="42" y="8" on="0"/>
        <pt x="-33" y="0" on="1"/>
        <pt x="-33" y="57" on="1"/>
        <pt x="-7" y="59" on="0"/>
        <pt x="33" y="63" on="0"/>
        <pt x="67" y="67" on="0"/>
        <pt x="99" y="69" on="0"/>
        <pt x="117" y="70" on="1"/>
      </contour>
    </TTGlyph>
    <TTGlyph name="Y" xMin="-16" yMin="0" xMax="1305" yMax="1389">
      <contour>
        <pt x="709" y="590" on="1"/>
        <pt x="704" y="433" on="0"/>
        <pt x="698" y="256" on="0"/>
        <pt x="698" y="225" on="1"/>
        <pt x="698" y="176" on="0"/>
        <pt x="709" y="116" on="0"/>
        <pt x="733" y="82" on="0"/>
        <pt x="771" y="67" on="0"/>
        <pt x="797" y="63" on="1"/>
        <pt x="840" y="57" on="1"/>
        <pt x="840" y="0" on="1"/>
        <pt x="818" y="3" on="0"/>
        <pt x="787" y="7" on="1"/>
        <pt x="761" y="9" on="0"/>
        <pt x="685" y="14" on="0"/>
        <pt x="635" y="14" on="1"/>
        <pt x="584" y="14" on="0"/>
        <pt x="461" y="8" on="0"/>
        <pt x="387" y="0" on="1"/>
        <pt x="387" y="57" on="1"/>
        <pt x="413" y="59" on="0"/>
        <pt x="453" y="63" on="0"/>
        <pt x="486" y="67" on="0"/>
        <pt x="518" y="69" on="0"/>
        <pt x="537" y="70" on="1"/>
        <pt x="549" y="606" on="1"/>
        <pt x="242" y="1137" on="1"/>
        <pt x="211" y="1191" on="0"/>
        <pt x="157" y="1260" on="0"/>
        <pt x="105" y="1302" on="0"/>
        <pt x="54" y="1321" on="0"/>
        <pt x="27" y="1325" on="1"/>
        <pt x="-16" y="1331" on="1"/>
        <pt x="-16" y="1389" on="1"/>
        <pt x="9" y="1385" on="0"/>
        <pt x="42" y="1381" on="1"/>
        <pt x="71" y="1378" on="0"/>
        <pt x="152" y="1374" on="0"/>
        <pt x="205" y="1374" on="1"/>
        <pt x="257" y="1374" on="0"/>
        <pt x="382" y="1381" on="0"/>
        <pt x="457" y="1389" on="1"/>
        <pt x="457" y="1331" on="1"/>
        <pt x="431" y="1329" on="0"/>
        <pt x="391" y="1325" on="0"/>
        <pt x="357" y="1322" on="0"/>
        <pt x="325" y="1320" on="0"/>
        <pt x="307" y="1319" on="1"/>
        <pt x="659" y="696" on="1"/>
        <pt x="676" y="696" on="1"/>
        <pt x="932" y="1137" on="1"/>
        <pt x="981" y="1225" on="0"/>
        <pt x="981" y="1266" on="1"/>
        <pt x="981" y="1294" on="0"/>
        <pt x="944" y="1320" on="0"/>
        <pt x="913" y="1325" on="1"/>
        <pt x="870" y="1331" on="1"/>
        <pt x="870" y="1389" on="1"/>
        <pt x="889" y="1385" on="0"/>
        <pt x="917" y="1381" on="1"/>
        <pt x="941" y="1378" on="0"/>
        <pt x="1012" y="1374" on="0"/>
        <pt x="1061" y="1374" on="1"/>
        <pt x="1109" y="1374" on="0"/>
        <pt x="1230" y="1381" on="0"/>
        <pt x="1305" y="1389" on="1"/>
        <pt x="1305" y="1331" on="1"/>
        <pt x="1279" y="1329" on="0"/>
        <pt x="1239" y="1325" on="0"/>
        <pt x="1205" y="1322" on="0"/>
        <pt x="1173" y="1320" on="0"/>
        <pt x="1155" y="1319" on="1"/>
      </contour>
    </TTGlyph>
    <TTGlyph name="Yacute" xMin="-16" yMin="0" xMax="1305" yMax="1892">
      <component glyphName="Y" x="0" y="0" flags="0x204"/>
      <component glyphName="acute.case" x="98" y="0" flags="0x4"/>
    </TTGlyph>
    <TTGlyph name="Ydieresis" xMin="-16" yMin="0" xMax="1305" yMax="1763">
      <component glyphName="Y" x="0" y="0" flags="0x204"/>
      <component glyphName="dieresis.case" x="78" y="0" flags="0x4"/>
    </TTGlyph>
    <TTGlyph name="Z" xMin="47" yMin="0" xMax="1225" yMax="1391">
      <contour>
        <pt x="47" y="0" on="1"/>
        <pt x="49" y="61" on="1"/>
        <pt x="1014" y="1333" on="1"/>
        <pt x="438" y="1294" on="1"/>
        <pt x="375" y="1289" on="0"/>
        <pt x="295" y="1267" on="0"/>
        <pt x="238" y="1220" on="0"/>
        <pt x="194" y="1142" on="0"/>
        <pt x="166" y="1081" on="1"/>
        <pt x="102" y="1081" on="1"/>
        <pt x="170" y="1391" on="1"/>
        <pt x="1194" y="1391" on="1"/>
        <pt x="1192" y="1325" on="1"/>
        <pt x="248" y="57" on="1"/>
        <pt x="793" y="84" on="1"/>
        <pt x="856" y="87" on="0"/>
        <pt x="965" y="117" on="0"/>
        <pt x="1056" y="181" on="0"/>
        <pt x="1129" y="284" on="0"/>
        <pt x="1157" y="360" on="1"/>
        <pt x="1225" y="360" on="1"/>
        <pt x="1147" y="0" on="1"/>
      </contour>
    </TTGlyph>
    <TTGlyph name="a" xMin="55" yMin="-20" xMax="938" yMax="897">
      <contour>
        <pt x="55" y="156" on="1"/>
        <pt x="55" y="215" on="0"/>
        <pt x="116" y="301" on="0"/>
        <pt x="213" y="363" on="0"/>
        <pt x="333" y="403" on="0"/>
        <pt x="453" y="427" on="0"/>
        <pt x="560" y="438" on="0"/>
        <pt x="594" y="440" on="1"/>
        <pt x="599" y="485" on="0"/>
        <pt x="602" y="569" on="0"/>
        <pt x="602" y="606" on="1"/>
        <pt x="602" y="653" on="0"/>
        <pt x="588" y="739" on="0"/>
        <pt x="548" y="805" on="0"/>
        <pt x="477" y="844" on="0"/>
        <pt x="420" y="844" on="1"/>
        <pt x="380" y="844" on="0"/>
        <pt x="312" y="814" on="0"/>
        <pt x="263" y="763" on="0"/>
        <pt x="236" y="694" on="0"/>
        <pt x="236" y="655" on="1"/>
        <pt x="236" y="640" on="0"/>
        <pt x="241" y="609" on="0"/>
        <pt x="246" y="592" on="1"/>
        <pt x="235" y="579" on="0"/>
        <pt x="196" y="565" on="0"/>
        <pt x="176" y="565" on="1"/>
        <pt x="161" y="565" on="0"/>
        <pt x="133" y="574" on="0"/>
        <pt x="111" y="594" on="0"/>
        <pt x="98" y="626" on="0"/>
        <pt x="98" y="649" on="1"/>
        <pt x="98" y="705" on="0"/>
        <pt x="175" y="797" on="0"/>
        <pt x="292" y="862" on="0"/>
        <pt x="430" y="897" on="0"/>
        <pt x="492" y="897" on="1"/>
        <pt x="610" y="897" on="0"/>
        <pt x="743" y="789" on="0"/>
        <pt x="743" y="664" on="1"/>
        <pt x="743" y="610" on="0"/>
        <pt x="734" y="481" on="0"/>
        <pt x="722" y="355" on="0"/>
        <pt x="713" y="242" on="0"/>
        <pt x="713" y="205" on="1"/>
        <pt x="713" y="142" on="0"/>
        <pt x="744" y="72" on="0"/>
        <pt x="776" y="72" on="1"/>
        <pt x="795" y="72" on="0"/>
        <pt x="833" y="95" on="0"/>
        <pt x="867" y="126" on="0"/>
        <pt x="893" y="159" on="0"/>
        <pt x="901" y="168" on="1"/>
        <pt x="938" y="137" on="1"/>
        <pt x="903" y="88" on="0"/>
        <pt x="843" y="27" on="0"/>
        <pt x="789" y="-8" on="0"/>
        <pt x="739" y="-20" on="0"/>
        <pt x="715" y="-20" on="1"/>
        <pt x="678" y="-20" on="0"/>
        <pt x="624" y="9" on="0"/>
        <pt x="589" y="57" on="0"/>
        <pt x="570" y="119" on="0"/>
        <pt x="569" y="152" on="1"/>
        <pt x="549" y="119" on="0"/>
        <pt x="495" y="57" on="0"/>
        <pt x="423" y="9" on="0"/>
        <pt x="331" y="-20" on="0"/>
        <pt x="274" y="-20" on="1"/>
        <pt x="206" y="-20" on="0"/>
        <pt x="120" y="15" on="0"/>
        <pt x="72" y="68" on="0"/>
        <pt x="55" y="130" on="0"/>
      </contour>
      <contour>
        <pt x="326" y="53" on="1"/>
        <pt x="390" y="53" on="0"/>
        <pt x="481" y="110" on="0"/>
        <pt x="542" y="204" on="0"/>
        <pt x="579" y="325" on="0"/>
        <pt x="588" y="389" on="1"/>
        <pt x="554" y="386" on="0"/>
        <pt x="470" y="378" on="0"/>
        <pt x="385" y="361" on="0"/>
        <pt x="304" y="332" on="0"/>
        <pt x="241" y="286" on="0"/>
        <pt x="203" y="221" on="0"/>
        <pt x="203" y="176" on="1"/>
        <pt x="203" y="138" on="0"/>
        <pt x="228" y="91" on="0"/>
        <pt x="266" y="63" on="0"/>
        <pt x="308" y="53" on="0"/>
      </contour>
    </TTGlyph>
    <TTGlyph name="aacute" xMin="55" yMin="-20" xMax="938" yMax="1544">
      <component glyphName="a" x="0" y="0" flags="0x204"/>
      <component glyphName="acute" x="-91" y="0" flags="0x4"/>
    </TTGlyph>
    <TTGlyph name="acircumflex" xMin="55" yMin="-20" xMax="938" yMax="1544">
      <component glyphName="a" x="0" y="0" flags="0x204"/>
      <component glyphName="circumflex" x="-167" y="0" flags="0x4"/>
    </TTGlyph>
    <TTGlyph name="acute" xMin="451" yMin="1133" xMax="827" yMax="1544">
      <contour>
        <pt x="451" y="1165" on="1"/>
        <pt x="702" y="1544" on="1"/>
        <pt x="730" y="1516" on="0"/>
        <pt x="795" y="1472" on="0"/>
        <pt x="827" y="1456" on="1"/>
        <pt x="498" y="1133" on="1"/>
      </contour>
    </TTGlyph>
    <TTGlyph name="acute.case" xMin="412" yMin="1546" xMax="852" yMax="1892">
      <contour>
        <pt x="412" y="1591" on="1"/>
        <pt x="754" y="1892" on="1"/>
        <pt x="774" y="1858" on="0"/>
        <pt x="824" y="1797" on="0"/>
        <pt x="852" y="1774" on="1"/>
        <pt x="449" y="1546" on="1"/>
      </contour>
    </TTGlyph>
    <TTGlyph name="adieresis" xMin="55" yMin="-20" xMax="938" yMax="1350">
      <component glyphName="a" x="0" y="0" flags="0x204"/>
      <component glyphName="dieresis" x="-116" y="0" flags="0x4"/>
    </TTGlyph>
    <TTGlyph name="ae" xMin="55" yMin="-20" xMax="1389" yMax="897">
      <contour>
        <pt x="1192" y="526" on="1"/>
        <pt x="1086" y="526" on="0"/>
        <pt x="867" y="542" on="0"/>
        <pt x="750" y="553" on="1"/>
        <pt x="746" y="530" on="0"/>
        <pt x="743" y="485" on="0"/>
        <pt x="743" y="463" on="1"/>
        <pt x="744" y="353" on="0"/>
        <pt x="798" y="211" on="0"/>
        <pt x="887" y="128" on="0"/>
        <pt x="1001" y="96" on="0"/>
        <pt x="1063" y="96" on="1"/>
        <pt x="1102" y="96" on="0"/>
        <pt x="1173" y="107" on="0"/>
        <pt x="1245" y="131" on="0"/>
        <pt x="1320" y="170" on="0"/>
        <pt x="1362" y="199" on="1"/>
        <pt x="1389" y="160" on="1"/>
        <pt x="1288" y="75" on="0"/>
        <pt x="1091" y="-20" on="0"/>
        <pt x="979" y="-20" on="1"/>
        <pt x="915" y="-20" on="0"/>
        <pt x="806" y="14" on="0"/>
        <pt x="717" y="76" on="0"/>
        <pt x="650" y="160" on="0"/>
        <pt x="629" y="211" on="1"/>
        <pt x="602" y="162" on="0"/>
        <pt x="532" y="77" on="0"/>
        <pt x="443" y="15" on="0"/>
        <pt x="337" y="-20" on="0"/>
        <pt x="274" y="-20" on="1"/>
        <pt x="206" y="-20" on="0"/>
        <pt x="120" y="15" on="0"/>
        <pt x="72" y="68" on="0"/>
        <pt x="55" y="130" on="0"/>
        <pt x="55" y="156" on="1"/>
        <pt x="55" y="214" on="0"/>
        <pt x="116" y="299" on="0"/>
        <pt x="213" y="361" on="0"/>
        <pt x="333" y="401" on="0"/>
        <pt x="453" y="426" on="0"/>
        <pt x="560" y="437" on="0"/>
        <pt x="594" y="440" on="1"/>
        <pt x="599" y="485" on="0"/>
        <pt x="602" y="569" on="0"/>
        <pt x="602" y="606" on="1"/>
        <pt x="602" y="653" on="0"/>
        <pt x="588" y="739" on="0"/>
        <pt x="548" y="805" on="0"/>
        <pt x="477" y="844" on="0"/>
        <pt x="420" y="844" on="1"/>
        <pt x="380" y="844" on="0"/>
        <pt x="312" y="814" on="0"/>
        <pt x="263" y="763" on="0"/>
        <pt x="236" y="694" on="0"/>
        <pt x="236" y="655" on="1"/>
        <pt x="236" y="640" on="0"/>
        <pt x="241" y="609" on="0"/>
        <pt x="246" y="592" on="1"/>
        <pt x="235" y="579" on="0"/>
        <pt x="196" y="565" on="0"/>
        <pt x="176" y="565" on="1"/>
        <pt x="161" y="565" on="0"/>
        <pt x="133" y="574" on="0"/>
        <pt x="111" y="594" on="0"/>
        <pt x="98" y="626" on="0"/>
        <pt x="98" y="649" on="1"/>
        <pt x="98" y="705" on="0"/>
        <pt x="175" y="797" on="0"/>
        <pt x="292" y="862" on="0"/>
        <pt x="430" y="897" on="0"/>
        <pt x="492" y="897" on="1"/>
        <pt x="586" y="897" on="0"/>
        <pt x="709" y="829" on="0"/>
        <pt x="731" y="752" on="1"/>
        <pt x="794" y="820" on="0"/>
        <pt x="956" y="897" on="0"/>
        <pt x="1047" y="897" on="1"/>
        <pt x="1137" y="897" on="0"/>
        <pt x="1258" y="836" on="0"/>
        <pt x="1331" y="740" on="0"/>
        <pt x="1362" y="625" on="0"/>
        <pt x="1362" y="571" on="1"/>
        <pt x="1362" y="560" on="0"/>
        <pt x="1362" y="542" on="0"/>
        <pt x="1360" y="532" on="1"/>
        <pt x="1274" y="526" on="0"/>
      </contour>
      <contour>
        <pt x="326" y="53" on="1"/>
        <pt x="390" y="53" on="0"/>
        <pt x="481" y="110" on="0"/>
        <pt x="542" y="204" on="0"/>
        <pt x="579" y="325" on="0"/>
        <pt x="588" y="389" on="1"/>
        <pt x="554" y="387" on="0"/>
        <pt x="470" y="379" on="0"/>
        <pt x="385" y="362" on="0"/>
        <pt x="304" y="334" on="0"/>
        <pt x="241" y="288" on="0"/>
        <pt x="203" y="222" on="0"/>
        <pt x="203" y="176" on="1"/>
        <pt x="203" y="138" on="0"/>
        <pt x="228" y="91" on="0"/>
        <pt x="266" y="63" on="0"/>
        <pt x="308" y="53" on="0"/>
      </contour>
      <contour>
        <pt x="1012" y="842" on="1"/>
        <pt x="961" y="842" on="0"/>
        <pt x="880" y="803" on="0"/>
        <pt x="817" y="736" on="0"/>
        <pt x="773" y="648" on="0"/>
        <pt x="760" y="600" on="1"/>
        <pt x="831" y="598" on="0"/>
        <pt x="929" y="596" on="0"/>
        <pt x="963" y="596" on="1"/>
        <pt x="1061" y="596" on="1"/>
        <pt x="1096" y="596" on="0"/>
        <pt x="1169" y="598" on="0"/>
        <pt x="1217" y="600" on="1"/>
        <pt x="1217" y="610" on="1"/>
        <pt x="1217" y="664" on="0"/>
        <pt x="1187" y="750" on="0"/>
        <pt x="1133" y="810" on="0"/>
        <pt x="1057" y="842" on="0"/>
      </contour>
    </TTGlyph>
    <TTGlyph name="agrave" xMin="55" yMin="-20" xMax="938" yMax="1544">
      <component glyphName="a" x="0" y="0" flags="0x204"/>
      <component glyphName="grave" x="-60" y="0" flags="0x4"/>
    </TTGlyph>
    <TTGlyph name="ampersand" xMin="84" yMin="-20" xMax="1544" yMax="1419">
      <contour>
        <pt x="614" y="1346" on="1"/>
        <pt x="566" y="1346" on="0"/>
        <pt x="497" y="1303" on="0"/>
        <pt x="452" y="1232" on="0"/>
        <pt x="430" y="1140" on="0"/>
        <pt x="430" y="1092" on="1"/>
        <pt x="430" y="1059" on="0"/>
        <pt x="446" y="994" on="0"/>
        <pt x="473" y="930" on="0"/>
        <pt x="509" y="867" on="0"/>
        <pt x="528" y="836" on="1"/>
        <pt x="579" y="870" on="0"/>
        <pt x="665" y="945" on="0"/>
        <pt x="728" y="1026" on="0"/>
        <pt x="764" y="1113" on="0"/>
        <pt x="764" y="1161" on="1"/>
        <pt x="764" y="1197" on="0"/>
        <pt x="747" y="1264" on="0"/>
        <pt x="710" y="1315" on="0"/>
        <pt x="653" y="1346" on="0"/>
      </contour>
      <contour>
        <pt x="530" y="84" on="1"/>
        <pt x="593" y="84" on="0"/>
        <pt x="736" y="154" on="0"/>
        <pt x="807" y="236" on="1"/>
        <pt x="757" y="288" on="0"/>
        <pt x="658" y="393" on="0"/>
        <pt x="563" y="503" on="0"/>
        <pt x="474" y="622" on="0"/>
        <pt x="434" y="688" on="1"/>
        <pt x="374" y="649" on="0"/>
        <pt x="295" y="574" on="0"/>
        <pt x="248" y="497" on="0"/>
        <pt x="229" y="414" on="0"/>
        <pt x="229" y="367" on="1"/>
        <pt x="229" y="308" on="0"/>
        <pt x="272" y="205" on="0"/>
        <pt x="352" y="129" on="0"/>
        <pt x="462" y="84" on="0"/>
      </contour>
      <contour>
        <pt x="940" y="324" on="1"/>
        <pt x="972" y="292" on="0"/>
        <pt x="1071" y="213" on="0"/>
        <pt x="1185" y="144" on="0"/>
        <pt x="1304" y="96" on="0"/>
        <pt x="1356" y="96" on="1"/>
        <pt x="1398" y="96" on="0"/>
        <pt x="1474" y="114" on="0"/>
        <pt x="1518" y="145" on="1"/>
        <pt x="1544" y="109" on="1"/>
        <pt x="1518" y="83" on="0"/>
        <pt x="1456" y="36" on="0"/>
        <pt x="1387" y="1" on="0"/>
        <pt x="1314" y="-20" on="0"/>
        <pt x="1278" y="-20" on="1"/>
        <pt x="1219" y="-20" on="0"/>
        <pt x="1103" y="20" on="0"/>
        <pt x="993" y="82" on="0"/>
        <pt x="892" y="159" on="0"/>
        <pt x="848" y="195" on="1"/>
        <pt x="803" y="136" on="0"/>
        <pt x="703" y="55" on="0"/>
        <pt x="600" y="3" on="0"/>
        <pt x="497" y="-20" on="0"/>
        <pt x="449" y="-20" on="1"/>
        <pt x="371" y="-20" on="0"/>
        <pt x="238" y="27" on="0"/>
        <pt x="140" y="114" on="0"/>
        <pt x="84" y="238" on="0"/>
        <pt x="84" y="315" on="1"/>
        <pt x="84" y="351" on="0"/>
        <pt x="95" y="426" on="0"/>
        <pt x="126" y="504" on="0"/>
        <pt x="183" y="584" on="0"/>
        <pt x="229" y="623" on="1"/>
        <pt x="250" y="641" on="0"/>
        <pt x="292" y="672" on="0"/>
        <pt x="335" y="701" on="0"/>
        <pt x="379" y="731" on="0"/>
        <pt x="401" y="748" on="1"/>
        <pt x="381" y="778" on="0"/>
        <pt x="349" y="847" on="0"/>
        <pt x="327" y="920" on="0"/>
        <pt x="315" y="993" on="0"/>
        <pt x="315" y="1026" on="1"/>
        <pt x="315" y="1116" on="0"/>
        <pt x="389" y="1278" on="0"/>
        <pt x="461" y="1343" on="1"/>
        <pt x="513" y="1388" on="0"/>
        <pt x="621" y="1419" on="0"/>
        <pt x="680" y="1419" on="1"/>
        <pt x="728" y="1419" on="0"/>
        <pt x="809" y="1387" on="0"/>
        <pt x="869" y="1328" on="0"/>
        <pt x="903" y="1247" on="0"/>
        <pt x="903" y="1198" on="1"/>
        <pt x="903" y="1149" on="0"/>
        <pt x="869" y="1050" on="0"/>
        <pt x="815" y="993" on="1"/>
        <pt x="784" y="961" on="0"/>
        <pt x="721" y="906" on="0"/>
        <pt x="657" y="856" on="0"/>
        <pt x="592" y="807" on="0"/>
        <pt x="559" y="780" on="1"/>
        <pt x="630" y="665" on="0"/>
        <pt x="797" y="448" on="0"/>
        <pt x="893" y="360" on="1"/>
        <pt x="1069" y="668" on="1"/>
        <pt x="1127" y="768" on="0"/>
        <pt x="1225" y="885" on="0"/>
        <pt x="1306" y="945" on="0"/>
        <pt x="1371" y="961" on="0"/>
        <pt x="1397" y="961" on="1"/>
        <pt x="1422" y="961" on="0"/>
        <pt x="1457" y="946" on="0"/>
        <pt x="1478" y="922" on="0"/>
        <pt x="1487" y="894" on="0"/>
        <pt x="1487" y="881" on="1"/>
        <pt x="1487" y="864" on="0"/>
        <pt x="1479" y="825" on="0"/>
        <pt x="1466" y="807" on="1"/>
        <pt x="1445" y="815" on="0"/>
        <pt x="1404" y="821" on="0"/>
        <pt x="1384" y="821" on="1"/>
        <pt x="1315" y="821" on="0"/>
        <pt x="1203" y="736" on="0"/>
        <pt x="1155" y="662" on="1"/>
      </contour>
    </TTGlyph>
    <TTGlyph name="aring" xMin="55" yMin="-20" xMax="938" yMax="1513">
      <component glyphName="a" x="0" y="0" flags="0x204"/>
      <component glyphName="ring" x="-7" y="0" flags="0x4"/>
    </TTGlyph>
    <TTGlyph name="asciicircum" xMin="70" yMin="868" xMax="745" yMax="1339">
      <contour>
        <pt x="184" y="868" on="1"/>
        <pt x="70" y="868" on="1"/>
        <pt x="371" y="1339" on="1"/>
        <pt x="442" y="1339" on="1"/>
        <pt x="745" y="868" on="1"/>
        <pt x="631" y="868" on="1"/>
        <pt x="408" y="1219" on="1"/>
      </contour>
    </TTGlyph>
    <TTGlyph name="asciitilde" xMin="96" yMin="446" xMax="848" yMax="719">
      <contour>
        <pt x="848" y="698" on="1"/>
        <pt x="838" y="659" on="0"/>
        <pt x="801" y="570" on="0"/>
        <pt x="743" y="495" on="0"/>
        <pt x="661" y="446" on="0"/>
        <pt x="606" y="446" on="1"/>
        <pt x="557" y="446" on="0"/>
        <pt x="467" y="500" on="0"/>
        <pt x="418" y="539" on="1"/>
        <pt x="392" y="560" on="0"/>
        <pt x="355" y="590" on="0"/>
        <pt x="325" y="611" on="0"/>
        <pt x="298" y="621" on="0"/>
        <pt x="283" y="621" on="1"/>
        <pt x="257" y="621" on="0"/>
        <pt x="216" y="584" on="0"/>
        <pt x="183" y="530" on="0"/>
        <pt x="159" y="469" on="0"/>
        <pt x="152" y="446" on="1"/>
        <pt x="96" y="467" on="1"/>
        <pt x="106" y="506" on="0"/>
        <pt x="143" y="594" on="0"/>
        <pt x="201" y="669" on="0"/>
        <pt x="282" y="719" on="0"/>
        <pt x="338" y="719" on="1"/>
        <pt x="387" y="719" on="0"/>
        <pt x="477" y="665" on="0"/>
        <pt x="526" y="627" on="1"/>
        <pt x="552" y="606" on="0"/>
        <pt x="590" y="575" on="0"/>
        <pt x="620" y="555" on="0"/>
        <pt x="647" y="545" on="0"/>
        <pt x="662" y="545" on="1"/>
        <pt x="687" y="545" on="0"/>
        <pt x="728" y="582" on="0"/>
        <pt x="761" y="636" on="0"/>
        <pt x="785" y="696" on="0"/>
        <pt x="793" y="719" on="1"/>
      </contour>
    </TTGlyph>
    <TTGlyph name="asterisk" xMin="96" yMin="610" xMax="874" yMax="1419">
      <contour>
        <pt x="106" y="1157" on="1"/>
        <pt x="132" y="1192" on="0"/>
        <pt x="166" y="1250" on="0"/>
        <pt x="180" y="1276" on="1"/>
        <pt x="455" y="1071" on="1"/>
        <pt x="428" y="1419" on="1"/>
        <pt x="444" y="1417" on="0"/>
        <pt x="479" y="1415" on="0"/>
        <pt x="496" y="1415" on="1"/>
        <pt x="513" y="1415" on="0"/>
        <pt x="551" y="1416" on="0"/>
        <pt x="569" y="1419" on="1"/>
        <pt x="518" y="1067" on="1"/>
        <pt x="811" y="1274" on="1"/>
        <pt x="830" y="1234" on="0"/>
        <pt x="859" y="1177" on="0"/>
        <pt x="874" y="1151" on="1"/>
        <pt x="553" y="1018" on="1"/>
        <pt x="862" y="868" on="1"/>
        <pt x="854" y="857" on="0"/>
        <pt x="835" y="827" on="0"/>
        <pt x="814" y="795" on="0"/>
        <pt x="794" y="764" on="0"/>
        <pt x="786" y="752" on="1"/>
        <pt x="514" y="965" on="1"/>
        <pt x="537" y="610" on="1"/>
        <pt x="526" y="610" on="0"/>
        <pt x="515" y="611" on="1"/>
        <pt x="505" y="611" on="0"/>
        <pt x="481" y="612" on="0"/>
        <pt x="469" y="612" on="1"/>
        <pt x="461" y="612" on="0"/>
        <pt x="419" y="612" on="0"/>
        <pt x="399" y="610" on="1"/>
        <pt x="455" y="963" on="1"/>
        <pt x="162" y="754" on="1"/>
        <pt x="155" y="767" on="0"/>
        <pt x="138" y="798" on="0"/>
        <pt x="121" y="831" on="0"/>
        <pt x="104" y="862" on="0"/>
        <pt x="96" y="874" on="1"/>
        <pt x="422" y="1016" on="1"/>
      </contour>
    </TTGlyph>
    <TTGlyph name="at" xMin="86" yMin="-319" xMax="1464" yMax="1145">
      <contour>
        <pt x="1063" y="141" on="1"/>
        <pt x="1127" y="154" on="0"/>
        <pt x="1244" y="234" on="0"/>
        <pt x="1332" y="354" on="0"/>
        <pt x="1384" y="508" on="0"/>
        <pt x="1384" y="596" on="1"/>
        <pt x="1384" y="706" on="0"/>
        <pt x="1312" y="882" on="0"/>
        <pt x="1180" y="1005" on="0"/>
        <pt x="995" y="1071" on="0"/>
        <pt x="881" y="1071" on="1"/>
        <pt x="785" y="1071" on="0"/>
        <pt x="611" y="1024" on="0"/>
        <pt x="462" y="937" on="0"/>
        <pt x="341" y="815" on="0"/>
        <pt x="255" y="664" on="0"/>
        <pt x="209" y="488" on="0"/>
        <pt x="209" y="391" on="1"/>
        <pt x="209" y="250" on="0"/>
        <pt x="298" y="18" on="0"/>
        <pt x="461" y="-146" on="0"/>
        <pt x="691" y="-236" on="0"/>
        <pt x="831" y="-236" on="1"/>
        <pt x="889" y="-236" on="0"/>
        <pt x="1000" y="-221" on="0"/>
        <pt x="1109" y="-190" on="0"/>
        <pt x="1222" y="-142" on="0"/>
        <pt x="1284" y="-109" on="1"/>
        <pt x="1309" y="-168" on="1"/>
        <pt x="1165" y="-245" on="0"/>
        <pt x="907" y="-319" on="0"/>
        <pt x="780" y="-319" on="1"/>
        <pt x="632" y="-319" on="0"/>
        <pt x="378" y="-218" on="0"/>
        <pt x="192" y="-35" on="0"/>
        <pt x="86" y="217" on="0"/>
        <pt x="86" y="369" on="1"/>
        <pt x="86" y="480" on="0"/>
        <pt x="140" y="681" on="0"/>
        <pt x="240" y="854" on="0"/>
        <pt x="381" y="993" on="0"/>
        <pt x="556" y="1092" on="0"/>
        <pt x="759" y="1145" on="0"/>
        <pt x="872" y="1145" on="1"/>
        <pt x="1007" y="1145" on="0"/>
        <pt x="1225" y="1067" on="0"/>
        <pt x="1380" y="924" on="0"/>
        <pt x="1464" y="721" on="0"/>
        <pt x="1464" y="596" on="1"/>
        <pt x="1464" y="488" on="0"/>
        <pt x="1384" y="291" on="0"/>
        <pt x="1247" y="139" on="0"/>
        <pt x="1063" y="49" on="0"/>
        <pt x="958" y="49" on="1"/>
        <pt x="928" y="80" on="1"/>
        <pt x="931" y="101" on="0"/>
        <pt x="940" y="182" on="0"/>
        <pt x="949" y="279" on="0"/>
        <pt x="956" y="381" on="0"/>
        <pt x="958" y="422" on="1"/>
        <pt x="944" y="426" on="1"/>
        <pt x="910" y="358" on="0"/>
        <pt x="819" y="233" on="0"/>
        <pt x="715" y="132" on="0"/>
        <pt x="604" y="62" on="0"/>
        <pt x="551" y="49" on="1"/>
        <pt x="461" y="80" on="1"/>
        <pt x="459" y="102" on="0"/>
        <pt x="457" y="142" on="0"/>
        <pt x="457" y="164" on="1"/>
        <pt x="457" y="254" on="0"/>
        <pt x="492" y="424" on="0"/>
        <pt x="555" y="573" on="0"/>
        <pt x="640" y="696" on="0"/>
        <pt x="740" y="785" on="0"/>
        <pt x="851" y="834" on="0"/>
        <pt x="907" y="834" on="1"/>
        <pt x="935" y="834" on="0"/>
        <pt x="981" y="831" on="0"/>
        <pt x="1025" y="824" on="0"/>
        <pt x="1068" y="815" on="0"/>
        <pt x="1092" y="809" on="1"/>
        <pt x="1083" y="720" on="0"/>
        <pt x="1072" y="555" on="0"/>
        <pt x="1066" y="392" on="0"/>
        <pt x="1063" y="228" on="0"/>
      </contour>
      <contour>
        <pt x="958" y="709" on="1"/>
        <pt x="934" y="717" on="0"/>
        <pt x="872" y="729" on="0"/>
        <pt x="844" y="729" on="1"/>
        <pt x="781" y="729" on="0"/>
        <pt x="687" y="661" on="0"/>
        <pt x="625" y="538" on="0"/>
        <pt x="594" y="367" on="0"/>
        <pt x="594" y="264" on="1"/>
        <pt x="594" y="241" on="0"/>
        <pt x="594" y="195" on="0"/>
        <pt x="596" y="170" on="1"/>
        <pt x="620" y="173" on="0"/>
        <pt x="690" y="207" on="0"/>
        <pt x="767" y="268" on="0"/>
        <pt x="845" y="353" on="0"/>
        <pt x="909" y="460" on="0"/>
        <pt x="952" y="586" on="0"/>
        <pt x="956" y="657" on="1"/>
      </contour>
    </TTGlyph>
    <TTGlyph name="atilde" xMin="55" yMin="-20" xMax="938" yMax="1405">
      <component glyphName="a" x="0" y="0" flags="0x204"/>
      <component glyphName="tilde" x="-122" y="0" flags="0x4"/>
    </TTGlyph>
    <TTGlyph name="b" xMin="-6" yMin="-20" xMax="936" yMax="1554">
      <contour>
        <pt x="109" y="76" on="1"/>
        <pt x="116" y="167" on="0"/>
        <pt x="132" y="369" on="0"/>
        <pt x="147" y="579" on="0"/>
        <pt x="160" y="791" on="0"/>
        <pt x="170" y="994" on="0"/>
        <pt x="176" y="1182" on="0"/>
        <pt x="176" y="1264" on="1"/>
        <pt x="176" y="1323" on="0"/>
        <pt x="165" y="1397" on="0"/>
        <pt x="133" y="1439" on="0"/>
        <pt x="76" y="1454" on="0"/>
        <pt x="31" y="1454" on="1"/>
        <pt x="-6" y="1454" on="1"/>
        <pt x="-6" y="1501" on="1"/>
        <pt x="38" y="1503" on="0"/>
        <pt x="114" y="1510" on="0"/>
        <pt x="193" y="1522" on="0"/>
        <pt x="280" y="1540" on="0"/>
        <pt x="336" y="1554" on="1"/>
        <pt x="333" y="1526" on="0"/>
        <pt x="324" y="1427" on="0"/>
        <pt x="313" y="1298" on="0"/>
        <pt x="301" y="1145" on="0"/>
        <pt x="290" y="980" on="0"/>
        <pt x="280" y="807" on="0"/>
        <pt x="276" y="723" on="1"/>
        <pt x="334" y="771" on="0"/>
        <pt x="434" y="837" on="0"/>
        <pt x="523" y="878" on="0"/>
        <pt x="599" y="897" on="0"/>
        <pt x="633" y="897" on="1"/>
        <pt x="709" y="897" on="0"/>
        <pt x="823" y="838" on="0"/>
        <pt x="898" y="734" on="0"/>
        <pt x="936" y="592" on="0"/>
        <pt x="936" y="510" on="1"/>
        <pt x="936" y="389" on="0"/>
        <pt x="849" y="193" on="0"/>
        <pt x="709" y="55" on="0"/>
        <pt x="534" y="-20" on="0"/>
        <pt x="446" y="-20" on="1"/>
        <pt x="404" y="-20" on="0"/>
        <pt x="309" y="-6" on="0"/>
        <pt x="218" y="19" on="0"/>
        <pt x="137" y="54" on="0"/>
      </contour>
      <contour>
        <pt x="274" y="649" on="1"/>
        <pt x="270" y="587" on="0"/>
        <pt x="264" y="441" on="0"/>
        <pt x="260" y="299" on="0"/>
        <pt x="258" y="174" on="0"/>
        <pt x="258" y="133" on="1"/>
        <pt x="303" y="96" on="0"/>
        <pt x="434" y="47" on="0"/>
        <pt x="512" y="47" on="1"/>
        <pt x="567" y="47" on="0"/>
        <pt x="667" y="105" on="0"/>
        <pt x="742" y="213" on="0"/>
        <pt x="786" y="366" on="0"/>
        <pt x="786" y="461" on="1"/>
        <pt x="786" y="620" on="0"/>
        <pt x="672" y="795" on="0"/>
        <pt x="559" y="795" on="1"/>
        <pt x="521" y="795" on="0"/>
        <pt x="437" y="765" on="0"/>
        <pt x="360" y="721" on="0"/>
        <pt x="294" y="670" on="0"/>
      </contour>
    </TTGlyph>
    <TTGlyph name="backslash" xMin="70" yMin="-356" xMax="1061" yMax="1473">
      <contour>
        <pt x="1061" y="-356" on="1"/>
        <pt x="950" y="-356" on="1"/>
        <pt x="70" y="1473" on="1"/>
        <pt x="180" y="1473" on="1"/>
      </contour>
    </TTGlyph>
    <TTGlyph name="bar" xMin="166" yMin="-401" xMax="264" yMax="1554">
      <contour>
        <pt x="166" y="1554" on="1"/>
        <pt x="264" y="1554" on="1"/>
        <pt x="264" y="-401" on="1"/>
        <pt x="166" y="-401" on="1"/>
      </contour>
    </TTGlyph>
    <TTGlyph name="braceleft" xMin="33" yMin="-416" xMax="553" yMax="1501">
      <contour>
        <pt x="553" y="1450" on="1"/>
        <pt x="479" y="1433" on="0"/>
        <pt x="389" y="1308" on="0"/>
        <pt x="389" y="1208" on="1"/>
        <pt x="389" y="1165" on="0"/>
        <pt x="393" y="1078" on="0"/>
        <pt x="393" y="1034" on="1"/>
        <pt x="393" y="946" on="0"/>
        <pt x="374" y="801" on="0"/>
        <pt x="318" y="682" on="0"/>
        <pt x="219" y="584" on="0"/>
        <pt x="139" y="543" on="1"/>
        <pt x="212" y="507" on="0"/>
        <pt x="299" y="420" on="0"/>
        <pt x="346" y="322" on="0"/>
        <pt x="360" y="215" on="0"/>
        <pt x="360" y="158" on="1"/>
        <pt x="360" y="119" on="0"/>
        <pt x="354" y="43" on="0"/>
        <pt x="348" y="-35" on="0"/>
        <pt x="342" y="-118" on="0"/>
        <pt x="342" y="-166" on="1"/>
        <pt x="342" y="-214" on="0"/>
        <pt x="370" y="-284" on="0"/>
        <pt x="413" y="-331" on="0"/>
        <pt x="465" y="-359" on="0"/>
        <pt x="489" y="-365" on="1"/>
        <pt x="479" y="-416" on="1"/>
        <pt x="387" y="-401" on="0"/>
        <pt x="276" y="-330" on="0"/>
        <pt x="216" y="-236" on="0"/>
        <pt x="197" y="-128" on="0"/>
        <pt x="197" y="-76" on="1"/>
        <pt x="197" y="-10" on="0"/>
        <pt x="211" y="121" on="0"/>
        <pt x="211" y="193" on="1"/>
        <pt x="211" y="235" on="0"/>
        <pt x="200" y="339" on="0"/>
        <pt x="164" y="433" on="0"/>
        <pt x="93" y="503" on="0"/>
        <pt x="33" y="512" on="1"/>
        <pt x="35" y="573" on="1"/>
        <pt x="82" y="580" on="0"/>
        <pt x="150" y="625" on="0"/>
        <pt x="195" y="690" on="0"/>
        <pt x="221" y="768" on="0"/>
        <pt x="234" y="846" on="0"/>
        <pt x="238" y="916" on="0"/>
        <pt x="238" y="942" on="1"/>
        <pt x="238" y="1092" on="1"/>
        <pt x="238" y="1129" on="0"/>
        <pt x="243" y="1211" on="0"/>
        <pt x="264" y="1294" on="0"/>
        <pt x="303" y="1373" on="0"/>
        <pt x="372" y="1439" on="0"/>
        <pt x="474" y="1489" on="0"/>
        <pt x="547" y="1501" on="1"/>
      </contour>
    </TTGlyph>
    <TTGlyph name="braceright" xMin="10" yMin="-416" xMax="530" yMax="1501">
      <contour>
        <pt x="10" y="-365" on="1"/>
        <pt x="85" y="-348" on="0"/>
        <pt x="174" y="-223" on="0"/>
        <pt x="174" y="-123" on="1"/>
        <pt x="174" y="-80" on="0"/>
        <pt x="170" y="8" on="0"/>
        <pt x="170" y="51" on="1"/>
        <pt x="170" y="139" on="0"/>
        <pt x="189" y="284" on="0"/>
        <pt x="245" y="404" on="0"/>
        <pt x="344" y="501" on="0"/>
        <pt x="424" y="543" on="1"/>
        <pt x="351" y="579" on="0"/>
        <pt x="264" y="666" on="0"/>
        <pt x="217" y="763" on="0"/>
        <pt x="203" y="871" on="0"/>
        <pt x="203" y="928" on="1"/>
        <pt x="203" y="967" on="0"/>
        <pt x="209" y="1042" on="0"/>
        <pt x="215" y="1120" on="0"/>
        <pt x="221" y="1203" on="0"/>
        <pt x="221" y="1251" on="1"/>
        <pt x="221" y="1299" on="0"/>
        <pt x="193" y="1369" on="0"/>
        <pt x="150" y="1417" on="0"/>
        <pt x="98" y="1444" on="0"/>
        <pt x="74" y="1450" on="1"/>
        <pt x="84" y="1501" on="1"/>
        <pt x="176" y="1486" on="0"/>
        <pt x="288" y="1415" on="0"/>
        <pt x="348" y="1321" on="0"/>
        <pt x="367" y="1213" on="0"/>
        <pt x="367" y="1161" on="1"/>
        <pt x="367" y="1095" on="0"/>
        <pt x="352" y="964" on="0"/>
        <pt x="352" y="893" on="1"/>
        <pt x="352" y="851" on="0"/>
        <pt x="363" y="746" on="0"/>
        <pt x="400" y="652" on="0"/>
        <pt x="470" y="582" on="0"/>
        <pt x="530" y="573" on="1"/>
        <pt x="528" y="512" on="1"/>
        <pt x="481" y="505" on="0"/>
        <pt x="414" y="460" on="0"/>
        <pt x="369" y="395" on="0"/>
        <pt x="343" y="317" on="0"/>
        <pt x="330" y="240" on="0"/>
        <pt x="326" y="169" on="0"/>
        <pt x="326" y="143" on="1"/>
        <pt x="326" y="-6" on="1"/>
        <pt x="326" y="-43" on="0"/>
        <pt x="320" y="-126" on="0"/>
        <pt x="300" y="-209" on="0"/>
        <pt x="260" y="-288" on="0"/>
        <pt x="191" y="-354" on="0"/>
        <pt x="89" y="-404" on="0"/>
        <pt x="16" y="-416" on="1"/>
      </contour>
    </TTGlyph>
    <TTGlyph name="bracketleft" xMin="131" yMin="-356" xMax="545" yMax="1473">
      <contour>
        <pt x="481" y="-356" on="1"/>
        <pt x="131" y="-356" on="1"/>
        <pt x="195" y="1473" on="1"/>
        <pt x="545" y="1473" on="1"/>
        <pt x="543" y="1403" on="1"/>
        <pt x="315" y="1403" on="1"/>
        <pt x="256" y="-287" on="1"/>
        <pt x="483" y="-287" on="1"/>
      </contour>
    </TTGlyph>
    <TTGlyph name="bracketright" xMin="-6" yMin="-356" xMax="408" yMax="1473">
      <contour>
        <pt x="223" y="-287" on="1"/>
        <pt x="283" y="1403" on="1"/>
        <pt x="55" y="1403" on="1"/>
        <pt x="57" y="1473" on="1"/>
        <pt x="408" y="1473" on="1"/>
        <pt x="344" y="-356" on="1"/>
        <pt x="-6" y="-356" on="1"/>
        <pt x="-4" y="-287" on="1"/>
      </contour>
    </TTGlyph>
    <TTGlyph name="brokenbar" xMin="176" yMin="-401" xMax="274" yMax="1554">
      <contour>
        <pt x="176" y="1554" on="1"/>
        <pt x="274" y="1554" on="1"/>
        <pt x="274" y="858" on="1"/>
        <pt x="176" y="858" on="1"/>
      </contour>
      <contour>
        <pt x="176" y="295" on="1"/>
        <pt x="274" y="295" on="1"/>
        <pt x="274" y="-401" on="1"/>
        <pt x="176" y="-401" on="1"/>
      </contour>
    </TTGlyph>
    <TTGlyph name="bullet" xMin="162" yMin="524" xMax="506" yMax="868">
      <contour>
        <pt x="162" y="696" on="1"/>
        <pt x="162" y="732" on="0"/>
        <pt x="189" y="795" on="0"/>
        <pt x="235" y="842" on="0"/>
        <pt x="298" y="868" on="0"/>
        <pt x="334" y="868" on="1"/>
        <pt x="370" y="868" on="0"/>
        <pt x="433" y="842" on="0"/>
        <pt x="479" y="795" on="0"/>
        <pt x="506" y="732" on="0"/>
        <pt x="506" y="696" on="1"/>
        <pt x="506" y="660" on="0"/>
        <pt x="479" y="597" on="0"/>
        <pt x="433" y="551" on="0"/>
        <pt x="370" y="524" on="0"/>
        <pt x="334" y="524" on="1"/>
        <pt x="298" y="524" on="0"/>
        <pt x="235" y="551" on="0"/>
        <pt x="189" y="597" on="0"/>
        <pt x="162" y="660" on="0"/>
      </contour>
    </TTGlyph>
    <TTGlyph name="c" xMin="70" yMin="-20" xMax="850" yMax="897">
      <contour>
        <pt x="844" y="160" on="1"/>
        <pt x="735" y="66" on="0"/>
        <pt x="529" y="-20" on="0"/>
        <pt x="432" y="-20" on="1"/>
        <pt x="344" y="-20" on="0"/>
        <pt x="209" y="43" on="0"/>
        <pt x="117" y="151" on="0"/>
        <pt x="70" y="297" on="0"/>
        <pt x="70" y="381" on="1"/>
        <pt x="70" y="484" on="0"/>
        <pt x="141" y="672" on="0"/>
        <pt x="273" y="813" on="0"/>
        <pt x="461" y="897" on="0"/>
        <pt x="578" y="897" on="1"/>
        <pt x="639" y="897" on="0"/>
        <pt x="739" y="871" on="0"/>
        <pt x="811" y="829" on="0"/>
        <pt x="850" y="773" on="0"/>
        <pt x="850" y="743" on="1"/>
        <pt x="850" y="721" on="0"/>
        <pt x="831" y="685" on="0"/>
        <pt x="799" y="660" on="0"/>
        <pt x="756" y="644" on="0"/>
        <pt x="733" y="643" on="1"/>
        <pt x="730" y="674" on="0"/>
        <pt x="703" y="742" on="0"/>
        <pt x="648" y="798" on="0"/>
        <pt x="563" y="834" on="0"/>
        <pt x="502" y="834" on="1"/>
        <pt x="449" y="834" on="0"/>
        <pt x="344" y="789" on="0"/>
        <pt x="260" y="696" on="0"/>
        <pt x="207" y="554" on="0"/>
        <pt x="207" y="457" on="1"/>
        <pt x="207" y="368" on="0"/>
        <pt x="253" y="234" on="0"/>
        <pt x="338" y="142" on="0"/>
        <pt x="456" y="96" on="0"/>
        <pt x="528" y="96" on="1"/>
        <pt x="555" y="96" on="0"/>
        <pt x="619" y="103" on="0"/>
        <pt x="691" y="125" on="0"/>
        <pt x="771" y="165" on="0"/>
        <pt x="815" y="199" on="1"/>
      </contour>
    </TTGlyph>
    <TTGlyph name="caron" xMin="266" yMin="1133" xMax="944" yMax="1544">
      <contour>
        <pt x="905" y="1544" on="1"/>
        <pt x="944" y="1503" on="1"/>
        <pt x="592" y="1133" on="1"/>
        <pt x="266" y="1503" on="1"/>
        <pt x="309" y="1544" on="1"/>
        <pt x="598" y="1300" on="1"/>
      </contour>
    </TTGlyph>
    <TTGlyph name="caron.case" xMin="307" yMin="1546" xMax="985" yMax="1892">
      <contour>
        <pt x="946" y="1892" on="1"/>
        <pt x="985" y="1851" on="1"/>
        <pt x="635" y="1546" on="1"/>
        <pt x="307" y="1851" on="1"/>
        <pt x="350" y="1892" on="1"/>
        <pt x="641" y="1714" on="1"/>
      </contour>
    </TTGlyph>
    <TTGlyph name="ccedilla" xMin="70" yMin="-440" xMax="850" yMax="897">
      <contour>
        <pt x="369" y="-160" on="1"/>
        <pt x="375" y="-147" on="0"/>
        <pt x="390" y="-113" on="0"/>
        <pt x="407" y="-75" on="0"/>
        <pt x="423" y="-37" on="0"/>
        <pt x="429" y="-20" on="1"/>
        <pt x="342" y="-19" on="0"/>
        <pt x="208" y="44" on="0"/>
        <pt x="117" y="152" on="0"/>
        <pt x="70" y="298" on="0"/>
        <pt x="70" y="381" on="1"/>
        <pt x="70" y="484" on="0"/>
        <pt x="141" y="672" on="0"/>
        <pt x="273" y="813" on="0"/>
        <pt x="461" y="897" on="0"/>
        <pt x="578" y="897" on="1"/>
        <pt x="639" y="897" on="0"/>
        <pt x="739" y="871" on="0"/>
        <pt x="811" y="829" on="0"/>
        <pt x="850" y="773" on="0"/>
        <pt x="850" y="743" on="1"/>
        <pt x="850" y="721" on="0"/>
        <pt x="831" y="685" on="0"/>
        <pt x="799" y="660" on="0"/>
        <pt x="756" y="644" on="0"/>
        <pt x="733" y="643" on="1"/>
        <pt x="730" y="674" on="0"/>
        <pt x="703" y="742" on="0"/>
        <pt x="648" y="798" on="0"/>
        <pt x="563" y="834" on="0"/>
        <pt x="502" y="834" on="1"/>
        <pt x="449" y="834" on="0"/>
        <pt x="344" y="789" on="0"/>
        <pt x="260" y="696" on="0"/>
        <pt x="207" y="554" on="0"/>
        <pt x="207" y="457" on="1"/>
        <pt x="207" y="368" on="0"/>
        <pt x="253" y="234" on="0"/>
        <pt x="338" y="142" on="0"/>
        <pt x="456" y="96" on="0"/>
        <pt x="528" y="96" on="1"/>
        <pt x="555" y="96" on="0"/>
        <pt x="619" y="103" on="0"/>
        <pt x="691" y="125" on="0"/>
        <pt x="771" y="165" on="0"/>
        <pt x="815" y="199" on="1"/>
        <pt x="844" y="160" on="1"/>
        <pt x="752" y="80" on="0"/>
        <pt x="576" y="-5" on="0"/>
        <pt x="491" y="-16" on="1"/>
        <pt x="473" y="-66" on="1"/>
        <pt x="554" y="-80" on="0"/>
        <pt x="641" y="-170" on="0"/>
        <pt x="641" y="-233" on="1"/>
        <pt x="641" y="-272" on="0"/>
        <pt x="605" y="-347" on="0"/>
        <pt x="542" y="-405" on="0"/>
        <pt x="453" y="-440" on="0"/>
        <pt x="401" y="-440" on="1"/>
        <pt x="352" y="-440" on="0"/>
        <pt x="305" y="-391" on="0"/>
        <pt x="305" y="-362" on="1"/>
        <pt x="305" y="-332" on="0"/>
        <pt x="328" y="-309" on="1"/>
        <pt x="336" y="-315" on="0"/>
        <pt x="369" y="-333" on="0"/>
        <pt x="411" y="-350" on="0"/>
        <pt x="458" y="-362" on="0"/>
        <pt x="479" y="-362" on="1"/>
        <pt x="497" y="-362" on="0"/>
        <pt x="533" y="-351" on="0"/>
        <pt x="560" y="-330" on="0"/>
        <pt x="577" y="-300" on="0"/>
        <pt x="577" y="-281" on="1"/>
        <pt x="577" y="-244" on="0"/>
        <pt x="546" y="-197" on="0"/>
        <pt x="491" y="-170" on="0"/>
        <pt x="415" y="-160" on="0"/>
      </contour>
    </TTGlyph>
    <TTGlyph name="cedilla" xMin="303" yMin="-440" xMax="639" yMax="18">
      <contour>
        <pt x="367" y="-160" on="1"/>
        <pt x="375" y="-143" on="0"/>
        <pt x="397" y="-93" on="0"/>
        <pt x="419" y="-41" on="0"/>
        <pt x="436" y="5" on="0"/>
        <pt x="440" y="18" on="1"/>
        <pt x="502" y="18" on="1"/>
        <pt x="471" y="-66" on="1"/>
        <pt x="552" y="-80" on="0"/>
        <pt x="639" y="-170" on="0"/>
        <pt x="639" y="-233" on="1"/>
        <pt x="639" y="-272" on="0"/>
        <pt x="603" y="-347" on="0"/>
        <pt x="540" y="-405" on="0"/>
        <pt x="451" y="-440" on="0"/>
        <pt x="399" y="-440" on="1"/>
        <pt x="350" y="-440" on="0"/>
        <pt x="303" y="-391" on="0"/>
        <pt x="303" y="-362" on="1"/>
        <pt x="303" y="-332" on="0"/>
        <pt x="326" y="-309" on="1"/>
        <pt x="334" y="-315" on="0"/>
        <pt x="367" y="-333" on="0"/>
        <pt x="409" y="-350" on="0"/>
        <pt x="456" y="-362" on="0"/>
        <pt x="477" y="-362" on="1"/>
        <pt x="495" y="-362" on="0"/>
        <pt x="531" y="-351" on="0"/>
        <pt x="558" y="-330" on="0"/>
        <pt x="575" y="-300" on="0"/>
        <pt x="575" y="-281" on="1"/>
        <pt x="575" y="-244" on="0"/>
        <pt x="544" y="-197" on="0"/>
        <pt x="489" y="-170" on="0"/>
        <pt x="413" y="-160" on="0"/>
      </contour>
    </TTGlyph>
    <TTGlyph name="cent" xMin="82" yMin="-221" xMax="864" yMax="1100">
      <contour>
        <pt x="441" y="-20" on="1"/>
        <pt x="354" y="-19" on="0"/>
        <pt x="220" y="44" on="0"/>
        <pt x="129" y="152" on="0"/>
        <pt x="82" y="298" on="0"/>
        <pt x="82" y="381" on="1"/>
        <pt x="82" y="470" on="0"/>
        <pt x="136" y="635" on="0"/>
        <pt x="236" y="769" on="0"/>
        <pt x="381" y="864" on="0"/>
        <pt x="471" y="884" on="1"/>
        <pt x="479" y="1100" on="1"/>
        <pt x="549" y="1100" on="1"/>
        <pt x="541" y="894" on="1"/>
        <pt x="566" y="897" on="0"/>
        <pt x="592" y="897" on="1"/>
        <pt x="653" y="897" on="0"/>
        <pt x="754" y="871" on="0"/>
        <pt x="825" y="829" on="0"/>
        <pt x="864" y="773" on="0"/>
        <pt x="864" y="743" on="1"/>
        <pt x="864" y="721" on="0"/>
        <pt x="845" y="685" on="0"/>
        <pt x="813" y="660" on="0"/>
        <pt x="771" y="644" on="0"/>
        <pt x="748" y="643" on="1"/>
        <pt x="745" y="673" on="0"/>
        <pt x="719" y="738" on="0"/>
        <pt x="670" y="793" on="0"/>
        <pt x="593" y="831" on="0"/>
        <pt x="539" y="835" on="1"/>
        <pt x="513" y="99" on="1"/>
        <pt x="521" y="98" on="0"/>
        <pt x="535" y="98" on="0"/>
        <pt x="543" y="98" on="1"/>
        <pt x="570" y="98" on="0"/>
        <pt x="633" y="104" on="0"/>
        <pt x="705" y="125" on="0"/>
        <pt x="785" y="165" on="0"/>
        <pt x="829" y="199" on="1"/>
        <pt x="858" y="160" on="1"/>
        <pt x="767" y="81" on="0"/>
        <pt x="593" y="-4" on="0"/>
        <pt x="509" y="-15" on="1"/>
        <pt x="502" y="-221" on="1"/>
        <pt x="434" y="-221" on="1"/>
      </contour>
      <contour>
        <pt x="221" y="457" on="1"/>
        <pt x="221" y="311" on="0"/>
        <pt x="342" y="136" on="0"/>
        <pt x="445" y="109" on="1"/>
        <pt x="469" y="831" on="1"/>
        <pt x="422" y="822" on="0"/>
        <pt x="333" y="769" on="0"/>
        <pt x="263" y="677" on="0"/>
        <pt x="221" y="544" on="0"/>
      </contour>
    </TTGlyph>
    <TTGlyph name="circumflex" xMin="307" yMin="1133" xMax="985" yMax="1544">
      <contour>
        <pt x="346" y="1133" on="1"/>
        <pt x="307" y="1174" on="1"/>
        <pt x="659" y="1544" on="1"/>
        <pt x="985" y="1174" on="1"/>
        <pt x="942" y="1133" on="1"/>
        <pt x="653" y="1376" on="1"/>
      </contour>
    </TTGlyph>
    <TTGlyph name="circumflex.case" xMin="307" yMin="1546" xMax="985" yMax="1892">
      <contour>
        <pt x="346" y="1546" on="1"/>
        <pt x="307" y="1587" on="1"/>
        <pt x="657" y="1892" on="1"/>
        <pt x="985" y="1587" on="1"/>
        <pt x="942" y="1546" on="1"/>
        <pt x="651" y="1724" on="1"/>
      </contour>
    </TTGlyph>
    <TTGlyph name="colon" xMin="106" yMin="-20" xMax="334" yMax="897">
      <contour>
        <pt x="231" y="676" on="1"/>
        <pt x="189" y="676" on="0"/>
        <pt x="133" y="728" on="0"/>
        <pt x="133" y="782" on="1"/>
        <pt x="133" y="805" on="0"/>
        <pt x="147" y="847" on="0"/>
        <pt x="174" y="878" on="0"/>
        <pt x="213" y="897" on="0"/>
        <pt x="238" y="897" on="1"/>
        <pt x="278" y="897" on="0"/>
        <pt x="334" y="843" on="0"/>
        <pt x="334" y="791" on="1"/>
        <pt x="334" y="768" on="0"/>
        <pt x="320" y="726" on="0"/>
        <pt x="294" y="694" on="0"/>
        <pt x="256" y="676" on="0"/>
      </contour>
      <contour>
        <pt x="205" y="-20" on="1"/>
        <pt x="163" y="-20" on="0"/>
        <pt x="106" y="32" on="0"/>
        <pt x="106" y="86" on="1"/>
        <pt x="106" y="109" on="0"/>
        <pt x="120" y="151" on="0"/>
        <pt x="147" y="182" on="0"/>
        <pt x="186" y="201" on="0"/>
        <pt x="211" y="201" on="1"/>
        <pt x="251" y="201" on="0"/>
        <pt x="307" y="147" on="0"/>
        <pt x="307" y="94" on="1"/>
        <pt x="307" y="71" on="0"/>
        <pt x="293" y="30" on="0"/>
        <pt x="267" y="-2" on="0"/>
        <pt x="229" y="-20" on="0"/>
      </contour>
    </TTGlyph>
    <TTGlyph name="comma" xMin="61" yMin="-313" xMax="319" yMax="199">
      <contour>
        <pt x="61" y="-270" on="1"/>
        <pt x="87" y="-252" on="0"/>
        <pt x="137" y="-208" on="0"/>
        <pt x="176" y="-157" on="0"/>
        <pt x="199" y="-100" on="0"/>
        <pt x="199" y="-68" on="1"/>
        <pt x="199" y="-35" on="0"/>
        <pt x="178" y="17" on="0"/>
        <pt x="144" y="56" on="0"/>
        <pt x="101" y="84" on="0"/>
        <pt x="80" y="92" on="1"/>
        <pt x="80" y="110" on="0"/>
        <pt x="93" y="147" on="0"/>
        <pt x="120" y="179" on="0"/>
        <pt x="162" y="199" on="0"/>
        <pt x="190" y="199" on="1"/>
        <pt x="214" y="199" on="0"/>
        <pt x="260" y="181" on="0"/>
        <pt x="297" y="142" on="0"/>
        <pt x="319" y="80" on="0"/>
        <pt x="319" y="37" on="1"/>
        <pt x="319" y="0" on="0"/>
        <pt x="298" y="-87" on="0"/>
        <pt x="246" y="-179" on="0"/>
        <pt x="159" y="-271" on="0"/>
        <pt x="92" y="-313" on="1"/>
      </contour>
    </TTGlyph>
    <TTGlyph name="copyright" xMin="92" yMin="-37" xMax="1559" yMax="1430">
      <contour>
        <pt x="162" y="696" on="1"/>
        <pt x="162" y="605" on="0"/>
        <pt x="210" y="436" on="0"/>
        <pt x="296" y="289" on="0"/>
        <pt x="418" y="167" on="0"/>
        <pt x="565" y="81" on="0"/>
        <pt x="734" y="33" on="0"/>
        <pt x="825" y="33" on="1"/>
        <pt x="916" y="33" on="0"/>
        <pt x="1086" y="81" on="0"/>
        <pt x="1233" y="167" on="0"/>
        <pt x="1355" y="289" on="0"/>
        <pt x="1441" y="436" on="0"/>
        <pt x="1489" y="605" on="0"/>
        <pt x="1489" y="696" on="1"/>
        <pt x="1489" y="787" on="0"/>
        <pt x="1441" y="957" on="0"/>
        <pt x="1355" y="1104" on="0"/>
        <pt x="1233" y="1226" on="0"/>
        <pt x="1086" y="1312" on="0"/>
        <pt x="916" y="1360" on="0"/>
        <pt x="825" y="1360" on="1"/>
        <pt x="734" y="1360" on="0"/>
        <pt x="565" y="1312" on="0"/>
        <pt x="418" y="1226" on="0"/>
        <pt x="296" y="1104" on="0"/>
        <pt x="210" y="957" on="0"/>
        <pt x="162" y="787" on="0"/>
      </contour>
      <contour>
        <pt x="92" y="696" on="1"/>
        <pt x="92" y="797" on="0"/>
        <pt x="144" y="985" on="0"/>
        <pt x="240" y="1148" on="0"/>
        <pt x="374" y="1282" on="0"/>
        <pt x="536" y="1378" on="0"/>
        <pt x="724" y="1430" on="0"/>
        <pt x="825" y="1430" on="1"/>
        <pt x="926" y="1430" on="0"/>
        <pt x="1114" y="1378" on="0"/>
        <pt x="1277" y="1282" on="0"/>
        <pt x="1411" y="1148" on="0"/>
        <pt x="1507" y="985" on="0"/>
        <pt x="1559" y="797" on="0"/>
        <pt x="1559" y="696" on="1"/>
        <pt x="1559" y="595" on="0"/>
        <pt x="1507" y="407" on="0"/>
        <pt x="1411" y="245" on="0"/>
        <pt x="1277" y="111" on="0"/>
        <pt x="1114" y="15" on="0"/>
        <pt x="926" y="-37" on="0"/>
        <pt x="825" y="-37" on="1"/>
        <pt x="673" y="-37" on="0"/>
        <pt x="406" y="78" on="0"/>
        <pt x="207" y="277" on="0"/>
        <pt x="92" y="544" on="0"/>
      </contour>
      <contour>
        <pt x="877" y="1067" on="1"/>
        <pt x="807" y="1067" on="0"/>
        <pt x="678" y="1023" on="0"/>
        <pt x="580" y="936" on="0"/>
        <pt x="522" y="809" on="0"/>
        <pt x="522" y="725" on="1"/>
        <pt x="522" y="629" on="0"/>
        <pt x="589" y="489" on="0"/>
        <pt x="696" y="398" on="0"/>
        <pt x="830" y="354" on="0"/>
        <pt x="897" y="354" on="1"/>
        <pt x="924" y="354" on="0"/>
        <pt x="971" y="356" on="0"/>
        <pt x="1017" y="362" on="0"/>
        <pt x="1068" y="374" on="0"/>
        <pt x="1100" y="383" on="1"/>
        <pt x="1118" y="326" on="1"/>
        <pt x="1086" y="311" on="0"/>
        <pt x="1015" y="290" on="0"/>
        <pt x="944" y="277" on="0"/>
        <pt x="879" y="272" on="0"/>
        <pt x="854" y="272" on="1"/>
        <pt x="757" y="272" on="0"/>
        <pt x="589" y="333" on="0"/>
        <pt x="464" y="443" on="0"/>
        <pt x="393" y="595" on="0"/>
        <pt x="393" y="686" on="1"/>
        <pt x="393" y="786" on="0"/>
        <pt x="469" y="951" on="0"/>
        <pt x="600" y="1069" on="0"/>
        <pt x="777" y="1133" on="0"/>
        <pt x="879" y="1133" on="1"/>
        <pt x="967" y="1133" on="0"/>
        <pt x="1100" y="1112" on="0"/>
        <pt x="1151" y="1098" on="1"/>
        <pt x="1135" y="901" on="1"/>
        <pt x="1073" y="901" on="1"/>
        <pt x="1073" y="909" on="1"/>
        <pt x="1073" y="937" on="0"/>
        <pt x="1059" y="993" on="0"/>
        <pt x="1017" y="1038" on="0"/>
        <pt x="940" y="1067" on="0"/>
      </contour>
    </TTGlyph>
    <TTGlyph name="currency" xMin="109" yMin="63" xMax="1395" yMax="1350">
      <contour>
        <pt x="178" y="696" on="1"/>
        <pt x="178" y="803" on="0"/>
        <pt x="250" y="996" on="0"/>
        <pt x="315" y="1073" on="1"/>
        <pt x="109" y="1280" on="1"/>
        <pt x="178" y="1350" on="1"/>
        <pt x="385" y="1143" on="1"/>
        <pt x="459" y="1206" on="0"/>
        <pt x="642" y="1280" on="0"/>
        <pt x="745" y="1280" on="1"/>
        <pt x="852" y="1280" on="0"/>
        <pt x="1043" y="1206" on="0"/>
        <pt x="1118" y="1143" on="1"/>
        <pt x="1325" y="1350" on="1"/>
        <pt x="1395" y="1280" on="1"/>
        <pt x="1186" y="1071" on="1"/>
        <pt x="1251" y="994" on="0"/>
        <pt x="1325" y="803" on="0"/>
        <pt x="1325" y="696" on="1"/>
        <pt x="1325" y="594" on="0"/>
        <pt x="1256" y="409" on="0"/>
        <pt x="1194" y="334" on="1"/>
        <pt x="1395" y="133" on="1"/>
        <pt x="1325" y="63" on="1"/>
        <pt x="1126" y="262" on="1"/>
        <pt x="1049" y="194" on="0"/>
        <pt x="855" y="119" on="0"/>
        <pt x="745" y="119" on="1"/>
        <pt x="639" y="119" on="0"/>
        <pt x="450" y="194" on="0"/>
        <pt x="375" y="260" on="1"/>
        <pt x="178" y="63" on="1"/>
        <pt x="109" y="133" on="1"/>
        <pt x="307" y="332" on="1"/>
        <pt x="247" y="407" on="0"/>
        <pt x="178" y="593" on="0"/>
      </contour>
      <contour>
        <pt x="276" y="705" on="1"/>
        <pt x="276" y="606" on="0"/>
        <pt x="351" y="429" on="0"/>
        <pt x="480" y="296" on="0"/>
        <pt x="652" y="219" on="0"/>
        <pt x="750" y="219" on="1"/>
        <pt x="849" y="219" on="0"/>
        <pt x="1023" y="296" on="0"/>
        <pt x="1152" y="429" on="0"/>
        <pt x="1227" y="606" on="0"/>
        <pt x="1227" y="705" on="1"/>
        <pt x="1227" y="805" on="0"/>
        <pt x="1152" y="983" on="0"/>
        <pt x="1023" y="1117" on="0"/>
        <pt x="849" y="1194" on="0"/>
        <pt x="750" y="1194" on="1"/>
        <pt x="652" y="1194" on="0"/>
        <pt x="480" y="1117" on="0"/>
        <pt x="351" y="983" on="0"/>
        <pt x="276" y="805" on="0"/>
      </contour>
    </TTGlyph>
    <TTGlyph name="d" xMin="70" yMin="-33" xMax="1047" yMax="1554">
      <contour>
        <pt x="776" y="1264" on="1"/>
        <pt x="776" y="1323" on="0"/>
        <pt x="765" y="1397" on="0"/>
        <pt x="733" y="1439" on="0"/>
        <pt x="676" y="1454" on="0"/>
        <pt x="631" y="1454" on="1"/>
        <pt x="594" y="1454" on="1"/>
        <pt x="594" y="1501" on="1"/>
        <pt x="642" y="1503" on="0"/>
        <pt x="727" y="1512" on="0"/>
        <pt x="809" y="1525" on="0"/>
        <pt x="892" y="1543" on="0"/>
        <pt x="938" y="1554" on="1"/>
        <pt x="931" y="1498" on="0"/>
        <pt x="914" y="1315" on="0"/>
        <pt x="898" y="1090" on="0"/>
        <pt x="883" y="838" on="0"/>
        <pt x="871" y="591" on="0"/>
        <pt x="864" y="362" on="0"/>
        <pt x="864" y="272" on="1"/>
        <pt x="864" y="218" on="0"/>
        <pt x="872" y="135" on="0"/>
        <pt x="904" y="77" on="0"/>
        <pt x="968" y="47" on="0"/>
        <pt x="1024" y="47" on="1"/>
        <pt x="1047" y="47" on="1"/>
        <pt x="1047" y="0" on="1"/>
        <pt x="988" y="-2" on="0"/>
        <pt x="894" y="-6" on="0"/>
        <pt x="816" y="-12" on="0"/>
        <pt x="750" y="-23" on="0"/>
        <pt x="719" y="-33" on="1"/>
        <pt x="723" y="-15" on="0"/>
        <pt x="732" y="37" on="0"/>
        <pt x="741" y="94" on="0"/>
        <pt x="748" y="149" on="0"/>
        <pt x="750" y="170" on="1"/>
        <pt x="649" y="82" on="0"/>
        <pt x="467" y="-20" on="0"/>
        <pt x="383" y="-20" on="1"/>
        <pt x="315" y="-20" on="0"/>
        <pt x="201" y="29" on="0"/>
        <pt x="117" y="126" on="0"/>
        <pt x="70" y="270" on="0"/>
        <pt x="70" y="365" on="1"/>
        <pt x="70" y="446" on="0"/>
        <pt x="111" y="587" on="0"/>
        <pt x="182" y="706" on="0"/>
        <pt x="277" y="799" on="0"/>
        <pt x="385" y="863" on="0"/>
        <pt x="501" y="897" on="0"/>
        <pt x="557" y="897" on="1"/>
        <pt x="617" y="897" on="0"/>
        <pt x="714" y="880" on="0"/>
        <pt x="764" y="866" on="1"/>
        <pt x="766" y="916" on="0"/>
        <pt x="771" y="1022" on="0"/>
        <pt x="774" y="1126" on="0"/>
        <pt x="776" y="1223" on="0"/>
      </contour>
      <contour>
        <pt x="459" y="86" on="1"/>
        <pt x="495" y="86" on="0"/>
        <pt x="564" y="108" on="0"/>
        <pt x="630" y="145" on="0"/>
        <pt x="693" y="193" on="0"/>
        <pt x="723" y="219" on="1"/>
        <pt x="732" y="338" on="0"/>
        <pt x="750" y="608" on="0"/>
        <pt x="758" y="766" on="1"/>
        <pt x="735" y="782" on="0"/>
        <pt x="687" y="810" on="0"/>
        <pt x="634" y="830" on="0"/>
        <pt x="572" y="842" on="0"/>
        <pt x="535" y="842" on="1"/>
        <pt x="470" y="842" on="0"/>
        <pt x="355" y="782" on="0"/>
        <pt x="269" y="670" on="0"/>
        <pt x="219" y="511" on="0"/>
        <pt x="219" y="412" on="1"/>
        <pt x="219" y="321" on="0"/>
        <pt x="262" y="197" on="0"/>
        <pt x="330" y="120" on="0"/>
        <pt x="416" y="86" on="0"/>
      </contour>
    </TTGlyph>
    <TTGlyph name="degree" xMin="96" yMin="999" xMax="530" yMax="1434">
      <contour>
        <pt x="174" y="1217" on="1"/>
        <pt x="174" y="1187" on="0"/>
        <pt x="195" y="1136" on="0"/>
        <pt x="232" y="1098" on="0"/>
        <pt x="283" y="1077" on="0"/>
        <pt x="313" y="1077" on="1"/>
        <pt x="343" y="1077" on="0"/>
        <pt x="394" y="1098" on="0"/>
        <pt x="432" y="1136" on="0"/>
        <pt x="452" y="1187" on="0"/>
        <pt x="452" y="1217" on="1"/>
        <pt x="452" y="1247" on="0"/>
        <pt x="432" y="1297" on="0"/>
        <pt x="394" y="1335" on="0"/>
        <pt x="343" y="1356" on="0"/>
        <pt x="313" y="1356" on="1"/>
        <pt x="283" y="1356" on="0"/>
        <pt x="232" y="1335" on="0"/>
        <pt x="195" y="1297" on="0"/>
        <pt x="174" y="1247" on="0"/>
      </contour>
      <contour>
        <pt x="96" y="1217" on="1"/>
        <pt x="96" y="1263" on="0"/>
        <pt x="129" y="1342" on="0"/>
        <pt x="188" y="1400" on="0"/>
        <pt x="267" y="1434" on="0"/>
        <pt x="313" y="1434" on="1"/>
        <pt x="359" y="1434" on="0"/>
        <pt x="438" y="1400" on="0"/>
        <pt x="497" y="1342" on="0"/>
        <pt x="530" y="1263" on="0"/>
        <pt x="530" y="1217" on="1"/>
        <pt x="530" y="1171" on="0"/>
        <pt x="497" y="1091" on="0"/>
        <pt x="438" y="1033" on="0"/>
        <pt x="359" y="999" on="0"/>
        <pt x="313" y="999" on="1"/>
        <pt x="267" y="999" on="0"/>
        <pt x="188" y="1033" on="0"/>
        <pt x="129" y="1091" on="0"/>
        <pt x="96" y="1171" on="0"/>
      </contour>
    </TTGlyph>
    <TTGlyph name="dieresis" xMin="307" yMin="1128" xMax="874" yMax="1350">
      <contour>
        <pt x="403" y="1128" on="1"/>
        <pt x="363" y="1128" on="0"/>
        <pt x="307" y="1181" on="0"/>
        <pt x="307" y="1235" on="1"/>
        <pt x="307" y="1258" on="0"/>
        <pt x="321" y="1300" on="0"/>
        <pt x="348" y="1331" on="0"/>
        <pt x="386" y="1350" on="0"/>
        <pt x="410" y="1350" on="1"/>
        <pt x="448" y="1350" on="0"/>
        <pt x="504" y="1296" on="0"/>
        <pt x="504" y="1243" on="1"/>
        <pt x="504" y="1220" on="0"/>
        <pt x="490" y="1178" on="0"/>
        <pt x="465" y="1147" on="0"/>
        <pt x="427" y="1128" on="0"/>
      </contour>
      <contour>
        <pt x="774" y="1128" on="1"/>
        <pt x="734" y="1128" on="0"/>
        <pt x="678" y="1181" on="0"/>
        <pt x="678" y="1235" on="1"/>
        <pt x="678" y="1258" on="0"/>
        <pt x="692" y="1300" on="0"/>
        <pt x="719" y="1331" on="0"/>
        <pt x="756" y="1350" on="0"/>
        <pt x="780" y="1350" on="1"/>
        <pt x="818" y="1350" on="0"/>
        <pt x="874" y="1296" on="0"/>
        <pt x="874" y="1243" on="1"/>
        <pt x="874" y="1220" on="0"/>
        <pt x="861" y="1178" on="0"/>
        <pt x="835" y="1147" on="0"/>
        <pt x="798" y="1128" on="0"/>
      </contour>
    </TTGlyph>
    <TTGlyph name="dieresis.case" xMin="307" yMin="1546" xMax="872" yMax="1763">
      <contour>
        <pt x="676" y="1661" on="1"/>
        <pt x="676" y="1688" on="0"/>
        <pt x="693" y="1727" on="0"/>
        <pt x="720" y="1751" on="0"/>
        <pt x="756" y="1763" on="0"/>
        <pt x="774" y="1763" on="1"/>
        <pt x="792" y="1763" on="0"/>
        <pt x="828" y="1751" on="0"/>
        <pt x="855" y="1727" on="0"/>
        <pt x="872" y="1688" on="0"/>
        <pt x="872" y="1661" on="1"/>
        <pt x="872" y="1610" on="0"/>
        <pt x="816" y="1546" on="0"/>
        <pt x="774" y="1546" on="1"/>
        <pt x="732" y="1546" on="0"/>
        <pt x="676" y="1610" on="0"/>
      </contour>
      <contour>
        <pt x="307" y="1661" on="1"/>
        <pt x="307" y="1688" on="0"/>
        <pt x="324" y="1727" on="0"/>
        <pt x="352" y="1751" on="0"/>
        <pt x="387" y="1763" on="0"/>
        <pt x="406" y="1763" on="1"/>
        <pt x="424" y="1763" on="0"/>
        <pt x="460" y="1751" on="0"/>
        <pt x="487" y="1727" on="0"/>
        <pt x="504" y="1688" on="0"/>
        <pt x="504" y="1661" on="1"/>
        <pt x="504" y="1610" on="0"/>
        <pt x="448" y="1546" on="0"/>
        <pt x="406" y="1546" on="1"/>
        <pt x="364" y="1546" on="0"/>
        <pt x="307" y="1610" on="0"/>
      </contour>
    </TTGlyph>
    <TTGlyph name="divide" xMin="121" yMin="176" xMax="1063" yMax="1118">
      <contour>
        <pt x="496" y="287" on="1"/>
        <pt x="496" y="297" on="0"/>
        <pt x="500" y="334" on="0"/>
        <pt x="519" y="370" on="0"/>
        <pt x="557" y="397" on="0"/>
        <pt x="592" y="397" on="1"/>
        <pt x="626" y="397" on="0"/>
        <pt x="665" y="370" on="0"/>
        <pt x="684" y="334" on="0"/>
        <pt x="688" y="297" on="0"/>
        <pt x="688" y="287" on="1"/>
        <pt x="688" y="277" on="0"/>
        <pt x="684" y="240" on="0"/>
        <pt x="665" y="203" on="0"/>
        <pt x="626" y="176" on="0"/>
        <pt x="592" y="176" on="1"/>
        <pt x="557" y="176" on="0"/>
        <pt x="519" y="203" on="0"/>
        <pt x="500" y="240" on="0"/>
        <pt x="496" y="277" on="0"/>
      </contour>
      <contour>
        <pt x="121" y="696" on="1"/>
        <pt x="1063" y="696" on="1"/>
        <pt x="1063" y="598" on="1"/>
        <pt x="121" y="598" on="1"/>
      </contour>
      <contour>
        <pt x="496" y="1008" on="1"/>
        <pt x="496" y="1018" on="0"/>
        <pt x="500" y="1055" on="0"/>
        <pt x="519" y="1091" on="0"/>
        <pt x="557" y="1118" on="0"/>
        <pt x="592" y="1118" on="1"/>
        <pt x="626" y="1118" on="0"/>
        <pt x="665" y="1091" on="0"/>
        <pt x="684" y="1055" on="0"/>
        <pt x="688" y="1018" on="0"/>
        <pt x="688" y="1008" on="1"/>
        <pt x="688" y="998" on="0"/>
        <pt x="684" y="961" on="0"/>
        <pt x="665" y="924" on="0"/>
        <pt x="626" y="897" on="0"/>
        <pt x="592" y="897" on="1"/>
        <pt x="557" y="897" on="0"/>
        <pt x="519" y="924" on="0"/>
        <pt x="500" y="961" on="0"/>
        <pt x="496" y="998" on="0"/>
      </contour>
    </TTGlyph>
    <TTGlyph name="dollar" xMin="63" yMin="-221" xMax="887" yMax="1554">
      <contour>
        <pt x="455" y="41" on="1"/>
        <pt x="476" y="644" on="1"/>
        <pt x="465" y="652" on="0"/>
        <pt x="443" y="669" on="0"/>
        <pt x="432" y="678" on="1"/>
        <pt x="388" y="712" on="0"/>
        <pt x="282" y="793" on="0"/>
        <pt x="189" y="891" on="0"/>
        <pt x="127" y="1009" on="0"/>
        <pt x="127" y="1081" on="1"/>
        <pt x="127" y="1135" on="0"/>
        <pt x="160" y="1253" on="0"/>
        <pt x="245" y="1352" on="0"/>
        <pt x="390" y="1417" on="0"/>
        <pt x="503" y="1419" on="1"/>
        <pt x="508" y="1554" on="1"/>
        <pt x="582" y="1554" on="1"/>
        <pt x="577" y="1417" on="1"/>
        <pt x="658" y="1412" on="0"/>
        <pt x="802" y="1385" on="0"/>
        <pt x="858" y="1368" on="1"/>
        <pt x="836" y="1067" on="1"/>
        <pt x="778" y="1067" on="1"/>
        <pt x="778" y="1094" on="1"/>
        <pt x="778" y="1129" on="0"/>
        <pt x="765" y="1210" on="0"/>
        <pt x="722" y="1284" on="0"/>
        <pt x="641" y="1339" on="0"/>
        <pt x="574" y="1348" on="1"/>
        <pt x="555" y="809" on="1"/>
        <pt x="621" y="762" on="0"/>
        <pt x="741" y="667" on="0"/>
        <pt x="832" y="562" on="0"/>
        <pt x="887" y="443" on="0"/>
        <pt x="887" y="371" on="1"/>
        <pt x="887" y="298" on="0"/>
        <pt x="829" y="169" on="0"/>
        <pt x="730" y="66" on="0"/>
        <pt x="598" y="-5" on="0"/>
        <pt x="525" y="-19" on="1"/>
        <pt x="518" y="-221" on="1"/>
        <pt x="446" y="-221" on="1"/>
        <pt x="452" y="-28" on="1"/>
        <pt x="447" y="-29" on="0"/>
        <pt x="437" y="-29" on="0"/>
        <pt x="432" y="-29" on="1"/>
        <pt x="327" y="-29" on="0"/>
        <pt x="135" y="5" on="0"/>
        <pt x="63" y="27" on="1"/>
        <pt x="88" y="344" on="1"/>
        <pt x="150" y="344" on="1"/>
        <pt x="150" y="309" on="1"/>
        <pt x="150" y="267" on="0"/>
        <pt x="170" y="173" on="0"/>
        <pt x="230" y="93" on="0"/>
        <pt x="343" y="41" on="0"/>
        <pt x="436" y="41" on="1"/>
      </contour>
      <contour>
        <pt x="289" y="1141" on="1"/>
        <pt x="289" y="1090" on="0"/>
        <pt x="322" y="1010" on="0"/>
        <pt x="376" y="943" on="0"/>
        <pt x="446" y="886" on="0"/>
        <pt x="483" y="860" on="1"/>
        <pt x="500" y="1351" on="1"/>
        <pt x="452" y="1348" on="0"/>
        <pt x="375" y="1317" on="0"/>
        <pt x="319" y="1262" on="0"/>
        <pt x="289" y="1187" on="0"/>
      </contour>
      <contour>
        <pt x="725" y="317" on="1"/>
        <pt x="725" y="360" on="0"/>
        <pt x="696" y="435" on="0"/>
        <pt x="646" y="502" on="0"/>
        <pt x="582" y="562" on="0"/>
        <pt x="547" y="589" on="1"/>
        <pt x="528" y="53" on="1"/>
        <pt x="571" y="65" on="0"/>
        <pt x="643" y="113" on="0"/>
        <pt x="696" y="180" on="0"/>
        <pt x="725" y="266" on="0"/>
      </contour>
    </TTGlyph>
    <TTGlyph name="dotlessi" xMin="20" yMin="-33" xMax="487" yMax="897">
      <contour>
        <pt x="362" y="897" on="1"/>
        <pt x="350" y="818" on="0"/>
        <pt x="332" y="654" on="0"/>
        <pt x="319" y="491" on="0"/>
        <pt x="313" y="332" on="0"/>
        <pt x="313" y="258" on="1"/>
        <pt x="313" y="190" on="0"/>
        <pt x="321" y="107" on="0"/>
        <pt x="347" y="62" on="0"/>
        <pt x="398" y="47" on="0"/>
        <pt x="442" y="47" on="1"/>
        <pt x="487" y="47" on="1"/>
        <pt x="487" y="0" on="1"/>
        <pt x="471" y="0" on="1"/>
        <pt x="377" y="0" on="0"/>
        <pt x="226" y="-14" on="0"/>
        <pt x="154" y="-33" on="1"/>
        <pt x="178" y="129" on="0"/>
        <pt x="203" y="451" on="0"/>
        <pt x="203" y="606" on="1"/>
        <pt x="203" y="654" on="0"/>
        <pt x="192" y="725" on="0"/>
        <pt x="158" y="773" on="0"/>
        <pt x="94" y="797" on="0"/>
        <pt x="41" y="797" on="1"/>
        <pt x="20" y="797" on="1"/>
        <pt x="20" y="844" on="1"/>
        <pt x="121" y="847" on="0"/>
        <pt x="287" y="877" on="0"/>
      </contour>
    </TTGlyph>
    <TTGlyph name="e" xMin="70" yMin="-20" xMax="864" yMax="897">
      <contour>
        <pt x="668" y="526" on="1"/>
        <pt x="561" y="526" on="0"/>
        <pt x="343" y="542" on="0"/>
        <pt x="225" y="553" on="1"/>
        <pt x="219" y="506" on="0"/>
        <pt x="219" y="463" on="1"/>
        <pt x="220" y="353" on="0"/>
        <pt x="274" y="211" on="0"/>
        <pt x="363" y="128" on="0"/>
        <pt x="477" y="96" on="0"/>
        <pt x="539" y="96" on="1"/>
        <pt x="578" y="96" on="0"/>
        <pt x="649" y="107" on="0"/>
        <pt x="721" y="131" on="0"/>
        <pt x="796" y="170" on="0"/>
        <pt x="838" y="199" on="1"/>
        <pt x="864" y="160" on="1"/>
        <pt x="764" y="75" on="0"/>
        <pt x="567" y="-20" on="0"/>
        <pt x="455" y="-20" on="1"/>
        <pt x="365" y="-20" on="0"/>
        <pt x="222" y="47" on="0"/>
        <pt x="123" y="160" on="0"/>
        <pt x="70" y="309" on="0"/>
        <pt x="70" y="391" on="1"/>
        <pt x="70" y="498" on="0"/>
        <pt x="143" y="683" on="0"/>
        <pt x="268" y="819" on="0"/>
        <pt x="432" y="897" on="0"/>
        <pt x="522" y="897" on="1"/>
        <pt x="613" y="897" on="0"/>
        <pt x="734" y="836" on="0"/>
        <pt x="807" y="740" on="0"/>
        <pt x="838" y="625" on="0"/>
        <pt x="838" y="571" on="1"/>
        <pt x="838" y="560" on="0"/>
        <pt x="838" y="542" on="0"/>
        <pt x="836" y="532" on="1"/>
        <pt x="749" y="526" on="0"/>
      </contour>
      <contour>
        <pt x="487" y="838" on="1"/>
        <pt x="436" y="838" on="0"/>
        <pt x="355" y="800" on="0"/>
        <pt x="292" y="735" on="0"/>
        <pt x="249" y="648" on="0"/>
        <pt x="236" y="600" on="1"/>
        <pt x="307" y="598" on="0"/>
        <pt x="404" y="596" on="0"/>
        <pt x="438" y="596" on="1"/>
        <pt x="537" y="596" on="1"/>
        <pt x="572" y="596" on="0"/>
        <pt x="644" y="598" on="0"/>
        <pt x="692" y="600" on="1"/>
        <pt x="692" y="610" on="1"/>
        <pt x="692" y="664" on="0"/>
        <pt x="662" y="749" on="0"/>
        <pt x="608" y="807" on="0"/>
        <pt x="532" y="838" on="0"/>
      </contour>
    </TTGlyph>
    <TTGlyph name="eacute" xMin="70" yMin="-20" xMax="864" yMax="1544">
      <component glyphName="e" x="0" y="0" flags="0x204"/>
      <component glyphName="acute" x="-5" y="0" flags="0x4"/>
    </TTGlyph>
    <TTGlyph name="ecircumflex" xMin="70" yMin="-20" xMax="880" yMax="1544">
      <component glyphName="e" x="0" y="0" flags="0x204"/>
      <component glyphName="circumflex" x="-105" y="0" flags="0x4"/>
    </TTGlyph>
    <TTGlyph name="edieresis" xMin="70" yMin="-20" xMax="864" yMax="1350">
      <component glyphName="e" x="0" y="0" flags="0x204"/>
      <component glyphName="dieresis" x="-69" y="0" flags="0x4"/>
    </TTGlyph>
    <TTGlyph name="egrave" xMin="70" yMin="-20" xMax="864" yMax="1544">
      <component glyphName="e" x="0" y="0" flags="0x204"/>
      <component glyphName="grave" x="-13" y="0" flags="0x4"/>
    </TTGlyph>
    <TTGlyph name="eight" xMin="80" yMin="-29" xMax="909" yMax="1419">
      <contour>
        <pt x="895" y="1137" on="1"/>
        <pt x="895" y="1078" on="0"/>
        <pt x="854" y="970" on="0"/>
        <pt x="787" y="873" on="0"/>
        <pt x="700" y="786" on="0"/>
        <pt x="655" y="748" on="1"/>
        <pt x="704" y="710" on="0"/>
        <pt x="796" y="630" on="0"/>
        <pt x="866" y="539" on="0"/>
        <pt x="909" y="434" on="0"/>
        <pt x="909" y="373" on="1"/>
        <pt x="909" y="282" on="0"/>
        <pt x="833" y="134" on="0"/>
        <pt x="706" y="29" on="0"/>
        <pt x="539" y="-29" on="0"/>
        <pt x="449" y="-29" on="1"/>
        <pt x="374" y="-29" on="0"/>
        <pt x="240" y="13" on="0"/>
        <pt x="139" y="95" on="0"/>
        <pt x="80" y="214" on="0"/>
        <pt x="80" y="291" on="1"/>
        <pt x="80" y="365" on="0"/>
        <pt x="136" y="496" on="0"/>
        <pt x="226" y="612" on="0"/>
        <pt x="340" y="715" on="0"/>
        <pt x="399" y="760" on="1"/>
        <pt x="350" y="798" on="0"/>
        <pt x="266" y="873" on="0"/>
        <pt x="205" y="952" on="0"/>
        <pt x="170" y="1040" on="0"/>
        <pt x="170" y="1092" on="1"/>
        <pt x="170" y="1165" on="0"/>
        <pt x="237" y="1286" on="0"/>
        <pt x="346" y="1372" on="0"/>
        <pt x="486" y="1419" on="0"/>
        <pt x="559" y="1419" on="1"/>
        <pt x="625" y="1419" on="0"/>
        <pt x="746" y="1384" on="0"/>
        <pt x="839" y="1314" on="0"/>
        <pt x="895" y="1208" on="0"/>
      </contour>
      <contour>
        <pt x="453" y="719" on="1"/>
        <pt x="408" y="686" on="0"/>
        <pt x="324" y="607" on="0"/>
        <pt x="259" y="513" on="0"/>
        <pt x="219" y="404" on="0"/>
        <pt x="219" y="340" on="1"/>
        <pt x="219" y="275" on="0"/>
        <pt x="258" y="167" on="0"/>
        <pt x="330" y="89" on="0"/>
        <pt x="432" y="45" on="0"/>
        <pt x="494" y="45" on="1"/>
        <pt x="545" y="45" on="0"/>
        <pt x="641" y="83" on="0"/>
        <pt x="715" y="152" on="0"/>
        <pt x="760" y="248" on="0"/>
        <pt x="760" y="307" on="1"/>
        <pt x="760" y="377" on="0"/>
        <pt x="706" y="491" on="0"/>
        <pt x="625" y="584" on="0"/>
        <pt x="533" y="657" on="0"/>
        <pt x="496" y="686" on="1"/>
      </contour>
      <contour>
        <pt x="518" y="1346" on="1"/>
        <pt x="477" y="1346" on="0"/>
        <pt x="402" y="1321" on="0"/>
        <pt x="344" y="1273" on="0"/>
        <pt x="309" y="1202" on="0"/>
        <pt x="309" y="1155" on="1"/>
        <pt x="309" y="1099" on="0"/>
        <pt x="366" y="996" on="0"/>
        <pt x="450" y="906" on="0"/>
        <pt x="544" y="832" on="0"/>
        <pt x="580" y="805" on="1"/>
        <pt x="604" y="786" on="1"/>
        <pt x="636" y="813" on="0"/>
        <pt x="695" y="877" on="0"/>
        <pt x="740" y="949" on="0"/>
        <pt x="766" y="1030" on="0"/>
        <pt x="766" y="1075" on="1"/>
        <pt x="766" y="1131" on="0"/>
        <pt x="728" y="1230" on="0"/>
        <pt x="662" y="1303" on="0"/>
        <pt x="571" y="1346" on="0"/>
      </contour>
    </TTGlyph>
    <TTGlyph name="emdash" xMin="133" yMin="430" xMax="1391" yMax="545">
      <contour>
        <pt x="1386" y="430" on="1"/>
        <pt x="133" y="430" on="1"/>
        <pt x="137" y="545" on="1"/>
        <pt x="1391" y="545" on="1"/>
      </contour>
    </TTGlyph>
    <TTGlyph name="endash" xMin="133" yMin="430" xMax="1049" yMax="545">
      <contour>
        <pt x="1044" y="430" on="1"/>
        <pt x="133" y="430" on="1"/>
        <pt x="137" y="545" on="1"/>
        <pt x="1049" y="545" on="1"/>
      </contour>
    </TTGlyph>
    <TTGlyph name="equal" xMin="176" yMin="455" xMax="1118" yMax="842">
      <contour>
        <pt x="1118" y="553" on="1"/>
        <pt x="1118" y="455" on="1"/>
        <pt x="176" y="455" on="1"/>
        <pt x="176" y="553" on="1"/>
      </contour>
      <contour>
        <pt x="1118" y="842" on="1"/>
        <pt x="1118" y="743" on="1"/>
        <pt x="176" y="743" on="1"/>
        <pt x="176" y="842" on="1"/>
      </contour>
    </TTGlyph>
    <TTGlyph name="eth" xMin="68" yMin="-20" xMax="954" yMax="1554">
      <contour>
        <pt x="954" y="1393" on="1"/>
        <pt x="900" y="1374" on="0"/>
        <pt x="791" y="1332" on="0"/>
        <pt x="735" y="1311" on="1"/>
        <pt x="835" y="1193" on="0"/>
        <pt x="954" y="860" on="0"/>
        <pt x="954" y="651" on="1"/>
        <pt x="954" y="577" on="0"/>
        <pt x="933" y="420" on="0"/>
        <pt x="885" y="270" on="0"/>
        <pt x="811" y="138" on="0"/>
        <pt x="705" y="38" on="0"/>
        <pt x="565" y="-20" on="0"/>
        <pt x="477" y="-20" on="1"/>
        <pt x="390" y="-20" on="0"/>
        <pt x="240" y="30" on="0"/>
        <pt x="130" y="133" on="0"/>
        <pt x="68" y="288" on="0"/>
        <pt x="68" y="393" on="1"/>
        <pt x="68" y="453" on="0"/>
        <pt x="101" y="575" on="0"/>
        <pt x="162" y="687" on="0"/>
        <pt x="248" y="784" on="0"/>
        <pt x="356" y="856" on="0"/>
        <pt x="483" y="897" on="0"/>
        <pt x="553" y="897" on="1"/>
        <pt x="607" y="897" on="0"/>
        <pt x="727" y="884" on="0"/>
        <pt x="784" y="858" on="1"/>
        <pt x="775" y="910" on="0"/>
        <pt x="748" y="1017" on="0"/>
        <pt x="710" y="1121" on="0"/>
        <pt x="659" y="1221" on="0"/>
        <pt x="627" y="1266" on="1"/>
        <pt x="564" y="1238" on="0"/>
        <pt x="440" y="1174" on="0"/>
        <pt x="381" y="1137" on="1"/>
        <pt x="385" y="1239" on="1"/>
        <pt x="431" y="1262" on="0"/>
        <pt x="529" y="1304" on="0"/>
        <pt x="580" y="1323" on="1"/>
        <pt x="517" y="1392" on="0"/>
        <pt x="343" y="1492" on="0"/>
        <pt x="227" y="1513" on="1"/>
        <pt x="229" y="1554" on="1"/>
        <pt x="357" y="1554" on="0"/>
        <pt x="592" y="1454" on="0"/>
        <pt x="688" y="1360" on="1"/>
        <pt x="751" y="1380" on="0"/>
        <pt x="875" y="1415" on="0"/>
        <pt x="938" y="1432" on="1"/>
      </contour>
      <contour>
        <pt x="805" y="586" on="1"/>
        <pt x="805" y="623" on="0"/>
        <pt x="802" y="704" on="0"/>
        <pt x="797" y="748" on="1"/>
        <pt x="747" y="791" on="0"/>
        <pt x="619" y="842" on="0"/>
        <pt x="547" y="842" on="1"/>
        <pt x="473" y="842" on="0"/>
        <pt x="356" y="784" on="0"/>
        <pt x="274" y="678" on="0"/>
        <pt x="231" y="528" on="0"/>
        <pt x="231" y="436" on="1"/>
        <pt x="231" y="364" on="0"/>
        <pt x="268" y="222" on="0"/>
        <pt x="342" y="109" on="0"/>
        <pt x="454" y="39" on="0"/>
        <pt x="528" y="39" on="1"/>
        <pt x="589" y="39" on="0"/>
        <pt x="677" y="92" on="0"/>
        <pt x="739" y="180" on="0"/>
        <pt x="777" y="294" on="0"/>
        <pt x="798" y="416" on="0"/>
        <pt x="805" y="536" on="0"/>
      </contour>
    </TTGlyph>
    <TTGlyph name="exclam" xMin="125" yMin="-20" xMax="369" yMax="1391">
      <contour>
        <pt x="369" y="1391" on="1"/>
        <pt x="357" y="1308" on="0"/>
        <pt x="335" y="1136" on="0"/>
        <pt x="316" y="967" on="0"/>
        <pt x="300" y="806" on="0"/>
        <pt x="293" y="734" on="1"/>
        <pt x="277" y="566" on="0"/>
        <pt x="266" y="406" on="1"/>
        <pt x="209" y="406" on="1"/>
        <pt x="208" y="566" on="0"/>
        <pt x="204" y="734" on="1"/>
        <pt x="202" y="806" on="0"/>
        <pt x="198" y="967" on="0"/>
        <pt x="191" y="1136" on="0"/>
        <pt x="182" y="1308" on="0"/>
        <pt x="176" y="1391" on="1"/>
        <pt x="195" y="1389" on="0"/>
        <pt x="246" y="1386" on="0"/>
        <pt x="272" y="1386" on="1"/>
        <pt x="298" y="1386" on="0"/>
        <pt x="349" y="1389" on="0"/>
      </contour>
      <contour>
        <pt x="223" y="-20" on="1"/>
        <pt x="181" y="-20" on="0"/>
        <pt x="125" y="32" on="0"/>
        <pt x="125" y="86" on="1"/>
        <pt x="125" y="109" on="0"/>
        <pt x="139" y="151" on="0"/>
        <pt x="166" y="182" on="0"/>
        <pt x="205" y="201" on="0"/>
        <pt x="229" y="201" on="1"/>
        <pt x="270" y="201" on="0"/>
        <pt x="326" y="147" on="0"/>
        <pt x="326" y="94" on="1"/>
        <pt x="326" y="71" on="0"/>
        <pt x="312" y="30" on="0"/>
        <pt x="286" y="-2" on="0"/>
        <pt x="248" y="-20" on="0"/>
      </contour>
    </TTGlyph>
    <TTGlyph name="exclamdown" xMin="76" yMin="-514" xMax="319" yMax="897">
      <contour>
        <pt x="76" y="-514" on="1"/>
        <pt x="88" y="-432" on="0"/>
        <pt x="109" y="-260" on="0"/>
        <pt x="128" y="-91" on="0"/>
        <pt x="144" y="71" on="0"/>
        <pt x="151" y="143" on="1"/>
        <pt x="167" y="311" on="0"/>
        <pt x="178" y="471" on="1"/>
        <pt x="236" y="471" on="1"/>
        <pt x="237" y="311" on="0"/>
        <pt x="241" y="143" on="1"/>
        <pt x="242" y="71" on="0"/>
        <pt x="247" y="-91" on="0"/>
        <pt x="254" y="-260" on="0"/>
        <pt x="262" y="-432" on="0"/>
        <pt x="268" y="-514" on="1"/>
        <pt x="248" y="-512" on="0"/>
        <pt x="198" y="-512" on="0"/>
        <pt x="172" y="-512" on="1"/>
        <pt x="146" y="-512" on="0"/>
        <pt x="94" y="-512" on="0"/>
      </contour>
      <contour>
        <pt x="217" y="676" on="1"/>
        <pt x="175" y="676" on="0"/>
        <pt x="119" y="728" on="0"/>
        <pt x="119" y="782" on="1"/>
        <pt x="119" y="805" on="0"/>
        <pt x="133" y="847" on="0"/>
        <pt x="160" y="878" on="0"/>
        <pt x="199" y="897" on="0"/>
        <pt x="223" y="897" on="1"/>
        <pt x="263" y="897" on="0"/>
        <pt x="319" y="843" on="0"/>
        <pt x="319" y="791" on="1"/>
        <pt x="319" y="768" on="0"/>
        <pt x="306" y="726" on="0"/>
        <pt x="280" y="694" on="0"/>
        <pt x="242" y="676" on="0"/>
      </contour>
    </TTGlyph>
    <TTGlyph name="f" xMin="35" yMin="-33" xMax="674" yMax="1554">
      <contour>
        <pt x="203" y="811" on="1"/>
        <pt x="161" y="814" on="0"/>
        <pt x="78" y="823" on="0"/>
        <pt x="35" y="829" on="1"/>
        <pt x="39" y="877" on="1"/>
        <pt x="207" y="877" on="1"/>
        <pt x="207" y="882" on="0"/>
        <pt x="207" y="918" on="0"/>
        <pt x="208" y="967" on="0"/>
        <pt x="209" y="1022" on="0"/>
        <pt x="210" y="1047" on="1"/>
        <pt x="212" y="1094" on="0"/>
        <pt x="242" y="1206" on="0"/>
        <pt x="294" y="1318" on="0"/>
        <pt x="365" y="1424" on="0"/>
        <pt x="450" y="1505" on="0"/>
        <pt x="547" y="1554" on="0"/>
        <pt x="598" y="1554" on="1"/>
        <pt x="635" y="1554" on="0"/>
        <pt x="674" y="1518" on="0"/>
        <pt x="674" y="1487" on="1"/>
        <pt x="674" y="1464" on="0"/>
        <pt x="656" y="1416" on="0"/>
        <pt x="645" y="1405" on="1"/>
        <pt x="614" y="1413" on="0"/>
        <pt x="553" y="1423" on="0"/>
        <pt x="524" y="1423" on="1"/>
        <pt x="477" y="1423" on="0"/>
        <pt x="412" y="1387" on="0"/>
        <pt x="368" y="1281" on="0"/>
        <pt x="342" y="1089" on="0"/>
        <pt x="333" y="932" on="1"/>
        <pt x="330" y="877" on="1"/>
        <pt x="398" y="877" on="0"/>
        <pt x="545" y="882" on="0"/>
        <pt x="623" y="893" on="1"/>
        <pt x="580" y="801" on="1"/>
        <pt x="514" y="801" on="1"/>
        <pt x="466" y="801" on="0"/>
        <pt x="374" y="801" on="0"/>
        <pt x="328" y="803" on="1"/>
        <pt x="317" y="613" on="1"/>
        <pt x="311" y="511" on="0"/>
        <pt x="309" y="323" on="0"/>
        <pt x="309" y="258" on="1"/>
        <pt x="309" y="193" on="0"/>
        <pt x="315" y="111" on="0"/>
        <pt x="340" y="65" on="0"/>
        <pt x="393" y="47" on="0"/>
        <pt x="440" y="47" on="1"/>
        <pt x="483" y="47" on="1"/>
        <pt x="483" y="0" on="1"/>
        <pt x="435" y="-2" on="0"/>
        <pt x="351" y="-4" on="0"/>
        <pt x="271" y="-10" on="0"/>
        <pt x="189" y="-21" on="0"/>
        <pt x="143" y="-33" on="1"/>
        <pt x="160" y="144" on="0"/>
        <pt x="189" y="468" on="0"/>
        <pt x="195" y="616" on="1"/>
      </contour>
    </TTGlyph>
    <TTGlyph name="f_b" xMin="35" yMin="-33" xMax="1549" yMax="1554">
      <contour>
        <pt x="722" y="76" on="1"/>
        <pt x="729" y="166" on="0"/>
        <pt x="745" y="378" on="0"/>
        <pt x="759" y="608" on="0"/>
        <pt x="773" y="848" on="0"/>
        <pt x="783" y="1083" on="0"/>
        <pt x="789" y="1306" on="0"/>
        <pt x="789" y="1405" on="1"/>
        <pt x="758" y="1413" on="0"/>
        <pt x="693" y="1423" on="0"/>
        <pt x="657" y="1423" on="1"/>
        <pt x="566" y="1423" on="0"/>
        <pt x="448" y="1387" on="0"/>
        <pt x="377" y="1281" on="0"/>
        <pt x="342" y="1088" on="0"/>
        <pt x="333" y="932" on="1"/>
        <pt x="330" y="877" on="1"/>
        <pt x="398" y="877" on="0"/>
        <pt x="545" y="882" on="0"/>
        <pt x="623" y="893" on="1"/>
        <pt x="580" y="801" on="1"/>
        <pt x="514" y="801" on="1"/>
        <pt x="466" y="801" on="0"/>
        <pt x="374" y="801" on="0"/>
        <pt x="328" y="803" on="1"/>
        <pt x="317" y="614" on="1"/>
        <pt x="312" y="512" on="0"/>
        <pt x="309" y="323" on="0"/>
        <pt x="309" y="258" on="1"/>
        <pt x="309" y="193" on="0"/>
        <pt x="315" y="111" on="0"/>
        <pt x="340" y="65" on="0"/>
        <pt x="393" y="47" on="0"/>
        <pt x="440" y="47" on="1"/>
        <pt x="483" y="47" on="1"/>
        <pt x="483" y="0" on="1"/>
        <pt x="435" y="-2" on="0"/>
        <pt x="351" y="-4" on="0"/>
        <pt x="271" y="-10" on="0"/>
        <pt x="189" y="-21" on="0"/>
        <pt x="143" y="-33" on="1"/>
        <pt x="160" y="144" on="0"/>
        <pt x="185" y="468" on="0"/>
        <pt x="195" y="616" on="1"/>
        <pt x="203" y="811" on="1"/>
        <pt x="161" y="814" on="0"/>
        <pt x="78" y="823" on="0"/>
        <pt x="35" y="829" on="1"/>
        <pt x="39" y="877" on="1"/>
        <pt x="207" y="877" on="1"/>
        <pt x="207" y="882" on="0"/>
        <pt x="208" y="918" on="0"/>
        <pt x="208" y="967" on="0"/>
        <pt x="209" y="1022" on="0"/>
        <pt x="209" y="1047" on="1"/>
        <pt x="209" y="1092" on="0"/>
        <pt x="245" y="1203" on="0"/>
        <pt x="310" y="1316" on="0"/>
        <pt x="401" y="1422" on="0"/>
        <pt x="510" y="1504" on="0"/>
        <pt x="633" y="1554" on="0"/>
        <pt x="699" y="1554" on="1"/>
        <pt x="737" y="1554" on="0"/>
        <pt x="786" y="1537" on="0"/>
        <pt x="800" y="1522" on="1"/>
        <pt x="832" y="1527" on="0"/>
        <pt x="904" y="1543" on="0"/>
        <pt x="949" y="1554" on="1"/>
        <pt x="946" y="1526" on="0"/>
        <pt x="937" y="1427" on="0"/>
        <pt x="926" y="1298" on="0"/>
        <pt x="914" y="1145" on="0"/>
        <pt x="903" y="980" on="0"/>
        <pt x="893" y="807" on="0"/>
        <pt x="889" y="723" on="1"/>
        <pt x="947" y="771" on="0"/>
        <pt x="1047" y="837" on="0"/>
        <pt x="1136" y="878" on="0"/>
        <pt x="1212" y="897" on="0"/>
        <pt x="1246" y="897" on="1"/>
        <pt x="1322" y="897" on="0"/>
        <pt x="1436" y="838" on="0"/>
        <pt x="1511" y="734" on="0"/>
        <pt x="1549" y="592" on="0"/>
        <pt x="1549" y="510" on="1"/>
        <pt x="1549" y="389" on="0"/>
        <pt x="1462" y="193" on="0"/>
        <pt x="1322" y="55" on="0"/>
        <pt x="1147" y="-20" on="0"/>
        <pt x="1059" y="-20" on="1"/>
        <pt x="1017" y="-20" on="0"/>
        <pt x="922" y="-6" on="0"/>
        <pt x="831" y="19" on="0"/>
        <pt x="750" y="54" on="0"/>
      </contour>
      <contour>
        <pt x="887" y="649" on="1"/>
        <pt x="883" y="587" on="0"/>
        <pt x="877" y="441" on="0"/>
        <pt x="873" y="299" on="0"/>
        <pt x="871" y="174" on="0"/>
        <pt x="871" y="133" on="1"/>
        <pt x="916" y="96" on="0"/>
        <pt x="1047" y="47" on="0"/>
        <pt x="1125" y="47" on="1"/>
        <pt x="1180" y="47" on="0"/>
        <pt x="1280" y="105" on="0"/>
        <pt x="1355" y="213" on="0"/>
        <pt x="1399" y="366" on="0"/>
        <pt x="1399" y="461" on="1"/>
        <pt x="1399" y="620" on="0"/>
        <pt x="1285" y="795" on="0"/>
        <pt x="1172" y="795" on="1"/>
        <pt x="1134" y="795" on="0"/>
        <pt x="1050" y="765" on="0"/>
        <pt x="973" y="721" on="0"/>
        <pt x="907" y="670" on="0"/>
      </contour>
    </TTGlyph>
    <TTGlyph name="f_f" xMin="38" yMin="-33" xMax="1243" yMax="1554">
      <contour>
        <pt x="331" y="877" on="1"/>
        <pt x="614" y="877" on="1"/>
        <pt x="772" y="877" on="1"/>
        <pt x="778" y="1047" on="1"/>
        <pt x="780" y="1104" on="0"/>
        <pt x="814" y="1228" on="0"/>
        <pt x="843" y="1289" on="1"/>
        <pt x="805" y="1308" on="0"/>
        <pt x="736" y="1324" on="0"/>
        <pt x="691" y="1324" on="1"/>
        <pt x="647" y="1324" on="0"/>
        <pt x="563" y="1317" on="0"/>
        <pt x="487" y="1288" on="0"/>
        <pt x="421" y="1231" on="0"/>
        <pt x="371" y="1133" on="0"/>
        <pt x="337" y="986" on="0"/>
        <pt x="332" y="882" on="1"/>
      </contour>
      <contour>
        <pt x="923" y="1415" on="1"/>
        <pt x="971" y="1476" on="0"/>
        <pt x="1095" y="1554" on="0"/>
        <pt x="1167" y="1554" on="1"/>
        <pt x="1202" y="1554" on="0"/>
        <pt x="1243" y="1518" on="0"/>
        <pt x="1243" y="1487" on="1"/>
        <pt x="1243" y="1464" on="0"/>
        <pt x="1225" y="1416" on="0"/>
        <pt x="1214" y="1405" on="1"/>
        <pt x="1183" y="1413" on="0"/>
        <pt x="1122" y="1423" on="0"/>
        <pt x="1093" y="1423" on="1"/>
        <pt x="1046" y="1423" on="0"/>
        <pt x="981" y="1387" on="0"/>
        <pt x="938" y="1281" on="0"/>
        <pt x="911" y="1089" on="0"/>
        <pt x="903" y="932" on="1"/>
        <pt x="900" y="879" on="1"/>
        <pt x="971" y="881" on="0"/>
        <pt x="1115" y="887" on="0"/>
        <pt x="1190" y="892" on="1"/>
        <pt x="1146" y="801" on="1"/>
        <pt x="896" y="801" on="1"/>
        <pt x="886" y="614" on="1"/>
        <pt x="881" y="512" on="0"/>
        <pt x="878" y="323" on="0"/>
        <pt x="878" y="258" on="1"/>
        <pt x="878" y="193" on="0"/>
        <pt x="884" y="111" on="0"/>
        <pt x="909" y="65" on="0"/>
        <pt x="962" y="47" on="0"/>
        <pt x="1009" y="47" on="1"/>
        <pt x="1052" y="47" on="1"/>
        <pt x="1052" y="0" on="1"/>
        <pt x="1004" y="-2" on="0"/>
        <pt x="920" y="-4" on="0"/>
        <pt x="840" y="-10" on="0"/>
        <pt x="758" y="-21" on="0"/>
        <pt x="712" y="-33" on="1"/>
        <pt x="721" y="55" on="0"/>
        <pt x="737" y="237" on="0"/>
        <pt x="751" y="415" on="0"/>
        <pt x="761" y="582" on="0"/>
        <pt x="764" y="656" on="1"/>
        <pt x="769" y="802" on="1"/>
        <pt x="651" y="804" on="0"/>
        <pt x="433" y="807" on="0"/>
        <pt x="328" y="812" on="1"/>
        <pt x="317" y="614" on="1"/>
        <pt x="312" y="512" on="0"/>
        <pt x="309" y="323" on="0"/>
        <pt x="309" y="258" on="1"/>
        <pt x="309" y="193" on="0"/>
        <pt x="315" y="111" on="0"/>
        <pt x="340" y="65" on="0"/>
        <pt x="393" y="47" on="0"/>
        <pt x="440" y="47" on="1"/>
        <pt x="483" y="47" on="1"/>
        <pt x="483" y="0" on="1"/>
        <pt x="435" y="-2" on="0"/>
        <pt x="351" y="-4" on="0"/>
        <pt x="271" y="-10" on="0"/>
        <pt x="189" y="-21" on="0"/>
        <pt x="143" y="-33" on="1"/>
        <pt x="152" y="55" on="0"/>
        <pt x="168" y="234" on="0"/>
        <pt x="182" y="408" on="0"/>
        <pt x="192" y="572" on="0"/>
        <pt x="195" y="646" on="1"/>
        <pt x="201" y="817" on="1"/>
        <pt x="159" y="819" on="0"/>
        <pt x="79" y="825" on="0"/>
        <pt x="38" y="828" on="1"/>
        <pt x="43" y="877" on="1"/>
        <pt x="203" y="877" on="1"/>
        <pt x="207" y="997" on="1"/>
        <pt x="208" y="1042" on="0"/>
        <pt x="260" y="1146" on="0"/>
        <pt x="346" y="1248" on="0"/>
        <pt x="458" y="1341" on="0"/>
        <pt x="581" y="1412" on="0"/>
        <pt x="709" y="1455" on="0"/>
        <pt x="768" y="1455" on="1"/>
        <pt x="822" y="1455" on="0"/>
        <pt x="899" y="1433" on="0"/>
      </contour>
    </TTGlyph>
    <TTGlyph name="f_f_i" xMin="38" yMin="-33" xMax="1615" yMax="1554">
      <contour>
        <pt x="1490" y="897" on="1"/>
        <pt x="1465" y="735" on="0"/>
        <pt x="1441" y="405" on="0"/>
        <pt x="1441" y="258" on="1"/>
        <pt x="1441" y="190" on="0"/>
        <pt x="1449" y="107" on="0"/>
        <pt x="1475" y="62" on="0"/>
        <pt x="1526" y="47" on="0"/>
        <pt x="1570" y="47" on="1"/>
        <pt x="1615" y="47" on="1"/>
        <pt x="1615" y="0" on="1"/>
        <pt x="1599" y="0" on="1"/>
        <pt x="1505" y="0" on="0"/>
        <pt x="1354" y="-14" on="0"/>
        <pt x="1282" y="-33" on="1"/>
        <pt x="1306" y="129" on="0"/>
        <pt x="1331" y="451" on="0"/>
        <pt x="1331" y="606" on="1"/>
        <pt x="1331" y="662" on="0"/>
        <pt x="1315" y="734" on="0"/>
        <pt x="1284" y="776" on="0"/>
        <pt x="1238" y="792" on="0"/>
        <pt x="1209" y="792" on="1"/>
        <pt x="1128" y="792" on="0"/>
        <pt x="972" y="792" on="0"/>
        <pt x="894" y="794" on="1"/>
        <pt x="886" y="614" on="1"/>
        <pt x="881" y="512" on="0"/>
        <pt x="878" y="323" on="0"/>
        <pt x="878" y="258" on="1"/>
        <pt x="878" y="193" on="0"/>
        <pt x="884" y="111" on="0"/>
        <pt x="909" y="65" on="0"/>
        <pt x="962" y="47" on="0"/>
        <pt x="1009" y="47" on="1"/>
        <pt x="1052" y="47" on="1"/>
        <pt x="1052" y="0" on="1"/>
        <pt x="1004" y="-2" on="0"/>
        <pt x="920" y="-4" on="0"/>
        <pt x="840" y="-10" on="0"/>
        <pt x="758" y="-21" on="0"/>
        <pt x="712" y="-33" on="1"/>
        <pt x="729" y="144" on="0"/>
        <pt x="754" y="468" on="0"/>
        <pt x="764" y="616" on="1"/>
        <pt x="771" y="796" on="1"/>
        <pt x="654" y="798" on="0"/>
        <pt x="433" y="806" on="0"/>
        <pt x="328" y="811" on="1"/>
        <pt x="317" y="614" on="1"/>
        <pt x="312" y="512" on="0"/>
        <pt x="309" y="323" on="0"/>
        <pt x="309" y="258" on="1"/>
        <pt x="309" y="193" on="0"/>
        <pt x="315" y="111" on="0"/>
        <pt x="340" y="65" on="0"/>
        <pt x="393" y="47" on="0"/>
        <pt x="440" y="47" on="1"/>
        <pt x="483" y="47" on="1"/>
        <pt x="483" y="0" on="1"/>
        <pt x="435" y="-2" on="0"/>
        <pt x="351" y="-4" on="0"/>
        <pt x="271" y="-10" on="0"/>
        <pt x="189" y="-21" on="0"/>
        <pt x="143" y="-33" on="1"/>
        <pt x="152" y="55" on="0"/>
        <pt x="168" y="234" on="0"/>
        <pt x="182" y="408" on="0"/>
        <pt x="192" y="572" on="0"/>
        <pt x="195" y="646" on="1"/>
        <pt x="201" y="817" on="1"/>
        <pt x="159" y="819" on="0"/>
        <pt x="77" y="825" on="0"/>
        <pt x="38" y="828" on="1"/>
        <pt x="43" y="877" on="1"/>
        <pt x="203" y="877" on="1"/>
        <pt x="207" y="997" on="1"/>
        <pt x="208" y="1042" on="0"/>
        <pt x="260" y="1146" on="0"/>
        <pt x="344" y="1248" on="0"/>
        <pt x="456" y="1341" on="0"/>
        <pt x="580" y="1412" on="0"/>
        <pt x="709" y="1455" on="0"/>
        <pt x="769" y="1455" on="1"/>
        <pt x="827" y="1455" on="0"/>
        <pt x="912" y="1428" on="0"/>
        <pt x="938" y="1405" on="1"/>
        <pt x="964" y="1432" on="0"/>
        <pt x="1034" y="1485" on="0"/>
        <pt x="1118" y="1528" on="0"/>
        <pt x="1215" y="1554" on="0"/>
        <pt x="1268" y="1554" on="1"/>
        <pt x="1332" y="1554" on="0"/>
        <pt x="1386" y="1509" on="0"/>
        <pt x="1386" y="1472" on="1"/>
        <pt x="1386" y="1455" on="0"/>
        <pt x="1374" y="1421" on="0"/>
        <pt x="1360" y="1405" on="1"/>
        <pt x="1329" y="1413" on="0"/>
        <pt x="1268" y="1423" on="0"/>
        <pt x="1239" y="1423" on="1"/>
        <pt x="1172" y="1423" on="0"/>
        <pt x="1074" y="1411" on="0"/>
        <pt x="1003" y="1375" on="0"/>
        <pt x="956" y="1308" on="0"/>
        <pt x="926" y="1199" on="0"/>
        <pt x="908" y="1041" on="0"/>
        <pt x="902" y="932" on="1"/>
        <pt x="899" y="877" on="1"/>
        <pt x="1049" y="877" on="1"/>
        <pt x="1150" y="877" on="0"/>
        <pt x="1372" y="886" on="0"/>
      </contour>
      <contour>
        <pt x="774" y="877" on="1"/>
        <pt x="775" y="909" on="0"/>
        <pt x="777" y="956" on="0"/>
        <pt x="778" y="993" on="0"/>
        <pt x="778" y="1023" on="0"/>
        <pt x="778" y="1037" on="1"/>
        <pt x="778" y="1100" on="0"/>
        <pt x="807" y="1226" on="0"/>
        <pt x="841" y="1286" on="1"/>
        <pt x="802" y="1306" on="0"/>
        <pt x="715" y="1324" on="0"/>
        <pt x="667" y="1324" on="1"/>
        <pt x="629" y="1324" on="0"/>
        <pt x="552" y="1315" on="0"/>
        <pt x="481" y="1284" on="0"/>
        <pt x="417" y="1225" on="0"/>
        <pt x="368" y="1126" on="0"/>
        <pt x="335" y="980" on="0"/>
        <pt x="331" y="877" on="1"/>
      </contour>
    </TTGlyph>
</ttFont>
